<svg width="263" height="253" viewBox="0 0 263 253" fill="none" xmlns="http://www.w3.org/2000/svg">
<rect width="263" height="253" fill="white"/>
<path fill-rule="evenodd" clip-rule="evenodd" d="M131.594 47.4408C193.517 57.4474 236.7 91.4471 236.7 145.732C236.7 210.797 183.053 143.192 146.061 181.128C109.069 219.063 30.2575 220.139 26.4875 145.732C22.9584 76.0773 69.6705 37.4341 131.594 47.4408Z" fill="#124040"/>
<path fill-rule="evenodd" clip-rule="evenodd" d="M99.9406 152.628L116.321 132.244L116.697 132.531C119.116 134.36 121.035 135.566 122.452 136.148L122.872 136.319C129.682 139.075 134.365 140.011 133.613 140.658L132.681 141.464C126.662 146.691 118.42 154.293 107.956 164.268C106.523 165.753 104.592 166.706 102.505 166.961L100.347 167.209C79.1659 169.621 65.5768 169.829 60.5971 168.768C59.5572 168.547 56.3562 169.125 53.9394 171.46C50.3142 174.963 45.1301 183.401 44.2595 183.401C42.9938 183.401 44.1864 177.812 47.8373 166.635L48.2232 165.336C49.9241 159.663 51.1477 156.309 51.8941 155.274C52.6957 154.162 55.4034 156.125 60.0174 161.164L59.8923 161.818C60.4911 161.15 61.2009 160.439 62.0219 159.686L64.2019 159.435C71.9033 158.535 77.7573 157.713 81.7637 156.967L82.1856 156.887C86.5264 156.06 92.4448 154.64 99.9406 152.628Z" fill="white"/>
<path fill-rule="evenodd" clip-rule="evenodd" d="M201.945 131.511L208.036 135.926C209.204 136.772 210.062 137.958 210.479 139.308L211.633 143.025C212.176 144.149 211.701 145.485 210.556 146.054L208.405 147.589C207.022 148.276 205.336 147.532 204.972 146.075L203.762 141.932C203.762 141.932 198.629 140.432 197.946 134.556L201.945 131.511Z" fill="white"/>
<path fill-rule="evenodd" clip-rule="evenodd" d="M172.589 58.9972C176.751 59.1601 178.842 64.6464 180.203 67.3584C180.666 68.2822 177.407 95.5861 176.341 102.573C174.445 115.016 168.712 118.961 165.113 119.808C165.113 119.808 165.329 133.954 163.821 137.475C160.484 145.271 118.234 140.038 114.105 127.008C111.282 118.1 121.772 117.062 125.709 111.692C132.924 101.849 133.299 92.6882 141.071 86.1349C144.017 83.0296 147.436 79.9128 150.386 76.1649L151.586 74.6461C159.088 65.1912 164.8 58.9181 172.198 58.9876L172.589 58.9972Z" fill="white"/>
<path fill-rule="evenodd" clip-rule="evenodd" d="M151.722 82.6641C151.033 82.9838 150.025 83.0831 149.665 82.4335C148.537 80.3942 145.084 80.1139 143.617 81.9424C145.025 81.4766 146.666 81.0321 147.925 81.7971C148.276 82.01 148.579 82.3084 148.878 82.6038C149.378 83.0957 149.868 83.5789 150.555 83.6437C151.066 83.6919 151.553 83.485 152.037 83.2791C152.556 83.058 153.073 82.8382 153.615 82.9362C154.216 83.045 154.638 83.5051 155.059 83.9654C155.48 84.4243 155.9 84.8833 156.499 84.9946C156.99 85.0856 157.482 84.9165 157.97 84.7488C158.516 84.5615 159.056 84.376 159.58 84.558C160.207 84.7752 160.494 85.3965 160.78 86.0184C161.065 86.6369 161.351 87.256 161.972 87.4787C162.339 87.6106 162.737 87.5628 163.129 87.4893L163.518 87.4128C164.435 87.2374 165.425 87.2216 166.263 87.6186C166.984 87.9596 167.552 88.6658 167.598 89.4194C167.617 89.2568 167.633 89.0945 167.648 88.9326L167.793 88.0149C166.961 87.0762 165.655 86.5449 164.375 86.6267C164.156 86.6407 163.936 86.6715 163.717 86.7023C163.296 86.7616 162.875 86.8208 162.457 86.7595C161.821 86.6664 161.175 86.146 161.282 85.5364L161.292 85.4706C161.408 84.4497 159.986 83.8641 158.893 83.9501C158.661 83.9684 158.423 83.9981 158.184 84.028C157.272 84.1418 156.34 84.2583 155.624 83.7543C155.348 83.5596 155.134 83.287 154.923 83.0169C154.627 82.6391 154.334 82.2665 153.88 82.1196C153.378 81.9572 152.867 82.1274 152.372 82.3536L152.207 82.4307L151.722 82.6641ZM143.795 89.7641C144.269 90.3766 145.246 90.0335 146 89.7687L146.039 89.7549C148.061 89.0454 150.497 89.599 151.974 91.1038C152.784 91.9289 153.983 91.6983 155.224 91.4595C156.26 91.2601 157.327 91.055 158.22 91.455C158.638 91.642 159.026 91.9584 159.406 92.2684C160.103 92.8364 160.773 93.3831 161.554 93.0737C163.035 92.4868 164.852 92.7998 166.041 93.8269L166.037 94.1505L166.032 94.8643C164.85 93.7255 162.936 93.3567 161.39 93.9698C160.609 94.2792 159.939 93.7325 159.242 93.1645C158.862 92.8545 158.474 92.5381 158.056 92.3511C157.162 91.9511 156.096 92.1562 155.059 92.3557C153.818 92.5944 152.62 92.825 151.81 91.9999C150.362 90.5253 147.994 89.964 145.997 90.6099L145.598 90.7474C144.887 90.9898 144.057 91.2101 143.631 90.6602C142.288 88.9257 139.59 88.3176 137.585 89.2975L137.844 88.3564L137.963 88.3041C139.942 87.4656 142.499 88.0904 143.795 89.7641ZM139.192 97.499C138.449 97.7915 137.487 98.1704 136.989 97.5759C136.081 96.4928 134.006 96.4138 130.765 97.3389C131.013 97.5008 131.652 97.4848 132.44 97.4651C133.925 97.4279 135.938 97.3776 136.86 98.4774C137.308 99.0111 138.129 98.7603 138.83 98.4918L139.222 98.3398C141.192 97.6206 143.581 98.0939 145.087 99.5141C145.929 100.309 147.118 100.034 148.348 99.7495C149.376 99.5119 150.433 99.2676 151.342 99.6343C151.767 99.8058 152.168 100.108 152.56 100.403C153.279 100.945 153.97 101.467 154.738 101.129L154.845 101.084C155.715 100.73 157.387 101.326 158.902 101.865C160.004 102.258 161.023 102.621 161.591 102.568C158.079 100.58 155.837 99.7997 154.866 100.227L154.789 100.258C154.052 100.53 153.383 100.025 152.688 99.5018C152.296 99.2061 151.896 98.9043 151.471 98.7328C150.562 98.3661 149.504 98.6104 148.476 98.848C147.246 99.1324 146.057 99.4071 145.215 98.6126C143.679 97.1635 141.222 96.7002 139.231 97.4838L139.192 97.499ZM146.077 130.318C146.968 130.868 148.122 131.58 148.947 131.189C150.402 130.499 153.026 131.111 156.817 133.028L157.181 133.214C156.81 133.28 155.976 133.033 154.947 132.729C153.01 132.156 150.382 131.379 148.857 132.102C148.117 132.453 147.111 131.915 146.269 131.403L145.797 131.115C143.572 129.801 140.566 129.358 138.237 129.978C137.49 130.277 136.45 129.927 135.308 129.542C134.53 129.28 133.706 129.003 132.893 128.902C131.891 128.779 131.375 128.853 130.922 128.918C130.468 128.983 130.077 129.04 129.323 128.877C128.739 128.752 127.807 128.36 126.527 127.701C124.256 126.652 120.233 126.779 118.115 127.508L118.001 127.546C115.737 128.266 115.756 127.477 118.032 126.656L118.205 126.595L118.341 126.55C120.76 125.775 125.241 125.86 127.586 127.307L127.632 127.335C128.523 127.885 129.677 128.598 130.501 128.207L130.562 128.18C131.139 127.953 132.488 127.956 132.906 127.983L132.983 127.989C134.391 128.139 134.697 128.262 135.031 128.497L135.271 128.671L135.408 128.722C135.917 128.913 136.456 129.138 137.027 129.398C137.263 129.378 137.534 129.318 137.855 129.208L137.991 129.163C140.41 128.388 143.686 128.842 146.031 130.289L146.077 130.318ZM135.596 104.323C136.123 104.917 137.141 104.538 137.927 104.246L137.968 104.23C140.075 103.447 142.673 103.91 144.299 105.359C145.19 106.154 146.447 105.879 147.749 105.595L147.749 105.595C148.836 105.357 149.955 105.113 150.917 105.479C151.366 105.651 151.79 105.953 152.205 106.248C152.94 106.772 153.648 107.277 154.428 107.005L154.509 106.974C155.536 106.546 157.908 107.327 161.623 109.314C161.023 109.368 159.944 109.005 158.778 108.612C157.175 108.072 155.407 107.477 154.486 107.83L154.373 107.875C153.561 108.213 152.829 107.692 152.069 107.15C151.654 106.854 151.231 106.552 150.781 106.381C149.819 106.014 148.701 106.259 147.613 106.496C146.311 106.781 145.054 107.055 144.163 106.261C142.57 104.841 140.043 104.367 137.959 105.086L137.543 105.238C136.802 105.507 135.933 105.758 135.46 105.224C134.485 104.124 132.354 104.175 130.784 104.212C129.95 104.231 129.274 104.247 129.011 104.086C132.44 103.161 134.635 103.239 135.596 104.323ZM135.061 111.667C134.157 111.959 132.986 112.338 132.379 111.744C131.274 110.661 128.749 110.582 124.803 111.507C125.105 111.669 125.883 111.653 126.842 111.633C128.65 111.596 131.1 111.546 132.223 112.645C132.767 113.179 133.767 112.928 134.62 112.66L135.098 112.508C137.495 111.789 140.403 112.262 142.236 113.682C143.261 114.477 144.708 114.202 146.205 113.918C147.457 113.68 148.743 113.436 149.85 113.802C150.367 113.974 150.855 114.276 151.332 114.571C152.207 115.113 153.049 115.635 153.983 115.297L154.113 115.252C155.173 114.898 157.207 115.494 159.051 116.033C160.393 116.426 161.634 116.789 162.325 116.736C158.05 114.748 155.321 113.968 154.14 114.395L154.046 114.426C153.148 114.698 152.334 114.193 151.488 113.67C151.011 113.374 150.524 113.072 150.006 112.901C148.9 112.534 147.613 112.778 146.362 113.016C144.864 113.3 143.417 113.575 142.392 112.781C140.522 111.331 137.532 110.868 135.108 111.652L135.061 111.667ZM128.039 117.479C128.72 118.073 130.033 117.694 131.047 117.402L131.1 117.386C133.819 116.603 137.172 117.066 139.269 118.515C140.419 119.31 142.041 119.035 143.721 118.751C145.124 118.513 146.567 118.269 147.808 118.635C148.389 118.807 148.935 119.109 149.47 119.404C150.418 119.928 151.332 120.433 152.339 120.161L152.444 120.13C153.769 119.702 156.829 120.483 161.623 122.47C160.848 122.524 159.457 122.161 157.952 121.768L157.952 121.768C155.884 121.228 153.602 120.633 152.414 120.986L152.269 121.031C151.22 121.369 150.276 120.848 149.295 120.306C148.76 120.01 148.213 119.708 147.633 119.537C146.392 119.17 144.949 119.415 143.546 119.652C141.866 119.937 140.244 120.211 139.094 119.417C137.038 117.997 133.777 117.523 131.089 118.242L130.553 118.394C129.596 118.663 128.475 118.914 127.864 118.38C126.606 117.28 123.857 117.331 121.83 117.368C120.754 117.387 119.882 117.403 119.543 117.242C123.968 116.316 126.8 116.395 128.039 117.479ZM127.891 122.462C126.877 122.754 125.564 123.133 124.883 122.539C123.644 121.456 120.812 121.377 116.387 122.302C116.726 122.463 117.598 122.447 118.674 122.428H118.674C120.701 122.391 123.45 122.34 124.708 123.44C125.319 123.974 126.44 123.723 127.397 123.455L127.933 123.302C130.448 122.63 133.464 123 135.525 124.214C136.157 124.699 137.257 124.638 138.466 124.572C139.288 124.526 140.161 124.478 140.97 124.597C141.969 124.744 142.444 124.952 142.86 125.135C143.278 125.318 143.638 125.476 144.41 125.52C145.305 125.571 147.434 125.13 147.434 125.13C149.917 124.724 153.748 125.913 155.575 127.175L155.674 127.242C157.693 128.566 157.861 127.732 155.75 126.274L155.633 126.194C153.529 124.808 149.198 123.701 146.529 124.47L146.477 124.486L146.477 124.486C145.463 124.778 144.149 125.157 143.469 124.563C142.994 124.148 141.445 123.744 141.146 123.695C139.566 123.436 139.352 123.518 138.873 123.699C138.834 123.713 138.794 123.729 138.751 123.744L138.605 123.757C138.061 123.805 137.478 123.879 136.854 123.978C136.634 123.896 136.39 123.766 136.113 123.575L135.995 123.496C133.892 122.109 130.613 121.677 127.944 122.446L127.891 122.462Z" fill="#FFB61D"/>
<path fill-rule="evenodd" clip-rule="evenodd" d="M171.247 63.1045C177.163 63.1241 181.832 67.9524 181.433 73.6365C181.433 73.6365 174.534 102.508 178.031 112.771C179.384 116.741 198.915 129.095 198.089 130.364L195.333 136.717C194.354 138.221 164.376 118.931 164.376 118.931C161.5 116.734 160.966 73.0688 160.966 73.0688C160.909 67.5695 165.535 63.0852 171.247 63.1045Z" fill="white"/>
<path d="M202.299 131.511L198.776 138.489L198.706 138.676C198.413 139.398 197.292 139.841 197.148 139.877L197.127 139.877L195.047 138.692C194.808 138.5 194.678 137.419 194.93 136.414L194.989 136.203C194.989 136.203 196.638 130.63 198.004 129.222C198.801 128.401 203.402 129.222 202.299 131.511Z" fill="white"/>
<path fill-rule="evenodd" clip-rule="evenodd" d="M152.112 195.866H143.701C143.701 195.866 153.572 171.214 153.572 164.744C153.572 162.738 145.813 165.761 146.938 162.738C148.486 158.581 153.842 151.147 152.523 147.416C151.143 143.513 145.998 142.099 141.516 140.518C140.658 140.215 156.321 141.261 160.618 137.974C166.285 133.637 161.684 124.059 163.206 127.436C165.042 131.511 176.974 141.732 174.609 152.8C172.305 163.583 152.112 195.866 152.112 195.866Z" fill="white"/>
<path fill-rule="evenodd" clip-rule="evenodd" d="M149.196 200.62L148.451 200.382C148.367 200.355 148.357 200.239 148.436 200.198L149.15 199.825V198.945C149.15 198.86 149.249 198.814 149.314 198.869L149.915 199.377L150.895 198.88C150.983 198.835 151.076 198.933 151.027 199.019L150.471 199.995L151.555 201.084C151.627 201.157 151.556 201.278 151.457 201.251L149.96 200.835L149.382 201.814C149.33 201.902 149.196 201.865 149.196 201.764V201.375V200.62Z" fill="#FFB61D"/>
<path fill-rule="evenodd" clip-rule="evenodd" d="M127.875 146.213C127.509 146.578 127.148 146.947 126.787 147.316L126.786 147.316L126.786 147.316L126.786 147.317L126.786 147.317L126.786 147.317L126.786 147.317L126.786 147.317C126.103 148.015 125.419 148.714 124.707 149.384C123.373 150.638 122.027 151.886 120.612 153.052C118.857 154.5 117.058 155.902 115.218 157.249C113.136 158.773 111.005 160.235 108.863 161.68C108.793 161.728 108.722 161.776 108.651 161.825L108.523 161.912C107.431 162.657 106.339 163.402 104.936 163.632C104.536 163.698 104.161 163.891 103.783 164.086C103.483 164.24 103.181 164.396 102.864 164.489C100.675 165.127 98.4755 165.735 96.2618 166.286C94.9027 166.625 93.5151 166.866 92.1307 167.098C91.2691 167.243 86.3338 167.997 83.0507 168.456C79.7675 168.914 68.9092 168.914 66.1983 168.86C64.6771 168.829 63.1562 168.778 61.6357 168.723L61.5572 168.72C61.2473 168.709 60.9181 168.698 60.6489 168.581C59.1556 167.93 58.0001 168.639 56.8291 169.357L56.7449 169.409C55.2076 170.35 54.2667 171.768 53.337 173.219C52.8431 173.99 52.3198 174.744 51.7965 175.498C51.2333 176.309 50.6701 177.12 50.1436 177.953C49.4467 179.055 48.8251 180.203 48.2041 181.349C48.0925 181.555 47.9809 181.761 47.8688 181.967C47.048 183.475 45.8166 184.352 44.0498 184.676C43.1717 184.837 42.4195 184.586 41.6691 184.336L41.6688 184.336C41.3908 184.243 41.1131 184.151 40.8292 184.079C40.2736 183.939 39.8257 182.495 40.0238 181.923C40.6023 180.255 41.182 178.587 41.7617 176.918C42.9729 173.432 44.1842 169.947 45.3849 166.457C46.2233 164.021 47.0419 161.579 47.8604 159.136L47.8605 159.136L47.8611 159.134C48.0923 158.444 48.3235 157.754 48.5551 157.065C48.6654 156.736 48.7702 156.406 48.875 156.075C49.0487 155.528 49.2224 154.98 49.4213 154.441C49.4864 154.265 49.756 154.047 49.9393 154.04C51.2639 153.989 52.5358 154.301 53.7441 154.778C56.0286 155.68 57.7865 157.201 59.0769 159.226C59.419 159.763 60.0162 159.956 60.7695 159.828C61.1328 159.766 61.4995 159.72 61.866 159.673C62.4259 159.602 62.9854 159.531 63.532 159.406C64.7478 159.129 65.9785 159.119 67.2088 159.11C68.0009 159.104 68.7929 159.098 69.5807 159.02C70.1207 158.967 70.6636 158.936 71.2064 158.906L71.207 158.906L71.2076 158.906L71.2082 158.906L71.2088 158.906L71.2095 158.906L71.2101 158.906L71.2107 158.906C71.9373 158.865 72.6637 158.824 73.3825 158.729C74.6908 158.556 75.9926 158.338 77.2944 158.12C77.9113 158.016 78.5282 157.913 79.1458 157.814C79.6447 157.735 80.1444 157.66 80.6441 157.584L80.6444 157.584L80.6448 157.584L80.6452 157.584L80.6458 157.584L80.6463 157.584L80.6469 157.584L80.6475 157.584L80.6483 157.584L80.6491 157.584L80.6498 157.583L80.6506 157.583L80.6514 157.583L80.6522 157.583L80.653 157.583C81.617 157.438 82.5809 157.293 83.5386 157.116C84.7655 156.889 85.9829 156.613 87.1996 156.337L87.6399 156.237C88.9269 155.946 90.2116 155.645 91.4964 155.344C92.0355 155.218 92.5746 155.092 93.1139 154.966C93.1986 154.946 93.2829 154.925 93.3674 154.904C93.3382 154.889 93.3088 154.875 93.2794 154.86C93.2156 154.828 93.1518 154.797 93.0908 154.76C92.9039 154.65 92.7114 154.545 92.5189 154.44C92.0794 154.2 91.6398 153.961 91.2657 153.649C90.4246 152.947 90.7122 151.78 91.7812 151.47C92.5962 151.233 93.4361 150.995 94.2777 150.941C95.4113 150.868 96.4441 150.506 97.4781 150.143C97.8935 149.997 98.309 149.852 98.7314 149.724C99.728 149.425 100.326 148.86 100.827 147.997C101.068 147.581 101.421 147.229 101.775 146.874C102.025 146.625 102.276 146.375 102.488 146.101C103.59 144.684 104.662 143.244 105.705 141.787C105.927 141.477 106.105 141.138 106.283 140.799L106.283 140.799L106.283 140.799L106.283 140.799L106.284 140.798L106.284 140.798L106.284 140.798L106.284 140.798L106.284 140.798C106.42 140.539 106.556 140.28 106.712 140.034C107.078 139.455 107.451 138.869 107.903 138.353L107.962 138.285C108.999 137.102 110.039 135.916 111.168 134.815C111.782 134.215 112.461 133.676 113.14 133.137L113.14 133.137L113.141 133.137L113.141 133.137L113.141 133.136L113.141 133.136L113.142 133.136C113.462 132.882 113.782 132.627 114.096 132.367C114.254 132.235 114.407 132.092 114.54 131.937C114.769 131.67 114.863 131.449 114.518 131.134C114.47 131.091 114.423 131.048 114.376 131.005L114.25 130.892L114.25 130.891L114.25 130.891L114.247 130.888C113.345 130.072 112.435 129.249 111.942 128.121C111.914 128.056 111.885 127.991 111.857 127.926L111.786 127.766C111.39 126.868 110.991 125.961 110.766 125.02C110.463 123.754 110.585 122.465 110.978 121.189C111.527 119.404 112.676 118.051 114.233 117.08C115.193 116.481 116.204 115.958 117.214 115.434L117.215 115.434C117.964 115.045 118.713 114.657 119.442 114.238C120.006 113.914 120.488 113.442 120.959 112.982L120.959 112.982L121.093 112.851C123.211 110.79 124.687 108.296 126.157 105.811C126.313 105.547 126.469 105.283 126.626 105.019C128.047 102.634 129.323 100.165 130.594 97.7008C130.959 96.9912 131.273 96.2568 131.587 95.5222L131.587 95.5222L131.587 95.5221L131.587 95.522L131.587 95.5219L131.587 95.5218L131.587 95.5217L131.587 95.5214C131.865 94.8718 132.142 94.222 132.456 93.5893C132.704 93.0892 133.009 92.6161 133.315 92.1428C133.54 91.7949 133.765 91.4468 133.967 91.0876C134.184 90.7019 134.382 90.3055 134.58 89.9093C134.881 89.3091 135.181 88.7095 135.545 88.1484C135.806 87.7475 136.184 87.417 136.562 87.0869L136.562 87.0866C136.72 86.9485 136.878 86.8105 137.027 86.6674C137.213 86.4889 137.402 86.3137 137.592 86.1384C137.789 85.9555 137.987 85.7727 138.18 85.5864C138.522 85.2578 138.859 84.9248 139.186 84.5831C139.815 83.9263 140.448 83.2724 141.08 82.6184L141.081 82.6182C142.64 81.0056 144.2 79.3929 145.708 77.7367C147.475 75.7962 149.156 73.78 150.808 71.746C151.464 70.9373 152.056 70.0798 152.648 69.2223L152.648 69.2222C152.911 68.8404 153.175 68.4585 153.444 68.081C153.459 68.0596 153.472 68.0362 153.484 68.0129C153.502 67.9796 153.52 67.9465 153.545 67.9197C153.972 67.467 154.395 67.0101 154.818 66.5532L154.818 66.5531L154.818 66.553L154.818 66.5529L154.818 66.5528L154.818 66.5527L154.819 66.5521L154.819 66.552C155.812 65.4783 156.806 64.4045 157.857 63.386C159.416 61.8747 161.202 60.6215 163.141 59.5778C163.437 59.4187 163.722 59.238 164.007 59.0575C164.456 58.7732 164.903 58.4895 165.39 58.2915C165.504 58.2449 165.62 58.1971 165.736 58.1491L165.737 58.1488C166.666 57.7647 167.641 57.3619 168.6 57.343C170.625 57.3031 172.73 57.3252 174.429 58.7018C174.751 58.9627 174.837 58.9012 174.867 58.5523C174.896 58.2192 174.955 57.8761 175.014 57.5328C175.151 56.7333 175.288 55.9332 175.049 55.2566C174.905 54.8475 174.854 54.4346 174.804 54.0253C174.748 53.5624 174.692 53.104 174.501 52.6608C173.864 51.1793 173.295 49.67 172.726 48.1614L172.726 48.161C172.64 47.934 172.555 47.707 172.469 47.4802C172.291 47.0094 172.146 46.5148 172.08 46.0195C172.033 45.6655 172.017 45.3076 172.002 44.9497C171.985 44.5824 171.969 44.2151 171.919 43.8521C171.74 42.5609 172.206 41.4264 172.673 40.2874C172.758 40.0794 172.843 39.8713 172.925 39.6621C173.918 37.1135 175.778 35.1861 177.786 33.3761C179.514 31.8177 182.379 31.3274 184.695 30.9431C185.55 30.8012 191.555 30.6654 194.727 30.5937C195.761 30.5703 196.494 30.5537 196.648 30.546C197.274 30.5145 197.697 30.2346 198.121 29.9342C198.995 29.3139 199.22 28.352 199.441 27.4054C199.462 27.3121 199.484 27.2189 199.506 27.1262C199.512 27.1037 199.517 27.0817 199.522 27.0602V27.0602C199.579 26.812 199.619 26.638 200.007 26.6505C201.302 26.6924 201.968 27.5059 202.602 28.4355C203.316 29.4823 203.894 30.5738 204.093 31.8215C204.335 33.3407 204.205 34.7519 203.082 36.003C202.168 37.0206 201.105 37.7982 199.904 38.4509C199.745 38.5375 199.644 38.9962 199.732 39.1922C200.637 41.2004 200.705 43.3175 200.616 45.4429C200.595 45.9588 200.508 46.472 200.421 46.9853L200.421 46.9855C200.339 47.4718 200.256 47.9582 200.23 48.4472C200.153 49.8497 200.451 51.1985 201.036 52.5029C201.432 53.3877 201.154 54.2257 200.489 54.9212C200.375 55.0403 200.233 55.14 200.092 55.2389C199.894 55.378 199.698 55.5154 199.586 55.7028C199.333 56.1267 199.157 56.6368 199.116 57.123C199.085 57.4951 199.126 57.8721 199.168 58.2499C199.194 58.4846 199.22 58.7197 199.228 58.9542C199.261 59.8568 198.904 60.6287 198.423 61.3992C197.552 62.7934 196.402 63.8192 194.734 64.155C193.305 64.4428 191.82 64.4599 190.44 64.0073C188.873 63.4935 187.345 62.8359 185.871 62.1085C185.452 61.902 185.121 61.5309 184.789 61.16L184.789 61.1599L184.789 61.1598C184.641 60.9939 184.493 60.8281 184.337 60.677C184.106 60.4533 183.989 60.3884 183.683 60.701C182.586 61.8177 181.79 63.0863 181.146 64.4869C180.791 65.2599 181.021 65.8953 181.266 66.5721L181.295 66.6517L181.365 66.8447C181.705 67.7818 182.044 68.7142 182.018 69.7395C182.005 70.2476 182.015 70.7572 182.025 71.2666C182.041 72.0714 182.057 72.8756 181.982 73.6723C181.9 74.5244 181.702 75.3664 181.503 76.208L181.503 76.2083L181.502 76.21C181.422 76.5482 181.343 76.8862 181.27 77.2249C181.194 77.5851 181.118 77.9456 181.043 78.3062L181.043 78.3067C180.816 79.3972 180.588 80.4878 180.317 81.568C180.191 82.068 180.018 82.5567 179.845 83.0456L179.845 83.046L179.845 83.0465C179.704 83.4465 179.562 83.8466 179.446 84.2532C179.312 84.7246 179.176 85.1956 179.04 85.6667C178.511 87.4983 177.982 89.3306 177.554 91.1841C177.188 92.7712 176.976 94.404 176.853 96.0275C176.776 97.0423 176.788 98.063 176.799 99.0841V99.0843V99.0844V99.0846V99.0847V99.0848V99.085V99.0851C176.806 99.6499 176.812 100.215 176.804 100.779C176.797 101.205 176.774 101.631 176.751 102.058C176.722 102.599 176.693 103.141 176.698 103.683C176.699 103.899 176.701 104.115 176.702 104.331C176.712 105.762 176.722 107.195 176.853 108.617C176.983 110.035 177.263 111.448 177.586 112.839C177.852 113.982 178.666 114.866 179.475 115.694C179.896 116.125 180.362 116.515 180.829 116.904L180.829 116.905L180.83 116.905L180.83 116.905L180.83 116.905L180.83 116.905L180.83 116.905L180.83 116.905C181.156 117.177 181.483 117.45 181.794 117.736C182.007 117.933 182.199 118.152 182.391 118.371L182.391 118.371C182.629 118.644 182.867 118.915 183.145 119.143C184.053 119.886 184.976 120.611 185.899 121.336L185.901 121.338L185.902 121.339L185.904 121.34L185.904 121.34L185.904 121.34L185.904 121.34L185.904 121.34C186.603 121.889 187.302 122.438 187.994 122.995C188.616 123.495 189.229 124.006 189.841 124.517L189.842 124.518C190.462 125.034 191.081 125.551 191.71 126.056C192.57 126.747 193.442 127.429 194.353 128.055C194.781 128.349 195.23 128.617 195.679 128.884L195.679 128.884L195.679 128.884L195.679 128.884L195.679 128.884L195.679 128.884L195.679 128.884L195.679 128.884L195.68 128.885C196.144 129.161 196.608 129.438 197.05 129.745C197.581 130.113 197.992 129.906 198.401 129.699L198.401 129.699C198.542 129.628 198.683 129.558 198.828 129.51C200.008 129.127 200.941 129.272 201.383 130.363C201.472 130.582 201.607 130.778 201.743 130.976C201.991 131.336 202.241 131.7 202.22 132.207C202.213 132.367 202.57 132.556 202.875 132.718C202.948 132.757 203.018 132.794 203.08 132.829C203.978 133.339 204.888 133.832 205.797 134.323C205.991 134.428 206.192 134.523 206.393 134.619C206.779 134.803 207.165 134.987 207.5 135.234C207.842 135.486 208.152 135.777 208.462 136.069L208.462 136.069L208.462 136.069L208.462 136.069L208.462 136.069L208.462 136.069L208.462 136.07L208.462 136.07L208.463 136.07C208.774 136.362 209.085 136.655 209.427 136.907C210.133 137.427 210.533 138.143 210.931 138.854C211.077 139.115 211.223 139.376 211.383 139.626C211.826 140.316 212.082 141.164 212.229 141.974C212.428 143.066 212.508 144.189 212.504 145.298C212.502 145.761 212.21 146.259 211.941 146.677C211.652 147.127 211.219 147.191 210.801 146.756C210.767 146.72 210.719 146.697 210.671 146.674C210.648 146.663 210.626 146.652 210.605 146.64C210.602 146.667 210.599 146.694 210.596 146.721L210.596 146.723C210.593 146.752 210.59 146.781 210.586 146.81L210.582 146.846C210.58 146.863 210.577 146.88 210.575 146.898C210.548 147.084 210.527 147.272 210.505 147.46C210.453 147.922 210.401 148.385 210.266 148.824C210.175 149.119 209.783 149.507 209.51 149.52C209.301 149.53 209.081 149.342 208.863 149.157L208.863 149.157C208.776 149.082 208.688 149.008 208.603 148.947C208.519 148.888 208.447 148.81 208.377 148.734L208.355 148.71C208.337 148.69 208.319 148.67 208.303 148.65C208.279 148.62 208.256 148.589 208.233 148.559L208.202 148.519L208.18 148.49L208.164 148.525L208.141 148.571C208.129 148.596 208.117 148.621 208.105 148.646C208.097 148.662 208.088 148.679 208.08 148.696C208.072 148.712 208.063 148.729 208.054 148.746C208.04 148.773 208.026 148.801 208.013 148.829C208.006 148.844 207.999 148.859 207.992 148.875C207.985 148.891 207.977 148.908 207.97 148.925L207.946 148.979C207.869 149.158 207.792 149.337 207.659 149.458C207.145 149.929 206.453 149.746 206.241 149.085C206.131 148.741 206.039 148.391 205.948 148.041C205.821 147.557 205.694 147.073 205.518 146.606C205.446 146.413 205.386 146.217 205.326 146.02L205.326 146.02L205.326 146.02C205.151 145.445 204.975 144.869 204.483 144.384C204.128 144.036 203.911 143.554 203.696 143.076C203.612 142.889 203.528 142.703 203.436 142.525C202.884 141.455 201.971 140.755 200.916 140.19C200.629 140.037 200.343 139.868 200.094 139.664C199.54 139.212 199.157 139.458 198.821 139.918C198.265 140.679 197.343 140.959 196.485 140.521C195.172 139.85 194.099 138.968 193.742 137.458C193.676 137.179 193.247 136.932 192.932 136.761C191.987 136.248 191.035 135.745 190.084 135.241L190.084 135.241L190.084 135.241L190.083 135.241L190.083 135.241L190.083 135.241L190.083 135.241L190.083 135.241L190.082 135.24C188.504 134.405 186.926 133.57 185.374 132.692C183.439 131.596 181.553 130.417 179.669 129.238L179.667 129.238L179.099 128.883C176.126 127.025 173.163 125.151 170.201 123.277L168.468 122.181C167.818 121.77 167.173 121.353 166.527 120.935C166.077 120.644 165.627 120.353 165.176 120.065C164.995 119.949 164.805 119.845 164.609 119.756C164.025 119.491 163.853 119.586 163.807 120.189C163.805 120.211 163.807 120.234 163.806 120.256L163.769 122.788C163.735 125.118 163.701 127.449 163.665 129.779C163.654 130.523 164.059 131.093 164.458 131.655C164.539 131.769 164.62 131.882 164.696 131.997C166.104 134.094 167.541 136.173 168.992 138.243C169.39 138.811 169.803 139.37 170.215 139.928C170.838 140.771 171.46 141.614 172.032 142.488C172.322 142.931 172.496 143.445 172.669 143.959C172.745 144.184 172.821 144.41 172.907 144.63C172.946 144.73 172.988 144.829 173.029 144.929C173.14 145.198 173.252 145.466 173.322 145.745C173.887 147.995 173.632 150.227 173.074 152.435C173.036 152.583 172.999 152.731 172.962 152.879C172.615 154.258 172.266 155.644 171.76 156.97C171.354 158.033 170.848 159.06 170.341 160.088L170.341 160.088L170.34 160.089C170.096 160.584 169.852 161.079 169.619 161.578C169.212 162.449 168.819 163.327 168.431 164.206C167.772 165.697 167.116 167.189 166.468 168.685C166.233 169.227 166.006 169.774 165.778 170.32C165.323 171.413 164.868 172.507 164.35 173.572C163.605 175.106 162.777 176.604 161.949 178.101L161.949 178.101C161.83 178.316 161.712 178.531 161.593 178.745C161.076 179.683 160.546 180.614 160.017 181.544C159.504 182.445 158.991 183.346 158.489 184.253C158.032 185.081 157.587 185.914 157.143 186.747C156.667 187.638 156.191 188.529 155.701 189.413C155.004 190.667 154.274 191.905 153.522 193.13C152.897 194.149 153.078 194.624 153.802 195.563C154.586 196.581 155.806 196.921 157.015 197.187C160.331 197.915 163.654 198.614 166.977 199.313L167.148 199.349C167.483 199.419 167.822 199.472 168.161 199.524C168.542 199.583 168.923 199.642 169.298 199.727C171.17 200.148 172.11 201.473 172.61 203.117C172.931 204.169 173.025 205.298 172.155 206.171C171.826 206.502 171.225 206.747 170.748 206.748C164.595 206.768 158.443 206.772 152.29 206.775H152.274C148.397 206.777 144.52 206.779 140.643 206.785C140.191 206.786 140.158 206.655 140.124 206.273C140.089 205.884 140.017 205.496 139.945 205.109L139.945 205.108C139.84 204.539 139.735 203.971 139.748 203.405C139.81 200.681 140.802 198.243 142.538 196.101C142.663 195.947 142.866 195.844 143.066 195.743C143.289 195.631 143.509 195.52 143.614 195.342C144.12 194.481 144.554 193.565 144.887 192.629C145.419 191.128 145.949 189.614 146.29 188.067C146.447 187.356 146.674 186.667 146.901 185.977C147.183 185.12 147.465 184.262 147.615 183.36C147.772 182.407 148.184 181.49 148.593 180.578L148.593 180.577L148.594 180.576C148.72 180.294 148.847 180.012 148.965 179.729C149.371 178.764 149.789 177.804 150.208 176.844C150.859 175.352 151.509 173.861 152.11 172.351C152.538 171.274 152.892 170.171 153.247 169.068L153.247 169.067C153.45 168.437 153.652 167.808 153.868 167.183C154.326 165.861 154.79 164.539 155.314 163.241C155.432 162.949 155.366 162.944 155.201 162.931H155.201H155.2H155.2C155.17 162.929 155.136 162.926 155.099 162.922C152.888 162.639 150.71 162.664 148.648 163.611C148.196 163.818 147.878 163.775 147.579 163.414C147.273 163.045 147.432 162.776 147.703 162.437C149.314 160.418 150.315 158.119 151.083 155.693C151.163 155.439 151.246 155.185 151.329 154.932C151.828 153.403 152.325 151.879 152.311 150.254C152.301 149.024 151.986 147.92 151.106 146.89C150.913 146.664 150.735 146.427 150.559 146.191C150.031 145.487 149.51 144.792 148.605 144.429C148.147 144.245 147.694 144.046 147.242 143.848L147.242 143.848C146.771 143.642 146.301 143.435 145.823 143.245C145.461 143.1 145.098 142.955 144.736 142.809L144.736 142.809L144.735 142.809L144.735 142.809L144.735 142.809L144.735 142.809L144.735 142.808C143.306 142.234 141.877 141.658 140.419 141.161C139.534 140.86 138.617 140.644 137.7 140.428L137.7 140.428L137.7 140.427L137.7 140.427L137.699 140.427C137.283 140.329 136.866 140.231 136.453 140.125C136.416 140.115 136.378 140.105 136.341 140.094L136.292 140.079L136.211 140.055L136.211 140.055L136.211 140.055C136.147 140.035 136.083 140.015 136.018 139.998C135.076 139.739 134.253 139.784 133.613 140.658C133.332 141.042 132.947 141.355 132.543 141.682C132.462 141.747 132.381 141.813 132.3 141.88C130.778 143.324 129.324 144.766 127.875 146.213ZM162.592 120.742L162.592 120.742C162.673 120.351 162.754 119.961 162.799 119.566L162.811 119.456C162.906 118.61 163.002 117.752 162.939 116.911C162.907 116.475 162.786 116.047 162.665 115.617C162.568 115.269 162.469 114.921 162.418 114.568C162.147 112.71 161.904 110.847 161.716 108.98C161.553 107.357 161.444 105.729 161.335 104.101L161.335 104.101L161.335 104.101L161.335 104.1L161.335 104.1L161.335 104.1L161.335 104.099L161.335 104.099L161.306 103.665L161.289 103.415C161.18 101.789 161.078 100.163 161.012 98.5353C160.948 96.9749 160.917 95.4134 160.885 93.852L160.872 93.1953C160.87 93.097 160.905 92.9986 160.94 92.8996L160.94 92.8995C160.962 92.8364 160.985 92.7729 160.998 92.709C161.013 92.6369 161.031 92.5643 161.049 92.4915C161.099 92.2905 161.149 92.0882 161.13 91.8929C161.11 91.6779 161.06 91.4637 161.01 91.2502L161.01 91.2501C160.942 90.9605 160.874 90.672 160.881 90.3841C160.931 88.4767 161.021 86.5702 161.11 84.6639V84.6638V84.6637V84.6636V84.6635V84.6634V84.6633V84.6632L161.15 83.8182C161.169 83.4085 161.224 82.9986 161.289 82.5928C161.472 81.4465 161.663 80.3013 161.853 79.1562L161.987 78.3528C162.002 78.2596 162.023 78.1673 162.044 78.0749L162.054 78.0278L162.062 77.9922L162.072 77.9463C162.076 77.9811 162.081 78.0158 162.086 78.0506L162.092 78.0894C162.107 78.1919 162.122 78.2943 162.124 78.397C162.168 80.5287 162.209 82.6605 162.25 84.7922V84.7925V84.7929V84.7933V84.7936V84.794V84.7941L162.25 84.8126L162.266 85.6256C162.28 86.3449 162.294 87.0642 162.308 87.7835C162.343 89.4962 162.377 91.2089 162.405 92.9217C162.423 94.0558 162.438 95.1899 162.452 96.324C162.479 98.3865 162.505 100.449 162.556 102.511C162.593 104.049 162.695 105.587 162.837 107.12C162.941 108.244 163.093 109.365 163.245 110.485L163.245 110.487L163.245 110.488L163.245 110.489C163.293 110.843 163.341 111.197 163.388 111.551C163.453 112.048 163.524 112.544 163.595 113.04C163.719 113.908 163.844 114.775 163.937 115.645C164.055 116.751 164.608 117.647 165.404 118.356C165.985 118.874 166.64 119.314 167.295 119.755C167.554 119.929 167.813 120.103 168.067 120.282C168.597 120.655 169.126 121.032 169.654 121.409L169.655 121.409C170.981 122.354 172.306 123.3 173.669 124.193C174.887 124.991 176.14 125.739 177.393 126.487L177.393 126.487L177.394 126.488L177.394 126.488L177.394 126.488L177.395 126.488L177.395 126.488C178.001 126.85 178.607 127.212 179.21 127.58C179.787 127.932 180.363 128.288 180.938 128.644L180.941 128.646L180.943 128.647L180.944 128.648C181.969 129.282 182.995 129.916 184.032 130.531L184.228 130.647L184.23 130.648C186.132 131.775 188.035 132.903 189.983 133.954C190.909 134.454 191.89 134.86 192.87 135.265C193.122 135.369 193.373 135.472 193.623 135.578C193.768 135.639 194.103 135.569 194.172 135.457C194.336 135.193 194.442 134.895 194.547 134.599L194.547 134.599C194.568 134.539 194.589 134.48 194.61 134.422C195.02 133.298 195.538 132.248 196.422 131.373C197.089 130.713 196.995 130.514 196.068 130.139C196.017 130.118 195.965 130.097 195.913 130.076C195.525 129.921 195.135 129.764 194.783 129.551C194.13 129.154 193.495 128.724 192.884 128.268C192.342 127.863 191.799 127.459 191.256 127.056L191.255 127.056C189.423 125.695 187.591 124.335 185.81 122.915C184.151 121.594 182.575 120.17 181.031 118.723C180.816 118.521 180.599 118.322 180.382 118.122C179.068 116.914 177.749 115.701 176.916 114.098C176.802 113.879 176.67 113.667 176.538 113.456C176.155 112.841 175.771 112.227 175.828 111.421C175.863 110.927 175.794 110.426 175.725 109.926C175.701 109.745 175.676 109.564 175.656 109.384C175.602 108.897 175.538 108.409 175.474 107.922V107.922V107.922V107.922V107.922V107.922V107.921V107.921C175.344 106.926 175.213 105.931 175.169 104.932C175.11 103.583 175.123 102.231 175.137 100.879C175.143 100.297 175.148 99.7145 175.148 99.1326C175.148 98.996 175.144 98.8589 175.14 98.7218C175.131 98.4226 175.122 98.1234 175.156 97.8288C175.322 96.3948 175.492 94.9599 175.716 93.5336C175.76 93.2548 175.803 92.9757 175.846 92.6964C176.055 91.3304 176.264 89.9615 176.61 88.6271C176.911 87.4637 177.282 86.3171 177.652 85.1703L177.652 85.1697C177.945 84.2623 178.238 83.3548 178.497 82.4387C178.684 81.7796 178.889 81.1252 179.094 80.4707C179.608 78.8325 180.122 77.1939 180.341 75.4804C180.388 75.1069 180.486 74.7349 180.584 74.3641C180.729 73.8187 180.872 73.2762 180.852 72.7361C180.78 70.7849 180.215 68.9047 179.646 67.0277C178.796 64.2239 177.322 61.8854 174.772 60.2209C173.301 59.2606 171.759 58.5574 169.934 58.7833C169.272 58.8653 168.616 58.9967 167.961 59.1281C167.646 59.1913 167.33 59.2545 167.014 59.3122C165.221 59.6396 163.633 60.4012 162.204 61.4718C161.367 62.0984 160.55 62.7522 159.755 63.4278C158.961 64.1035 158.167 64.7868 157.443 65.5304C156.77 66.2217 156.143 66.9561 155.518 67.6898L155.518 67.6899L155.518 67.6899L155.518 67.69L155.517 67.6901L155.517 67.6902L155.517 67.6902L155.517 67.6904C155.381 67.8502 155.245 68.0099 155.108 68.1691C154.032 69.4227 152.96 70.679 151.907 71.9507C151.446 72.5078 150.995 73.0723 150.543 73.6367C149.861 74.4896 149.178 75.3425 148.464 76.1698C147.168 77.6701 145.823 79.1324 144.458 80.5752C142.582 82.5578 140.674 84.5116 138.766 86.4649C138.603 86.6314 138.416 86.7767 138.229 86.9217C138.005 87.0956 137.781 87.2692 137.601 87.4785C136.219 89.0829 134.918 90.7564 133.994 92.6464C133.143 94.3892 132.322 96.146 131.501 97.9028C130.764 99.4817 130.027 101.061 129.266 102.629C128.034 105.172 126.679 107.65 125.042 109.988L124.922 110.16L124.922 110.16C124.045 111.414 123.168 112.669 121.932 113.583C120.322 114.774 118.645 115.883 116.97 116.991L116.969 116.991C116.532 117.281 116.094 117.57 115.658 117.861C114.244 118.803 113.125 119.993 112.575 121.559C111.9 123.483 112.245 125.393 113.188 127.146C114.349 129.304 116.186 130.953 118.062 132.525C120.143 134.269 122.562 135.519 125.172 136.323C128.526 137.357 131.9 138.36 135.447 138.653C136.375 138.729 137.299 138.846 138.222 138.963L138.223 138.963L138.223 138.963L138.223 138.964L138.223 138.964L138.223 138.964L138.223 138.964L138.224 138.964L138.224 138.964C139.255 139.094 140.285 139.225 141.32 139.299C143.609 139.463 145.908 139.555 148.203 139.567C149.236 139.572 150.268 139.503 151.301 139.434L151.301 139.434C151.957 139.39 152.612 139.347 153.268 139.322C155.051 139.255 156.74 138.804 158.403 138.235C159.521 137.852 160.555 137.327 160.964 136.165C161.201 135.489 161.319 134.766 161.417 134.054L161.442 133.871C161.649 132.368 161.855 130.864 161.973 129.354C162.081 127.963 162.137 126.569 162.196 125.122C162.218 124.578 162.24 124.026 162.266 123.464C162.28 123.283 162.292 123.102 162.303 122.921C162.329 122.513 162.355 122.105 162.414 121.701C162.46 121.38 162.526 121.061 162.592 120.743L162.592 120.742ZM103.114 162.654C103.188 162.719 103.359 162.761 103.443 162.724C103.825 162.557 104.213 162.399 104.602 162.241L104.603 162.241L104.604 162.24C105.554 161.855 106.505 161.469 107.361 160.941C108.888 160 110.379 159.003 111.87 158.006L111.871 158.005L111.871 158.005C113.041 157.222 114.211 156.439 115.399 155.683C117.991 154.035 120.263 152.027 122.535 150.019C122.978 149.628 123.42 149.237 123.865 148.848C124.556 148.245 125.206 147.598 125.856 146.951C125.996 146.811 126.137 146.671 126.278 146.532C127.051 145.767 127.816 144.995 128.582 144.223C128.914 143.889 129.247 143.554 129.579 143.22C129.818 142.98 130.057 142.741 130.297 142.502C131.165 141.633 132.034 140.764 132.876 139.872C132.975 139.767 132.851 139.242 132.737 139.209C132.26 139.07 131.774 138.956 131.288 138.842C130.672 138.698 130.056 138.554 129.458 138.359L129.154 138.259L129.153 138.259C126.68 137.449 124.204 136.637 121.784 135.696C119.567 134.833 117.513 133.649 115.678 132.146C115.649 132.123 115.518 132.153 115.503 132.187C114.973 133.419 113.987 134.258 112.996 135.101L112.996 135.102C112.77 135.294 112.544 135.486 112.324 135.683C111.284 136.611 110.253 137.562 109.342 138.604C108.753 139.277 108.252 140.022 107.752 140.767L107.752 140.767L107.752 140.767L107.751 140.768L107.751 140.768L107.751 140.768L107.751 140.768L107.751 140.769C107.567 141.042 107.383 141.315 107.195 141.584C106.983 141.89 106.758 142.19 106.533 142.49C105.982 143.227 105.43 143.964 105.052 144.776C104.209 146.588 102.902 148.031 101.538 149.437C100.197 150.819 98.3695 151.334 96.565 151.842L96.3827 151.893L96.2721 151.924C96.2021 151.944 96.1322 151.964 96.0624 151.984C95.3994 152.174 94.7173 152.302 94.0348 152.429L94.0348 152.429C93.6607 152.499 93.2865 152.569 92.9153 152.649C92.8211 152.67 92.7364 152.731 92.6516 152.792C92.6124 152.82 92.5732 152.848 92.533 152.873C92.5765 152.923 92.6212 152.987 92.6658 153.052C92.762 153.191 92.8582 153.331 92.9437 153.325C93.8148 153.265 94.4656 153.696 95.1051 154.119L95.1054 154.119C95.2759 154.232 95.4456 154.345 95.6185 154.447C96.4618 154.946 97.2899 155.484 97.7812 156.414C98.0999 157.017 98.5285 157.568 98.9559 158.117C99.087 158.286 99.2179 158.454 99.3456 158.624C99.8707 159.322 100.42 160.003 101.018 160.745L101.018 160.745L101.145 160.902C101.294 161.036 101.443 161.169 101.591 161.303C102.096 161.756 102.601 162.209 103.114 162.654ZM147.796 142.438L147.796 142.438L147.797 142.438C148.916 142.848 150.036 143.258 150.891 144.166C151.15 144.442 151.449 144.682 151.749 144.923L151.749 144.923C151.943 145.08 152.138 145.236 152.322 145.403C152.93 145.953 153.141 146.689 153.35 147.423C153.381 147.529 153.411 147.636 153.443 147.741C154.018 149.666 153.888 151.658 153.383 153.504L153.285 153.862C152.613 156.328 151.93 158.831 150.502 161.044C150.336 161.301 150.25 161.439 150.705 161.451C151.928 161.485 153.151 161.529 154.374 161.573L154.38 161.573C155.729 161.622 157.079 161.67 158.429 161.705C159.275 161.727 160.123 161.722 160.97 161.717C161.554 161.713 162.138 161.709 162.722 161.715C164.251 161.728 165.737 161.516 167.128 160.892C167.184 160.867 167.241 160.842 167.299 160.816C167.774 160.607 168.313 160.371 168.527 159.995C169.074 159.039 169.462 157.986 169.815 156.941C170.331 155.412 170.843 153.874 171.203 152.306C171.51 150.968 171.666 149.587 171.762 148.217C171.791 147.805 171.718 147.388 171.645 146.969C171.587 146.636 171.529 146.303 171.521 145.97C171.493 144.666 170.85 143.604 170.208 142.541L170.095 142.355C169.945 142.106 169.754 141.882 169.562 141.657C169.412 141.482 169.262 141.306 169.131 141.118C168.1 139.635 167.073 138.148 166.046 136.662C165.32 135.611 164.594 134.56 163.866 133.51C163.796 133.409 163.706 133.322 163.616 133.234C163.574 133.193 163.532 133.152 163.493 133.11C163.452 133.17 163.405 133.227 163.357 133.285C163.254 133.412 163.15 133.539 163.12 133.68C163.049 134.008 163.002 134.34 162.956 134.672L162.956 134.672L162.956 134.673L162.956 134.673L162.956 134.673L162.956 134.673L162.956 134.673L162.956 134.673L162.956 134.673L162.956 134.674L162.956 134.674L162.956 134.674L162.956 134.674L162.956 134.674C162.916 134.957 162.877 135.24 162.822 135.521C162.506 137.147 161.696 138.397 160.103 139.201C157.906 140.31 155.545 140.784 153.132 141.05C151.741 141.204 150.325 141.229 148.924 141.185C148.081 141.159 147.242 141.059 146.402 140.959C145.947 140.904 145.492 140.85 145.037 140.808C144.914 140.796 144.787 140.832 144.659 140.867C144.6 140.884 144.541 140.9 144.483 140.912L144.524 140.945L144.589 140.995L144.59 140.996C144.68 141.067 144.77 141.138 144.863 141.203C144.883 141.217 144.905 141.227 144.933 141.239C144.976 141.259 145.033 141.285 145.113 141.34C145.22 141.382 145.328 141.423 145.436 141.463C145.671 141.549 145.906 141.636 146.127 141.749C146.66 142.022 147.228 142.23 147.796 142.438L147.796 142.438L147.796 142.438L147.796 142.438L147.796 142.438L147.796 142.438L147.796 142.438ZM175.168 38.1759C174.28 39.4251 173.744 40.8496 173.473 42.3472C173.198 43.8689 173.16 45.4078 173.623 46.8932C173.897 47.7702 174.207 48.637 174.517 49.5036L174.517 49.5038C174.875 50.5069 175.234 51.5098 175.536 52.5284C175.723 53.1574 176.146 53.4518 176.613 53.6102C178.819 54.3575 181.215 53.4487 182.584 51.498C182.956 50.9685 182.742 50.7511 182.364 50.381C181.853 49.8799 181.405 49.2995 181.024 48.6978C180.456 47.7996 180.696 46.8839 181.348 46.1585C181.999 45.4326 182.977 45.2713 183.887 45.5755C184.927 45.923 185.676 46.688 186.209 47.6248C186.234 47.6687 186.252 47.7163 186.27 47.764C186.279 47.7861 186.287 47.8083 186.296 47.8301C186.302 47.8181 186.308 47.8063 186.314 47.7944C186.327 47.769 186.341 47.7436 186.35 47.7169C186.428 47.487 186.504 47.2557 186.579 47.0244L186.58 47.0228L186.58 47.0215L186.58 47.0201C186.979 45.7986 187.379 44.5739 188.184 43.5318C188.812 42.7194 189.488 41.9093 190.285 41.2609C190.881 40.7761 191.617 40.4388 192.339 40.1079C192.445 40.0595 192.55 40.0113 192.654 39.9627C192.901 39.8482 193.147 39.7314 193.393 39.6144C194.427 39.1232 195.465 38.6302 196.554 38.302C196.736 38.2471 196.828 38.22 196.871 38.2073L196.872 38.2071L196.872 38.2071L196.897 38.1996C196.902 38.1981 196.905 38.1974 196.904 38.1973C196.904 38.1972 196.902 38.1977 196.898 38.1985C196.841 38.2107 196.473 38.2898 200.071 37.0412C205.096 35.298 202.511 29.8065 201.023 28.5984C200.912 28.5084 200.737 28.4118 200.617 28.4366C200.51 28.4588 200.374 28.6383 200.363 28.7582C200.252 29.9586 198.423 31.8215 194.078 31.5323C191.105 31.3343 191.04 31.3457 190.898 31.3708C190.833 31.3824 190.751 31.397 190.359 31.3952C189.422 31.3911 186.18 31.6816 185.524 31.8599C185.286 31.9247 184.974 31.9873 184.608 32.061C182.861 32.4121 179.865 33.0144 177.599 35.298C177.348 35.5914 177.09 35.8802 176.832 36.169C176.25 36.8201 175.668 37.4712 175.168 38.1759ZM187.049 50.095C187.049 50.7021 186.923 51.2995 186.796 51.8968L186.796 51.8971L186.796 51.8974L186.796 51.8977L186.796 51.8981L186.796 51.8984L186.796 51.8987L186.796 51.899C186.735 52.1854 186.675 52.4718 186.628 52.7593C186.621 52.8048 186.596 52.8477 186.571 52.8906C186.56 52.9105 186.548 52.9304 186.539 52.9506L186.533 52.928L186.523 52.8924L186.522 52.8919C186.511 52.8506 186.499 52.8093 186.491 52.7674C186.434 52.4737 186.38 52.179 186.327 51.8844L186.327 51.8843L186.327 51.8841L186.327 51.884L186.326 51.8838L186.326 51.8836L186.326 51.8835L186.326 51.8833C186.205 51.2161 186.084 50.5489 185.918 49.892C185.72 49.1046 185.499 48.302 185.132 47.5797C184.707 46.7445 182.93 46.3504 182.056 46.7885C181.557 47.0384 181.318 47.6372 181.642 48.0723C181.948 48.4838 182.323 48.9045 182.769 49.1495C183.502 49.5517 183.74 50.2223 183.8 50.8798C183.912 52.1161 182.563 53.8545 181.253 54.1671C180.061 54.4514 178.847 54.6491 177.634 54.8466C177.347 54.8932 177.061 54.9399 176.775 54.9876C176.745 54.9926 176.716 54.9972 176.687 55.0018C176.305 55.0625 176.001 55.1107 176.122 55.6489C176.451 57.1099 176.558 58.5817 176.283 60.0678C176.266 60.158 176.437 60.2996 176.545 60.3889C176.684 60.503 176.83 60.6105 176.976 60.7178L176.976 60.718L176.976 60.718C177.244 60.9155 177.512 61.1128 177.734 61.3505C178.098 61.741 178.437 62.1527 178.777 62.5645L178.777 62.5646L178.777 62.5648L178.777 62.5651L178.778 62.5662L178.779 62.5668L178.779 62.5672L178.779 62.5675L178.78 62.5678L178.78 62.568L178.78 62.5683C179.012 62.8502 179.245 63.1321 179.485 63.4073C179.548 63.4794 179.802 63.5095 179.863 63.4537C180.172 63.1692 180.474 62.8766 180.775 62.584L180.775 62.5837C181.128 62.2409 181.481 61.8982 181.847 61.5686C182.732 60.7719 183.638 59.9973 184.555 59.2362C184.674 59.1376 184.838 59.0893 185.002 59.041C185.077 59.0187 185.153 58.9964 185.224 58.9692C185.194 59.0351 185.165 59.1014 185.136 59.1677C185.057 59.3489 184.977 59.5301 184.883 59.7039C184.867 59.7343 184.819 59.7466 184.77 59.7595C184.727 59.7706 184.683 59.7821 184.654 59.806L184.633 59.8239L184.609 59.8434C184.432 59.9884 184.302 60.095 184.695 60.2749C185.11 60.4652 185.494 60.7173 185.879 60.9695L185.879 60.9696C186.04 61.0749 186.2 61.1802 186.363 61.281C188.872 62.8343 191.575 63.5637 194.568 63.0917C196.26 62.8247 197.422 61.9585 197.938 60.3561C198.432 58.8212 198.227 58.3747 196.702 57.7578L196.615 57.7227L196.546 57.6952C195.742 57.3735 194.944 57.054 194.733 56.1059C194.646 55.7138 195.266 55.3588 195.549 55.644C195.557 55.652 195.562 55.6601 195.564 55.6682C195.726 56.3831 196.29 56.6301 196.885 56.8877C197.979 57.3614 198.113 57.2951 198.113 56.2149C198.113 54.8006 198.113 54.8006 199.402 54.3599C200.149 54.1047 200.27 53.8552 199.93 53.1571C199.417 52.1031 199.083 51.0292 199.225 49.8373C199.399 48.3685 199.545 46.895 199.641 45.4197C199.703 44.4717 199.762 43.5016 199.621 42.5697C199.531 41.9729 199.309 41.3944 199.088 40.8161L199.087 40.8154L199.087 40.8147C198.992 40.5664 198.897 40.3182 198.812 40.0685C198.613 39.4808 198.133 39.2446 197.506 39.462C197.115 39.5978 196.721 39.7287 196.327 39.8596L196.327 39.8597C195.229 40.2243 194.132 40.5891 193.086 41.0595C191.985 41.5547 190.87 42.1689 190.013 42.9782C189.244 43.7054 187.049 47.3684 187.049 50.095ZM96.6065 164.546C97.0705 164.447 97.5348 164.348 97.999 164.249C99.0098 164.034 100.021 163.818 101.029 163.594C101.174 163.562 101.31 163.49 101.446 163.418C101.482 163.399 101.518 163.38 101.554 163.361C101.568 163.354 101.581 163.347 101.595 163.341C101.608 163.334 101.621 163.328 101.635 163.322C101.604 163.305 101.574 163.288 101.543 163.271L101.472 163.233C101.346 163.165 101.219 163.096 101.103 163.015C100.976 162.924 100.867 162.806 100.761 162.69L100.761 162.69L100.755 162.684C100.453 162.355 100.147 162.029 99.8407 161.703L99.8403 161.703L99.8395 161.702C99.0923 160.907 98.345 160.112 97.6625 159.269C96.9876 158.435 96.451 157.489 95.9217 156.557L95.9086 156.534C95.6478 156.074 95.3517 155.88 94.8501 156.048C92.7176 156.765 90.5099 157.156 88.3023 157.547L88.3021 157.547L88.3019 157.547L88.3017 157.547L88.3015 157.547L88.3012 157.547L88.301 157.547L88.3008 157.547C87.1489 157.751 85.997 157.955 84.8558 158.206C82.9854 158.616 73.5697 160.173 72.7497 160.23C72.3505 160.258 71.9512 160.297 71.5521 160.336C70.776 160.411 70.0003 160.487 69.2252 160.479C67.2447 160.458 65.3034 160.663 63.3636 161.025C62.7528 161.139 62.1331 161.211 61.5136 161.283L61.5133 161.284L61.513 161.284L61.5127 161.284L61.5124 161.284L61.5121 161.284L61.5118 161.284L61.5115 161.284L61.511 161.284C60.803 161.366 60.0953 161.449 59.4012 161.594C57.1655 162.06 56.4165 163.896 56.9925 165.69C57.1031 166.035 57.4982 166.423 57.8528 166.544C59.4702 167.094 61.1632 167.237 62.8745 167.25C63.7559 167.257 64.6371 167.296 65.5183 167.336L65.5268 167.336H65.527H65.5272H65.5274C65.8606 167.351 66.1938 167.366 66.527 167.379C67.7899 167.428 69.0527 167.479 70.3156 167.529C71.3011 167.569 72.2866 167.608 73.2721 167.647C73.342 167.65 73.412 167.649 73.482 167.648H73.4829C73.5527 167.647 73.6225 167.646 73.6921 167.649C74.0375 167.663 74.3834 167.685 74.7293 167.708C75.486 167.757 76.2427 167.807 76.9933 167.762C78.1698 167.692 79.3422 167.559 80.5146 167.425L80.5151 167.425L80.5156 167.425L80.5161 167.425L80.5166 167.425L80.5171 167.425L80.5176 167.425L80.5182 167.425L80.5216 167.424C81.0654 167.362 81.6093 167.3 82.1536 167.244C82.4869 167.21 82.8212 167.183 83.1554 167.155L83.1558 167.155L83.1562 167.155L83.1566 167.155L83.157 167.155L83.1574 167.155L83.1578 167.154L83.1583 167.154L83.1593 167.154L83.1596 167.154L83.1599 167.154L83.1602 167.154L83.1605 167.154L83.1607 167.154L83.161 167.154C83.7682 167.104 84.3753 167.053 84.9765 166.965L85.2796 166.921L85.2801 166.921C86.8184 166.696 88.3596 166.471 89.8773 166.149C91.0556 165.899 92.2258 165.613 93.4214 165.321L93.4229 165.32L93.4255 165.32L93.4284 165.319L93.4294 165.319L93.4304 165.319L93.4313 165.318L93.4323 165.318L93.4332 165.318C94.3054 165.105 95.1912 164.888 96.1037 164.68C96.1317 164.672 96.1598 164.665 96.1878 164.657L96.2625 164.636C96.3766 164.603 96.4907 164.571 96.6065 164.546ZM149.964 195.742C150.688 194.741 151.374 193.712 152.038 192.673C152.642 191.729 153.207 190.76 153.772 189.793C154.277 188.927 154.801 188.071 155.326 187.216L155.326 187.215C156.544 185.229 157.761 183.243 158.739 181.124C159.302 179.904 159.954 178.722 160.606 177.54L160.606 177.54C160.917 176.976 161.228 176.412 161.529 175.844C161.671 175.577 161.815 175.312 161.959 175.046L161.96 175.045L161.96 175.045L161.96 175.045L161.96 175.044L161.96 175.044L161.96 175.044L161.961 175.043C162.357 174.313 162.754 173.583 163.094 172.829C163.352 172.259 163.578 171.674 163.803 171.089C164.15 170.19 164.497 169.293 164.957 168.452C165.697 167.101 166.188 165.675 166.679 164.247L166.679 164.247L166.679 164.246C166.838 163.783 166.998 163.319 167.166 162.858C167.192 162.787 167.208 162.712 167.225 162.637C167.233 162.602 167.24 162.568 167.249 162.533C167.209 162.541 167.169 162.547 167.129 162.554C167.042 162.568 166.955 162.582 166.871 162.606C166.702 162.655 166.534 162.713 166.367 162.772L166.367 162.772C166.019 162.894 165.671 163.016 165.316 163.043C163.987 163.143 162.65 163.186 161.317 163.186C160.493 163.186 159.668 163.155 158.844 163.123H158.844H158.844H158.843H158.843H158.843H158.843H158.842C158.31 163.103 157.779 163.083 157.247 163.071C157.148 163.069 156.993 163.188 156.953 163.285L156.807 163.64C156.474 164.449 156.141 165.257 155.85 166.08C155.125 168.129 154.421 170.185 153.727 172.244C152.845 174.858 151.76 177.38 150.563 179.883C149.455 182.204 148.628 184.675 148.103 187.218C147.858 188.405 147.496 189.571 147.134 190.735L147.134 190.735C147.073 190.929 147.013 191.122 146.954 191.315C146.927 191.403 146.9 191.49 146.873 191.578C146.605 192.458 146.309 193.33 146.013 194.202L146.013 194.202L146.013 194.203L146.013 194.203L146.012 194.203L146.012 194.204L146.012 194.204L146.012 194.205L146.011 194.208L146.01 194.211L146.009 194.215C145.903 194.527 145.797 194.839 145.692 195.151C145.45 195.874 145.663 196.549 146.254 196.637C146.913 196.735 147.593 196.699 148.333 196.654C149.006 196.565 149.584 196.267 149.964 195.742ZM53.1729 170.879C53.9039 169.722 54.6568 168.675 56.1428 168.363C56.6944 168.247 56.7249 167.97 56.3593 167.526C56.2791 167.429 56.1944 167.332 56.1093 167.234C55.8038 166.884 55.4925 166.527 55.3607 166.121C55.2182 165.682 55.246 165.187 55.2733 164.7C55.2803 164.574 55.2873 164.45 55.2914 164.326C55.3398 162.855 55.7717 161.599 57.2861 160.885C57.7355 160.673 58.0053 160.353 57.5545 159.728C56.5389 158.318 55.1929 157.321 53.7088 156.456C53.1271 156.118 52.5915 156.319 52.3602 156.91C52.2599 157.167 52.1583 157.423 52.0568 157.68L52.0567 157.68L52.0567 157.68L52.0566 157.68L52.0565 157.681L52.0564 157.681L52.0564 157.681L52.0563 157.681C51.7349 158.493 51.4134 159.304 51.1284 160.127C50.8154 161.032 50.5176 161.94 50.2198 162.849L50.2197 162.85C49.9055 163.809 49.5913 164.768 49.2592 165.722C48.9848 166.509 48.7433 167.306 48.5018 168.102L48.5017 168.102C48.0653 169.542 47.6286 170.982 46.9973 172.372C45.5437 175.573 44.3688 178.882 43.8128 182.36C43.7834 182.544 43.8244 182.86 43.9375 182.915C44.1095 182.999 44.4033 182.968 44.5914 182.88C44.9051 182.733 45.2345 182.548 45.4541 182.296C46.1435 181.504 46.7847 180.673 47.4446 179.723C47.9911 178.882 48.5398 178.042 49.0884 177.201L49.0892 177.2L49.0893 177.2C50.4613 175.099 51.8333 172.999 53.1729 170.879ZM156.068 198.14C155.936 198.108 155.803 198.077 155.67 198.046C154.453 197.761 153.243 197.478 152.538 196.267C152.205 195.696 151.914 195.74 151.578 196.367C151.287 196.911 150.926 197.388 150.351 197.672C150.045 197.823 149.722 197.944 149.397 198.055C147.785 198.605 146.217 198.674 144.803 197.563C144.114 197.021 143.89 197.071 143.352 197.745C142.483 198.836 142.037 200.107 141.594 201.373L141.556 201.482C141.078 202.845 141.337 203.13 142.844 203.13H169.865C169.922 203.13 169.981 203.135 170.04 203.14C170.175 203.151 170.311 203.162 170.418 203.115C170.557 203.053 170.742 202.762 170.719 202.737C170.62 202.633 170.523 202.523 170.427 202.413L170.426 202.412L170.426 202.412L170.425 202.411C170.128 202.072 169.826 201.728 169.444 201.541C168.682 201.169 167.827 200.949 166.991 200.745C163.904 199.993 160.808 199.274 157.575 198.543C157.418 198.501 157.261 198.458 157.104 198.415C156.76 198.32 156.415 198.225 156.068 198.14ZM208.913 148.192C208.945 148.306 209.086 148.392 209.228 148.477L209.253 148.492C209.267 148.501 209.282 148.51 209.296 148.519L209.313 148.529L209.325 148.537L209.341 148.547C209.367 148.564 209.391 148.581 209.413 148.598C209.449 148.55 209.493 148.502 209.537 148.454C209.634 148.35 209.73 148.246 209.735 148.137C209.743 147.992 209.753 147.847 209.763 147.7C209.802 147.132 209.842 146.558 209.725 146.018C209.497 144.961 209.138 143.922 208.731 142.915C208.629 142.663 208.751 142.543 208.865 142.431C208.947 142.349 209.026 142.271 209.014 142.149C209.087 142.195 209.165 142.236 209.244 142.277C209.422 142.372 209.601 142.466 209.719 142.608C209.823 142.733 209.871 142.899 209.919 143.066C209.948 143.166 209.977 143.266 210.017 143.359L210.068 143.472L210.119 143.59L210.19 143.75L210.19 143.75C210.468 144.385 210.747 145.02 211.069 145.633C211.127 145.742 211.299 145.795 211.471 145.848C211.55 145.873 211.629 145.897 211.697 145.927C211.726 145.865 211.763 145.803 211.8 145.741C211.881 145.605 211.962 145.47 211.96 145.335C211.954 144.724 211.904 144.112 211.829 143.505C211.817 143.409 211.806 143.312 211.796 143.215V143.215C211.748 142.777 211.699 142.331 211.524 141.944C210.989 140.763 210.422 139.586 209.74 138.481C209.309 137.781 208.722 137.127 208.071 136.608C207.493 136.148 206.827 135.787 206.164 135.428L206.164 135.428C205.987 135.332 205.81 135.236 205.635 135.138C204.565 134.541 203.481 133.968 202.394 133.401C202.382 133.395 202.37 133.389 202.358 133.382C202.231 133.312 202.081 133.23 201.947 133.511C201.696 134.039 201.429 134.561 201.163 135.083L201.162 135.084L201.162 135.084L201.162 135.084L201.162 135.084L201.162 135.084L201.162 135.085L201.162 135.085L201.162 135.085C200.746 135.9 200.329 136.714 199.972 137.552C199.965 137.57 199.957 137.589 199.948 137.608C199.808 137.929 199.56 138.494 200.318 138.807C201.132 139.142 201.932 139.624 202.574 140.209C204.462 141.93 205.314 144.23 206.16 146.514L206.226 146.693C206.389 147.132 206.505 147.588 206.622 148.043L206.622 148.044L206.622 148.044L206.622 148.044L206.622 148.044L206.622 148.045L206.622 148.045L206.622 148.045C206.678 148.261 206.733 148.477 206.793 148.691C206.815 148.769 206.841 148.846 206.867 148.923L206.889 148.987L206.903 149.03C206.942 149.002 206.988 148.977 207.034 148.952C207.134 148.897 207.234 148.842 207.268 148.762C207.625 147.938 207.732 147.109 207.467 146.214C207.255 145.502 207.179 144.749 207.104 144.007L207.097 143.94C207.088 143.849 207.219 143.745 207.351 143.641C207.411 143.593 207.472 143.545 207.519 143.499C207.551 143.539 207.587 143.577 207.624 143.616C207.704 143.7 207.783 143.784 207.812 143.882C207.871 144.089 207.927 144.297 207.983 144.508L207.983 144.51L207.984 144.512L207.984 144.512C208.087 144.9 208.194 145.299 208.335 145.725C208.383 145.94 208.431 146.156 208.478 146.371L208.478 146.372C208.612 146.982 208.745 147.592 208.913 148.192ZM200.301 134.431C200.402 134.198 200.522 133.974 200.642 133.751C200.933 133.209 201.225 132.667 201.241 131.984C201.256 131.359 201.138 131.024 200.614 130.716C200.059 130.39 199.427 130.194 198.933 130.569C197.811 131.42 196.775 132.409 196.175 133.675C195.797 134.473 195.525 135.317 195.253 136.161C195.159 136.451 195.066 136.74 194.969 137.027C194.913 137.191 194.939 137.394 194.976 137.57C195.193 138.624 196.01 139.144 196.919 139.586C197.399 139.819 197.754 139.703 197.969 139.247C198.117 138.936 198.262 138.623 198.408 138.308L198.409 138.307C198.715 137.649 199.026 136.98 199.373 136.281C199.469 136.091 199.568 135.903 199.667 135.715C199.89 135.292 200.113 134.868 200.301 134.431ZM42.2742 181.991C42.7751 180.843 43.2509 179.681 43.6522 178.498C43.9205 177.706 44.1571 176.905 44.3937 176.104L44.3938 176.104L44.3939 176.104C44.6082 175.378 44.8224 174.653 45.0603 173.934C45.4336 172.807 45.8252 171.685 46.2168 170.564C46.5828 169.515 46.9487 168.467 47.2998 167.414C47.9572 165.442 48.5984 163.466 49.2396 161.489C49.5277 160.601 49.8157 159.713 50.1053 158.825C50.1815 158.592 50.2588 158.358 50.3361 158.125L50.3363 158.125C50.5419 157.504 50.7475 156.884 50.9319 156.258C50.9592 156.165 50.9036 156.05 50.848 155.934C50.8222 155.88 50.7965 155.827 50.779 155.776C50.7221 155.812 50.6562 155.844 50.5904 155.876C50.4479 155.946 50.3055 156.016 50.2534 156.125C49.7604 157.163 49.2787 158.208 48.8532 159.273C48.4616 160.254 48.112 161.25 47.7625 162.246C47.7041 162.412 47.6456 162.579 47.5869 162.746C47.5224 162.929 47.4576 163.112 47.3929 163.295L47.3928 163.295L47.3926 163.296L47.3925 163.296L47.3913 163.3L47.3912 163.3C47.0245 164.337 46.6576 165.374 46.3311 166.423C45.993 167.51 45.6725 168.601 45.3521 169.692C45.1175 170.491 44.8829 171.29 44.6413 172.087C44.5527 172.38 44.4648 172.673 44.3769 172.965C44.0076 174.196 43.6382 175.428 43.208 176.639C42.9401 177.393 42.6569 178.142 42.3725 178.894L42.3722 178.895L42.3722 178.895C41.9751 179.945 41.5759 181.001 41.2134 182.084C41.7391 182.751 41.9401 182.757 42.2742 181.991ZM161.006 205.626C161.324 205.605 161.642 205.583 161.961 205.56C162.662 205.51 163.364 205.46 164.067 205.427C164.994 205.384 165.921 205.345 166.848 205.306C168.074 205.254 169.3 205.203 170.525 205.141C170.621 205.136 170.713 205.043 170.805 204.951C170.848 204.908 170.89 204.864 170.934 204.83C170.911 204.817 170.888 204.803 170.866 204.789L170.824 204.761C170.74 204.706 170.655 204.652 170.562 204.621C170.49 204.598 170.407 204.603 170.324 204.609C170.288 204.612 170.251 204.614 170.215 204.614H142.376C142.333 204.614 142.284 204.609 142.236 204.604C142.13 204.592 142.024 204.58 141.966 204.625C141.766 204.78 141.587 204.978 141.466 205.193C141.44 205.239 141.682 205.512 141.832 205.544C142.246 205.632 142.676 205.687 143.099 205.688C149.045 205.696 154.99 205.694 161.006 205.626ZM204.486 206.425C203.363 206.861 202.24 207.285 201.122 207.708C198.992 208.514 196.874 209.315 194.784 210.18C193.357 210.77 191.927 210.861 190.44 210.819C190.314 210.815 190.188 210.788 190.063 210.761L190.062 210.76C189.928 210.731 189.793 210.702 189.658 210.702C189.549 210.702 189.44 210.76 189.331 210.818C189.282 210.844 189.233 210.87 189.184 210.89C189.21 210.929 189.233 210.97 189.256 211.011C189.308 211.102 189.36 211.192 189.435 211.257C189.65 211.442 189.874 211.631 190.127 211.759C192.053 212.73 193.167 215.379 192.486 217.367C192.152 218.343 191.747 219.38 191.07 220.14C190.52 220.758 189.56 221.165 188.704 221.379C187.351 221.717 185.94 221.728 184.576 221.252C183.384 220.836 182.528 220.066 181.897 219.026C180.363 216.498 180.993 214.306 182.624 212.265C182.839 211.997 183.184 211.828 183.532 211.658C183.726 211.563 183.922 211.468 184.096 211.354C184.219 211.274 184.315 211.154 184.41 211.035C184.454 210.98 184.498 210.925 184.544 210.875C184.467 210.856 184.39 210.835 184.314 210.813C184.138 210.763 183.963 210.713 183.785 210.706C183.663 210.701 183.54 210.732 183.416 210.762C183.301 210.79 183.186 210.819 183.071 210.819L178.728 210.821C168.901 210.827 159.075 210.833 149.248 210.818C146.874 210.814 144.501 210.78 142.127 210.746C140.731 210.726 139.334 210.706 137.937 210.692C136.905 210.682 135.873 210.685 134.841 210.687C134.371 210.689 133.901 210.69 133.432 210.69C133.331 210.69 133.229 210.689 133.128 210.689C132.848 210.687 132.567 210.686 132.287 210.696C132.229 210.698 132.172 210.736 132.115 210.775L132.115 210.775C132.104 210.782 132.094 210.789 132.083 210.796C132.068 210.806 132.052 210.816 132.036 210.824C132.061 210.841 132.087 210.859 132.112 210.876C132.165 210.914 132.219 210.952 132.276 210.986C132.511 211.127 132.758 211.257 133.005 211.386C133.536 211.665 134.066 211.944 134.483 212.335C137.332 215.009 136.413 220.296 132.15 221.355C128.702 222.213 125.654 221.109 124.63 217.169C123.999 214.741 125.687 211.844 128.239 211.086C128.349 211.053 128.445 210.973 128.54 210.893C128.584 210.856 128.629 210.818 128.675 210.786C128.628 210.761 128.581 210.73 128.534 210.699C128.433 210.632 128.332 210.566 128.231 210.565C124.867 210.553 121.713 209.611 118.621 208.486C114.467 206.974 110.428 205.211 106.688 202.885L106.617 202.841C105.926 202.412 105.213 201.969 104.969 201.072C104.513 199.392 105.396 198.096 107.026 197.671C108.762 197.217 110.426 197.694 112.066 198.2C114.909 199.078 117.749 199.961 120.59 200.844L120.593 200.845L120.596 200.846L120.599 200.847C122.18 201.339 123.761 201.83 125.342 202.321L125.548 202.385L125.55 202.385C126.407 202.652 127.265 202.918 128.13 203.16C128.447 203.25 128.789 203.295 129.12 203.296C130.542 203.301 131.965 203.302 133.388 203.302H133.402C134.823 203.303 136.243 203.304 137.663 203.309C137.874 203.309 138.236 203.366 138.266 203.469C138.333 203.69 138.332 203.929 138.331 204.169C138.331 204.263 138.33 204.356 138.334 204.448C138.313 204.442 138.292 204.432 138.271 204.423C138.225 204.403 138.18 204.383 138.136 204.387C137.975 204.401 137.815 204.42 137.654 204.439C137.415 204.467 137.176 204.496 136.936 204.507C136.104 204.549 135.271 204.586 134.439 204.623H134.439C133.326 204.673 132.213 204.723 131.1 204.783C129.132 204.889 127.276 204.355 125.436 203.826L125.419 203.822C123.992 203.411 122.582 202.943 121.172 202.476C120.375 202.211 119.579 201.947 118.778 201.693C117.779 201.375 116.776 201.066 115.774 200.756L115.773 200.755L115.772 200.755L115.772 200.755L115.771 200.755L115.77 200.754L115.769 200.754L115.768 200.754L115.765 200.753C114.608 200.395 113.452 200.038 112.299 199.669C112.008 199.575 111.724 199.451 111.44 199.326L111.44 199.326C110.988 199.128 110.539 198.931 110.066 198.863C109.198 198.739 108.269 198.807 107.403 198.971C107.064 199.035 106.685 199.553 106.579 199.93C106.437 200.434 106.533 200.93 107.146 201.305C109.99 203.044 112.987 204.486 116.065 205.794C118.862 206.982 121.749 207.909 124.698 208.664C125.171 208.785 125.683 208.795 126.177 208.804C127.308 208.825 128.438 208.838 129.568 208.852L129.571 208.852C131.478 208.874 133.386 208.897 135.293 208.953C137.405 209.015 139.516 209.114 141.627 209.212C142.609 209.258 143.591 209.304 144.573 209.346C145.443 209.384 146.313 209.42 147.183 209.456C148.445 209.508 149.707 209.561 150.969 209.617C151.24 209.629 151.511 209.651 151.782 209.673L151.783 209.673L151.784 209.673L151.784 209.673L151.785 209.673L151.785 209.673L151.786 209.673C152.265 209.711 152.744 209.75 153.221 209.735C153.64 209.722 154.057 209.666 154.474 209.611C154.835 209.562 155.195 209.514 155.558 209.494C155.802 209.48 156.049 209.515 156.297 209.55C156.498 209.578 156.699 209.606 156.899 209.609C157.141 209.612 157.383 209.616 157.624 209.62C158.737 209.637 159.851 209.654 160.96 209.603C161.918 209.559 162.875 209.487 163.832 209.414C164.754 209.344 165.676 209.274 166.6 209.23C166.874 209.216 167.151 209.282 167.429 209.348C167.674 209.406 167.919 209.464 168.164 209.469C169.844 209.502 171.525 209.498 173.206 209.476C174.844 209.454 176.483 209.413 178.119 209.337C178.444 209.323 178.77 209.268 179.095 209.214C179.576 209.134 180.055 209.055 180.522 209.103C182.394 209.299 184.272 209.348 186.149 209.398H186.149C187.438 209.432 188.726 209.466 190.01 209.547C192.329 209.694 194.383 209.161 196.417 208.361C199.171 207.279 201.902 206.132 204.581 204.892C206.256 204.116 207.854 203.182 209.446 202.251L209.446 202.251L209.446 202.251L209.447 202.251L209.447 202.251L209.447 202.251L209.447 202.251L209.447 202.25L209.738 202.08C210.754 201.487 211.528 200.651 211.847 199.501C212.007 198.921 211.671 198.478 211.067 198.465C209.193 198.425 207.482 199.051 205.78 199.681C203.305 200.597 200.841 201.54 198.384 202.501C197.391 202.89 196.405 203.297 195.419 203.704C194.681 204.008 193.944 204.312 193.203 204.609C192.944 204.713 192.646 204.771 192.366 204.772C190.02 204.781 187.675 204.781 185.33 204.78L184.275 204.78L183.402 204.779L182.751 204.779L181.469 204.78C179.724 204.78 177.98 204.781 176.235 204.778C175.639 204.777 175.042 204.758 174.445 204.736C174.407 204.735 174.345 204.643 174.341 204.59C174.336 204.517 174.339 204.442 174.342 204.368V204.367V204.367V204.367V204.367V204.367V204.366V204.366C174.346 204.261 174.35 204.156 174.331 204.054C174.25 203.624 174.442 203.558 174.854 203.56C177.795 203.579 180.737 203.588 183.677 203.565C183.97 203.563 184.263 203.561 184.556 203.559C187.046 203.541 189.536 203.524 192.021 203.402C192.809 203.363 193.603 203.034 194.357 202.72L194.37 202.715L194.55 202.64C198.855 200.863 203.204 199.197 207.685 197.874C208.497 197.634 209.361 197.544 210.218 197.455L210.218 197.455C210.38 197.438 210.541 197.421 210.702 197.403C211.285 197.339 211.904 197.297 212.47 197.413C213.369 197.597 213.742 198.427 213.467 199.294C212.968 200.87 211.969 202.069 210.516 202.92C209.479 203.528 208.439 204.13 207.393 204.736C206.429 205.294 205.461 205.855 204.486 206.425ZM190.164 213.712C188.527 211.998 186.636 211.683 184.381 212.937C183.077 213.661 182.505 215.365 182.615 216.445C182.733 217.607 183.337 218.571 184.26 219.326C185.367 220.232 186.661 220.233 187.994 219.958C190.955 219.345 191.843 215.646 190.164 213.712ZM126.293 215.593C126.293 215.715 126.291 215.838 126.289 215.96C126.284 216.226 126.279 216.491 126.297 216.755C126.447 218.932 129.074 220.623 131.39 219.983C133.039 219.527 133.989 218.58 134.326 216.916C134.842 214.365 133.196 212.528 130.921 212.211C128.673 211.898 126.825 213.091 126.293 215.593ZM144.37 223.314H149.503H175.348C176.562 223.314 177.776 223.314 178.99 223.314C184.761 223.315 190.531 223.316 196.302 223.297C196.679 223.295 197.094 223.087 197.404 222.881C197.487 222.826 197.31 222.389 197.138 222.201C197.022 222.074 196.705 222.028 196.478 222.028C178.039 222.023 159.599 222.021 141.159 222.02C133.917 222.02 126.676 222.019 119.434 222.019C119.167 222.019 118.899 222.001 118.632 221.984H118.632H118.632H118.631H118.631H118.631C118.535 221.978 118.439 221.972 118.343 221.966C117.9 221.941 117.325 222.509 117.508 222.835C117.771 223.303 118.311 223.315 118.839 223.314C127.325 223.314 135.811 223.314 144.337 223.314H144.343H144.348H144.354H144.359H144.364H144.37ZM98.099 223.647L94.588 223.647H94.4896H94.4842H94.4787H94.4733H94.4678C89.3662 223.647 84.3015 223.648 79.2367 223.645C79.1831 223.645 79.1286 223.647 79.0742 223.649C78.7299 223.659 78.3865 223.67 78.2492 223.239C78.0902 222.74 78.3082 222.376 78.8875 222.311C78.9974 222.299 79.1096 222.302 79.2219 222.306C79.2734 222.307 79.3249 222.309 79.3761 222.309L84.7059 222.309C93.781 222.309 102.856 222.309 111.931 222.307C111.961 222.307 111.99 222.307 112.02 222.307C112.49 222.304 112.934 222.302 112.914 222.912C112.898 223.417 112.586 223.647 111.862 223.647L101.572 223.647H98.099ZM219.943 223.649L223.61 223.649L225.951 223.65H225.958H225.965H225.972H225.979C228.961 223.65 231.908 223.65 234.855 223.644C235.162 223.643 235.473 223.584 235.772 223.517C235.855 223.499 235.937 223.36 235.957 223.267C236.108 222.547 235.865 222.311 234.988 222.311L202.439 222.311C202.388 222.311 202.336 222.309 202.285 222.307C202.172 222.302 202.059 222.298 201.951 222.315C201.354 222.412 201.14 222.811 201.378 223.294C201.56 223.664 201.897 223.657 202.236 223.65C202.283 223.649 202.33 223.648 202.377 223.648C208.214 223.649 214.051 223.649 219.928 223.649H219.933H219.938H219.943ZM194.62 44.9523C194.742 44.9403 195.314 45.0261 196.02 45.1317C196.985 45.2762 198.199 45.458 198.851 45.4781C199.503 45.4983 198.884 46.1703 198.776 46.1747C197.337 46.2335 194.217 45.3193 194.62 44.9523ZM196.722 50.2534C196.112 50.0314 196.404 48.2351 197.008 48.2351C197.605 48.2351 197.317 50.4701 196.722 50.2534ZM187.941 214.96C188.468 216.11 188.432 216.581 187.804 217.206C187.376 217.633 186.599 217.706 186.113 217.364C185.593 216.999 185.352 216.137 185.603 215.538C186.043 214.486 187.013 214.229 187.941 214.96ZM131.496 215.048C130.677 214.319 129.861 214.36 128.86 215.304C128.495 216.117 128.674 216.978 130.026 217.207C130.754 217.331 131.186 217.124 131.588 216.704C132.007 216.268 131.887 215.397 131.496 215.048Z" fill="#00160A"/>
<path fill-rule="evenodd" clip-rule="evenodd" d="M179.006 68.5673C177.789 68.2235 177.5 66.4472 176.272 66.1403C175.057 65.8368 173.889 67.221 172.678 66.9049C171.854 66.69 171.469 65.8149 171.013 65.1211C170.569 64.4459 169.634 63.8365 168.967 64.2723L168.912 64.311C167.986 65.0134 166.597 64.5697 165.664 63.8751C164.732 63.1806 163.941 62.2444 162.821 61.8871C163.409 61.3289 164.428 61.7339 164.997 62.3098C165.566 62.8856 166.029 63.6444 166.82 63.8748C168.032 64.2277 169.396 63.1453 170.54 63.6675C171.251 63.9923 171.54 64.7945 171.966 65.4313C172.392 66.068 173.318 66.6017 173.923 66.1169C175.39 64.9402 178.012 65.6862 178.577 67.4411C178.741 67.9501 179.465 68.6968 179.006 68.5673Z" fill="#E7EAEE"/>
<path fill-rule="evenodd" clip-rule="evenodd" d="M106.376 201.943C109.759 203.86 120.356 209.508 128.124 209.695L192.375 209.889C192.375 209.889 226.159 198.46 201.458 202.772C200.06 203.017 196.056 205.32 189.619 205.822C177.851 206.74 128.124 206.153 128.124 206.153C128.124 206.153 105.486 201.439 106.376 201.943Z" fill="#E7EAEE"/>
<path fill-rule="evenodd" clip-rule="evenodd" d="M51.1975 163.918C51.2766 163.833 51.3727 163.773 51.4322 163.797C52.1088 164.066 52.4991 163.832 52.7047 163.189C52.7388 163.082 52.9125 163.017 53.0217 162.932C53.1222 163.061 53.3072 163.189 53.3076 163.319C53.309 163.747 53.5024 163.949 53.9259 164.076C54.1064 164.131 54.2132 164.408 54.3535 164.585C54.2122 164.616 53.999 164.605 53.9446 164.688C53.8341 164.857 53.7761 165.075 53.7594 165.277C53.7453 165.45 53.8349 165.627 53.8506 165.804C53.8712 166.037 53.8323 166.208 53.547 165.974C52.9774 165.505 52.4832 165.681 51.9966 166.123C51.8787 166.23 51.6711 166.247 51.5048 166.305C51.5352 166.16 51.5443 166.006 51.5996 165.87C51.8898 165.155 51.6894 164.541 51.1975 163.918Z" fill="#FFB61D"/>
<ellipse cx="190.763" cy="54.648" rx="2.45467" ry="2.36133" fill="#FFB61D"/>
<path fill-rule="evenodd" clip-rule="evenodd" d="M155.641 75.6661L155.923 76.0851L156.016 76.2204C156.608 77.0552 157.507 77.8759 158.506 77.6326C161.166 76.9852 164.192 78.1152 165.7 80.3192C166.446 81.409 168.102 81.1952 169.456 80.9161L169.634 80.8786C170.992 80.589 172.87 80.7252 173.213 81.9911L173.231 82.0639C173.389 82.7927 174.343 83.0142 175.128 82.995L175.371 82.9865C177.345 82.9865 177.604 84.0308 177.604 83.9235C177.604 83.9235 173.264 83.6071 172.351 82.191L172.295 82.1009C171.713 81.1207 170.244 81.2803 169.095 81.6135L168.779 81.7086L168.621 81.753C167.499 82.0553 166.137 82.1648 165.574 81.2336C164.282 79.097 161.591 77.8274 159.043 78.1524C158.387 78.2361 157.707 78.4133 157.079 78.2133C155.577 77.7347 155.38 75.5033 153.902 74.9593C152.037 74.2729 150.231 76.8808 148.301 76.3885C149.475 75.527 150.777 74.8264 152.154 74.3144C152.616 74.1428 153.106 73.9901 153.598 74.0474C154.508 74.1535 155.119 74.906 155.641 75.6661ZM179.338 78.2407C179.151 78.7923 179.015 79.2822 178.924 79.6978C178.734 78.4999 177.497 77.3921 176.33 77.7801L176.263 77.8041C175.522 78.0879 174.738 77.4988 174.259 76.886L174.144 76.7368L173.971 76.5086C173.584 76 173.168 75.4983 172.548 75.3534C171.415 75.0886 170.414 76.174 169.256 76.3035C166.575 76.6032 165.235 71.9863 162.603 72.5592C162.027 72.6845 161.529 73.0638 160.945 73.1407C159.331 73.3528 158.465 71.3785 157.105 70.5164C156.081 69.8675 154.636 69.9068 153.653 70.6102C153.702 69.4828 155.296 68.986 156.384 69.4102C157.472 69.8344 158.219 70.788 159.123 71.5088C160.003 72.2115 161.311 72.6942 162.27 72.1224L162.343 72.0763C163.497 71.3079 165.041 72.2826 165.942 73.3175L166.269 73.6947C167.092 74.6365 168.032 75.6151 169.265 75.5247C170.397 75.4418 171.361 74.4268 172.484 74.5891C174.121 74.8256 174.79 77.363 176.435 77.1913C177.493 77.0809 178.593 77.4225 179.384 78.1068L179.338 78.2407ZM180.188 72.9318C179.923 73.2878 179.659 73.5738 179.393 73.7897L179.304 73.8591L179.083 73.7069C178.007 72.9715 176.832 72.2558 175.523 72.2855C175.045 72.2963 174.556 72.4073 174.097 72.2778C172.88 71.934 172.591 70.1576 171.362 69.8508C170.147 69.5472 168.98 70.9314 167.769 70.6154C166.945 70.4004 166.56 69.5254 166.104 68.8315C165.66 68.1564 164.725 67.547 164.058 67.9827L164.003 68.0215C163.077 68.7238 161.688 68.2801 160.755 67.5856C159.822 66.891 159.032 65.9548 157.912 65.5975C158.5 65.0394 159.518 65.4444 160.088 66.0202C160.657 66.5961 161.12 67.3548 161.911 67.5852C163.122 67.9382 164.487 66.8557 165.631 67.378C166.342 67.7027 166.631 68.505 167.057 69.1417C167.482 69.7785 168.409 70.3122 169.013 69.8274C170.48 68.6507 173.102 69.3966 173.667 71.1515C173.831 71.6605 174.536 71.779 175.08 71.6767C175.624 71.5745 176.183 71.3463 176.712 71.5065C177.384 71.7103 177.729 72.4623 178.376 72.7297C179.05 73.0079 179.856 72.6542 180.307 72.0943L180.352 72.0356C180.715 71.547 180.545 72.4506 180.188 72.9318Z" fill="#FFB61D"/>
<path fill-rule="evenodd" clip-rule="evenodd" d="M166.069 86.315L166.272 86.3723C166.544 86.4522 166.749 86.5701 166.987 86.7644L167.105 86.8642L167.255 86.9954C167.328 87.0589 167.385 87.1066 167.443 87.1523C167.84 87.4658 168.29 87.6603 169.041 87.775C169.545 87.852 169.9 87.7749 170.513 87.5005L170.733 87.3991C171.723 86.9398 172.298 86.8118 173.226 87.0169C174.018 87.1922 174.382 87.4873 174.678 88.0426L174.753 88.1898C174.895 88.4743 175.352 88.7372 175.712 88.9446C175.983 89.1001 176.199 89.2245 176.188 89.3036C176.162 89.4882 174.489 89.1897 174.156 88.5509L174.084 88.4076C173.868 87.9787 173.67 87.8075 173.069 87.6744C172.363 87.5185 171.935 87.6 171.148 87.9564L170.927 88.0581C170.128 88.4276 169.638 88.5493 168.931 88.4413C168.057 88.3078 167.492 88.0634 166.998 87.6741C166.964 87.6471 166.93 87.6199 166.895 87.5907L166.602 87.336C166.396 87.1596 166.256 87.073 166.067 87.0176L165.951 86.9839C165.462 86.8459 164.341 87.2038 163.525 87.4646C163.013 87.6282 162.62 87.7536 162.578 87.6946C162.486 87.5673 165.094 86.0629 166.069 86.315ZM165.949 91.4422L166.138 91.4925C166.39 91.5628 166.58 91.6663 166.801 91.8371L166.91 91.9248L167.049 92.0401C167.117 92.0959 167.169 92.1378 167.223 92.1781C167.592 92.4535 168.009 92.6244 168.706 92.7252C169.173 92.7929 169.502 92.7251 170.07 92.484L170.275 92.3949C171.192 91.9912 171.726 91.8788 172.586 92.059C173.321 92.2131 173.659 92.4724 173.933 92.9604L174.003 93.0898C174.134 93.3398 174.558 93.5708 174.892 93.7531C175.143 93.8897 175.343 93.999 175.333 94.0685C175.309 94.2308 173.757 93.9685 173.449 93.4071L173.382 93.2812C173.181 92.9042 172.998 92.7538 172.44 92.6369C171.786 92.4998 171.39 92.5715 170.659 92.8847L170.455 92.974C169.713 93.2987 169.259 93.4057 168.604 93.3108C167.793 93.1935 167.269 92.9787 166.811 92.6366C166.779 92.6128 166.748 92.5889 166.716 92.5633L166.444 92.3394C166.253 92.1845 166.123 92.1083 165.948 92.0596L165.84 92.03C165.386 91.9088 164.347 92.2233 163.59 92.4525C163.115 92.5962 162.751 92.7064 162.712 92.6546C162.626 92.5427 165.045 91.2207 165.949 91.4422ZM166.298 96.8899L166.12 96.8396C165.266 96.618 162.982 97.9401 163.062 98.0519C163.099 98.1038 163.443 97.9936 163.892 97.8498C164.607 97.6206 165.588 97.3061 166.017 97.4273L166.118 97.4569C166.284 97.5057 166.406 97.5818 166.587 97.7368L166.844 97.9606C166.874 97.9863 166.904 98.0102 166.934 98.0339C167.366 98.376 167.861 98.5908 168.627 98.7081C169.246 98.803 169.675 98.6961 170.375 98.3714L170.568 98.282C171.258 97.9688 171.633 97.8971 172.25 98.0342C172.777 98.1511 172.95 98.3015 173.14 98.6785L173.203 98.8044C173.494 99.3658 174.96 99.6281 174.982 99.4658C174.992 99.3963 174.803 99.287 174.566 99.1504C174.25 98.9681 173.85 98.7371 173.726 98.4871L173.66 98.3577C173.401 97.8697 173.082 97.6104 172.388 97.4564C171.575 97.2761 171.072 97.3886 170.205 97.7922L170.012 97.8813C169.475 98.1224 169.164 98.1902 168.723 98.1226C168.065 98.0217 167.671 97.8508 167.323 97.5754C167.272 97.5352 167.223 97.4933 167.159 97.4375L167.028 97.3221L166.924 97.2344C166.715 97.0637 166.536 96.9601 166.298 96.8899ZM166.12 103.249L166.298 103.299C166.536 103.369 166.715 103.473 166.924 103.644L167.028 103.731L167.159 103.847C167.223 103.903 167.272 103.944 167.323 103.985C167.671 104.26 168.065 104.431 168.723 104.532C169.164 104.6 169.475 104.532 170.012 104.291L170.205 104.202C171.072 103.798 171.575 103.685 172.388 103.866C173.082 104.02 173.401 104.279 173.66 104.767L173.726 104.896C173.85 105.146 174.25 105.377 174.566 105.56C174.803 105.696 174.992 105.806 174.982 105.875C174.96 106.037 173.494 105.775 173.203 105.214L173.14 105.088C172.95 104.711 172.777 104.56 172.25 104.444C171.633 104.306 171.258 104.378 170.568 104.691L170.375 104.781C169.675 105.105 169.246 105.212 168.627 105.117C167.861 105 167.366 104.785 166.934 104.443C166.904 104.419 166.874 104.396 166.844 104.37L166.587 104.146C166.406 103.991 166.284 103.915 166.118 103.866L166.017 103.837C165.588 103.715 164.607 104.03 163.892 104.259C163.443 104.403 163.099 104.513 163.062 104.461C162.982 104.349 165.266 103.027 166.12 103.249ZM166.839 109.709L166.651 109.658C165.747 109.437 163.328 110.759 163.413 110.871C163.452 110.922 163.816 110.812 164.291 110.668C165.049 110.439 166.087 110.125 166.541 110.246L166.649 110.276C166.824 110.324 166.954 110.4 167.145 110.555L167.417 110.779C167.449 110.805 167.48 110.829 167.512 110.853C167.97 111.195 168.495 111.409 169.305 111.527C169.961 111.622 170.415 111.515 171.156 111.19L171.36 111.101C172.091 110.787 172.488 110.716 173.142 110.853C173.7 110.97 173.883 111.12 174.083 111.497L174.15 111.623C174.459 112.184 176.01 112.447 176.034 112.285C176.045 112.215 175.844 112.106 175.593 111.969C175.259 111.787 174.835 111.556 174.704 111.306L174.634 111.176C174.36 110.688 174.022 110.429 173.287 110.275C172.427 110.095 171.894 110.207 170.976 110.611L170.771 110.7C170.203 110.941 169.874 111.009 169.407 110.941C168.711 110.84 168.293 110.669 167.924 110.394C167.871 110.354 167.818 110.312 167.751 110.256L167.612 110.141L167.502 110.053C167.281 109.882 167.091 109.779 166.839 109.709ZM168.562 115.589L168.757 115.607C169.018 115.634 169.223 115.704 169.472 115.835L169.596 115.904L169.753 115.994C169.83 116.038 169.889 116.07 169.95 116.101C170.362 116.31 170.804 116.409 171.508 116.392C171.981 116.38 172.293 116.259 172.809 115.926L172.994 115.805C173.825 115.254 174.33 115.054 175.21 115.088C175.961 115.117 176.34 115.316 176.699 115.75L176.791 115.866C176.965 116.09 177.424 116.247 177.786 116.371C178.058 116.463 178.275 116.538 178.277 116.608C178.283 116.772 176.708 116.772 176.303 116.271L176.214 116.158C175.948 115.821 175.741 115.703 175.17 115.681C174.501 115.655 174.124 115.792 173.461 116.223L173.276 116.345C172.604 116.788 172.177 116.97 171.514 116.986C170.694 117.005 170.139 116.882 169.626 116.621L169.519 116.565L169.211 116.39C168.995 116.269 168.853 116.216 168.672 116.197L168.561 116.186C168.092 116.142 167.125 116.626 166.421 116.978C165.979 117.199 165.641 117.368 165.592 117.324C165.488 117.228 167.632 115.522 168.562 115.589ZM172.986 119.957L172.83 119.971C172.087 120.055 170.608 121.628 170.702 121.684C170.746 121.71 170.992 121.536 171.313 121.309L171.313 121.309L171.314 121.309C171.826 120.946 172.528 120.45 172.904 120.415L172.993 120.407C173.139 120.395 173.258 120.414 173.443 120.473L173.709 120.558L173.801 120.585C174.238 120.705 174.693 120.717 175.338 120.585C175.859 120.478 176.174 120.282 176.649 119.857L176.78 119.74C177.249 119.325 177.53 119.17 178.062 119.093C178.516 119.028 178.694 119.085 178.947 119.298L179.031 119.369C179.414 119.682 180.659 119.456 180.634 119.335C180.623 119.284 180.442 119.26 180.216 119.23H180.216L180.216 119.23L180.215 119.23C179.914 119.19 179.531 119.14 179.366 118.998L179.278 118.925C178.941 118.654 178.616 118.561 178.018 118.647C177.319 118.748 176.945 118.969 176.358 119.496L176.227 119.613C175.862 119.934 175.63 120.069 175.259 120.145C174.705 120.259 174.343 120.249 173.991 120.152C173.939 120.138 173.888 120.123 173.822 120.101L173.686 120.057L173.58 120.024C173.367 119.962 173.196 119.94 172.986 119.957ZM176.688 123.007L176.843 122.993C177.053 122.976 177.224 122.998 177.437 123.06L177.544 123.093L177.68 123.137C177.745 123.159 177.796 123.174 177.848 123.188C178.2 123.285 178.562 123.295 179.116 123.181C179.488 123.105 179.719 122.97 180.085 122.649L180.216 122.532C180.803 122.005 181.176 121.784 181.876 121.683C182.473 121.597 182.798 121.69 183.136 121.961L183.223 122.034C183.389 122.176 183.771 122.226 184.073 122.266H184.073C184.299 122.296 184.48 122.32 184.491 122.371C184.516 122.492 183.272 122.718 182.888 122.405L182.804 122.334C182.552 122.121 182.373 122.064 181.92 122.129C181.388 122.206 181.107 122.361 180.637 122.776L180.506 122.893C180.032 123.318 179.717 123.514 179.195 123.621C178.55 123.753 178.096 123.741 177.658 123.621L177.567 123.594L177.301 123.509C177.115 123.45 176.996 123.431 176.851 123.443L176.761 123.451C176.385 123.486 175.683 123.982 175.171 124.345L175.171 124.345L175.171 124.345C174.85 124.572 174.603 124.746 174.56 124.72C174.465 124.664 175.944 123.091 176.688 123.007ZM181.78 126.275L181.658 126.308C181.076 126.475 180.124 127.933 180.208 127.965C180.246 127.98 180.418 127.808 180.641 127.583C180.997 127.224 181.486 126.731 181.782 126.652L181.852 126.634C181.967 126.604 182.064 126.604 182.221 126.625L182.446 126.658L182.523 126.667C182.891 126.703 183.256 126.651 183.752 126.458C184.153 126.302 184.377 126.103 184.694 125.698L184.781 125.587C185.096 125.192 185.298 125.03 185.712 124.896C186.064 124.782 186.216 124.804 186.449 124.94L186.526 124.985C186.879 125.184 187.84 124.834 187.803 124.741C187.786 124.701 187.638 124.707 187.453 124.714C187.206 124.723 186.893 124.734 186.739 124.644L186.659 124.597C186.349 124.426 186.076 124.396 185.611 124.546C185.067 124.721 184.8 124.948 184.408 125.45L184.321 125.561C184.076 125.867 183.91 126.006 183.625 126.117C183.198 126.283 182.908 126.324 182.612 126.295C182.569 126.291 182.526 126.285 182.47 126.277L182.355 126.26L182.265 126.248C182.085 126.228 181.945 126.233 181.78 126.275ZM185.555 129.033L185.678 129.001C185.843 128.958 185.983 128.953 186.162 128.974L186.252 128.985L186.367 129.003C186.423 129.011 186.466 129.016 186.509 129.021C186.805 129.05 187.096 129.009 187.522 128.843C187.808 128.732 187.973 128.592 188.218 128.286L188.306 128.175C188.698 127.674 188.964 127.447 189.509 127.271C189.974 127.121 190.247 127.152 190.557 127.323L190.637 127.369C190.79 127.46 191.103 127.448 191.351 127.439C191.536 127.432 191.684 127.427 191.7 127.467C191.738 127.56 190.776 127.909 190.424 127.711L190.346 127.665C190.113 127.529 189.962 127.508 189.609 127.622C189.195 127.755 188.993 127.918 188.679 128.313L188.591 128.424C188.274 128.828 188.051 129.027 187.65 129.184C187.153 129.377 186.788 129.428 186.421 129.392L186.344 129.383L186.119 129.351C185.962 129.329 185.864 129.33 185.749 129.359L185.679 129.378C185.384 129.456 184.895 129.949 184.539 130.308C184.315 130.533 184.144 130.706 184.105 130.691C184.022 130.659 184.973 129.201 185.555 129.033ZM190.236 131.699L190.114 131.732C189.532 131.9 188.58 133.357 188.664 133.39C188.703 133.404 188.874 133.232 189.097 133.007C189.454 132.648 189.942 132.155 190.238 132.076L190.308 132.058C190.423 132.029 190.52 132.028 190.678 132.05L190.903 132.082L190.98 132.091C191.347 132.127 191.712 132.075 192.208 131.882C192.61 131.726 192.833 131.527 193.15 131.123L193.237 131.011C193.552 130.616 193.754 130.454 194.168 130.32C194.521 130.206 194.672 130.228 194.905 130.364L194.982 130.409C195.335 130.608 196.296 130.258 196.259 130.165C196.243 130.125 196.094 130.131 195.909 130.138C195.662 130.147 195.349 130.158 195.196 130.068L195.115 130.021C194.806 129.85 194.532 129.82 194.067 129.97C193.523 130.145 193.257 130.372 192.865 130.874L192.777 130.985C192.532 131.291 192.367 131.43 192.081 131.541C191.654 131.707 191.364 131.749 191.068 131.719C191.025 131.715 190.982 131.709 190.926 131.701L190.811 131.684L190.721 131.672C190.542 131.652 190.401 131.657 190.236 131.699Z" fill="#FFB61D"/>
</svg>
