<svg width="288" height="288" viewBox="0 0 288 288" fill="none" xmlns="http://www.w3.org/2000/svg">
<rect width="288" height="288" fill="white"/>
<path fill-rule="evenodd" clip-rule="evenodd" d="M26.6927 99.5583C38.3407 118.933 73.0967 142.478 79.9429 142.998C101.6 144.643 132.43 148.283 159.967 149.26L160.8 149.288C170.529 149.615 183.734 149.648 200.417 149.386C203.708 146.438 206.779 144.341 209.63 143.095L209.855 142.998C211.381 142.352 215.315 138.242 225.222 134.023C227.949 132.862 236.009 135.456 241.645 133.39L241.92 133.287C246.472 131.549 253.979 127.038 264.44 119.753C264.377 119.583 264.312 119.414 264.246 119.244C264.493 119.658 264.736 120.073 264.976 120.491C265.216 120.906 283.765 165.2 249.752 199.504C226.558 222.896 164.902 244.935 111.347 232.336C-24.8698 202.901 20.9974 90.0851 26.6927 99.5583Z" fill="#124040"/>
<path fill-rule="evenodd" clip-rule="evenodd" d="M255.409 167.78C256.169 166.386 256.782 164.949 258.117 164.038C258.278 163.929 258.6 163.791 258.662 163.853C258.833 164.023 259.002 164.291 259.004 164.522C259.022 166.677 257.62 168.285 256.778 170.104C256.335 171.065 255.701 171.938 255.145 172.845C255.034 173.026 254.896 173.196 254.747 173.347C254.607 173.488 254.316 173.721 254.296 173.703C254.062 173.475 253.765 173.235 253.687 172.943C253.609 172.652 253.722 172.288 253.815 171.975C254.147 170.855 254.49 169.739 254.867 168.634C254.967 168.338 255.199 168.088 255.409 167.78Z" fill="white"/>
<path fill-rule="evenodd" clip-rule="evenodd" d="M255.185 164.281C255.077 164.984 255.076 165.667 254.92 166.313C254.687 167.281 254.397 168.243 254.037 169.17C253.617 170.249 253.126 171.304 252.606 172.34C252.264 173.022 251.838 173.666 251.404 174.296C251.251 174.517 250.96 174.643 250.734 174.815C250.253 175.183 250.133 174.597 250.136 174.466C250.161 173.276 250.099 172.088 250.457 170.908C250.719 170.045 250.697 169.1 250.848 168.2C250.95 167.594 251.144 167.003 251.275 166.401C251.471 165.497 251.638 164.587 251.836 163.684C252.175 162.146 252.531 160.623 254.054 159.735C254.359 159.557 254.501 159.558 254.808 159.757C255.5 160.208 255.792 160.728 255.609 161.57C255.419 162.448 255.347 163.351 255.185 164.281Z" fill="white"/>
<path fill-rule="evenodd" clip-rule="evenodd" d="M220.406 192.705C219.081 190.413 217.753 188.096 215.607 186.469C214.72 185.797 213.624 185.301 212.546 185.008C211.557 184.739 210.498 184.817 209.418 185.011C208.095 185.247 206.82 185.534 205.603 186.075C203.87 186.844 202.407 188.004 201.205 189.446C199.453 191.547 198.022 193.763 199.098 196.73C199.502 197.844 200.924 198.727 202.12 198.534C202.842 198.417 203.601 198.507 204.342 198.532C204.969 198.553 205.597 198.676 206.22 198.647C207.297 198.596 208.368 198.414 209.445 198.375C210.79 198.325 212.139 198.363 213.486 198.363C213.966 198.363 214.458 198.43 214.923 198.348C215.735 198.203 216.578 198.074 217.323 197.746C219.161 196.935 221.164 195.305 220.406 192.705Z" fill="white"/>
<path fill-rule="evenodd" clip-rule="evenodd" d="M104.506 196.715C104.506 196.715 107.675 197.007 111.713 195.414C115.75 193.82 116.757 190.926 116.757 190.926C116.757 190.926 115.89 186.774 115.071 185.8C114.209 184.775 112.593 184.721 111.713 185.137C110.889 185.526 109.196 185.869 108.056 187.662C107.456 188.606 107.809 190.392 106.827 193.163C106.461 194.196 104.506 196.715 104.506 196.715Z" fill="white"/>
<path fill-rule="evenodd" clip-rule="evenodd" d="M60.8979 194.106C60.8979 194.106 70.2318 197.382 75.3066 198.394C80.3813 199.407 89.7152 199.855 89.7152 199.855C89.7152 199.855 97.2672 188.146 100.054 180.609C102.84 173.073 104.919 158.73 104.919 158.73C104.919 158.73 97.1865 161.286 94.4481 165.227C91.7097 169.167 93.9879 176.463 89.7152 180.609C84.6637 185.512 76.8745 180.497 70.0618 183.688C63.2492 186.879 60.8979 194.106 60.8979 194.106Z" fill="white"/>
<path fill-rule="evenodd" clip-rule="evenodd" d="M93.4291 224.918C103.639 225.823 140.587 213.047 148.755 204.245C151.311 201.49 153.648 196.011 151.249 193.323C144 185.199 112.51 174.536 118.746 160.141C120.829 155.332 133.738 151.91 133.738 151.91C133.738 151.91 136.005 150.781 136.316 150.238C136.626 149.694 135.338 149.109 135.338 149.109L148.755 149.333C148.755 149.333 148.581 152.666 146.829 154.001C141.987 157.689 136.316 157.689 135.338 163.004C133.973 170.428 147.564 180.85 154.842 184.845C173.308 194.981 178.912 204.532 243.442 198.008C234.88 203.363 212.336 216.9 178.749 223.9C123.888 235.334 85.0595 224.177 93.4291 224.918Z" fill="white"/>
<path fill-rule="evenodd" clip-rule="evenodd" d="M184.795 99.9139C190.846 105.41 208.03 131.544 211.154 138.083C211.318 138.428 211.987 140.879 211.987 140.879C211.987 140.879 205.231 142.226 201.42 143.839C197.609 145.451 190.844 149.561 190.844 149.561C190.844 149.561 171.372 149.751 158.648 149.323C134.456 148.511 105.38 148.058 88.147 143.839C84.4041 142.922 74.159 135.902 71.2138 131.497C68.0761 126.803 73.5159 120.316 79.6824 114.238C96.896 97.2739 137.949 57.3645 184.795 99.9139Z" fill="#FFB61D"/>
<path d="M220.269 105.322C219.333 105.838 217.731 105.321 216.852 105.78C215.076 106.706 213.304 104.918 211.447 105.583C210.261 106.007 209.098 106.412 207.864 106.548C206.999 106.642 206.155 107.203 205.296 107.228C204.105 107.264 203.126 107.876 202.193 108.665C201.325 109.4 200.541 110.304 199.691 111.079C199.385 111.357 199.006 111.571 198.639 111.646C198.095 111.758 196.764 111.714 196.21 111.748C195.238 111.808 194.266 111.925 193.294 111.926C192.321 111.928 178.701 115.813 177.14 116.833C177.027 116.907 176.901 116.949 176.781 117.006C176.846 116.892 176.898 116.761 176.976 116.667C177.724 115.76 178.39 115.173 179.248 114.504C180.383 113.621 181.645 112.974 182.9 112.4C183.889 111.948 184.947 111.742 185.979 111.46C186.897 111.209 187.816 110.95 188.744 110.792C189.856 110.604 190.976 110.455 192.095 110.411C193.016 110.376 193.948 110.649 194.86 110.554C196.2 110.414 198.309 110.146 199.622 109.77C200.111 109.629 200.652 109.15 200.942 108.616C201.518 107.557 202.32 106.892 203.161 106.447C203.927 106.041 204.836 106.096 205.68 105.934C206.466 105.784 207.251 105.625 208.034 105.452C208.705 105.303 209.392 105.213 210.036 104.947C210.889 104.595 211.7 104.07 212.543 103.671C212.988 103.461 213.489 103.439 213.921 103.2C215.049 102.575 232.192 98.364 233.916 99.0887C235.64 99.8133 232.994 101.754 232.192 101.674C231.377 101.593 230.546 101.749 229.725 101.841C228.796 101.945 227.857 102.012 226.946 102.246C226.06 102.475 225.193 102.858 224.335 103.242C223.461 103.633 222.608 104.103 221.749 104.549C221.277 104.795 220.812 105.063 220.269 105.322Z" fill="white"/>
<path d="M175.753 115.868C175.368 114.522 176.475 113.903 177.152 112.959C178.656 110.865 180.778 109.531 183.086 108.479C184.086 108.023 185.098 107.57 186.143 107.237C187.399 106.837 188.696 106.567 189.975 106.239C190.154 106.193 190.329 106.111 190.509 106.096C190.995 106.058 191.462 105.657 191.535 105.61C191.822 105.423 192.134 105.138 192.232 104.825C192.464 104.087 192.541 103.301 192.749 102.554C193.129 101.193 194.186 100.423 195.367 99.851C196.816 99.1485 198.305 98.5213 199.795 97.9083C201.672 97.1369 203.571 96.4214 205.453 95.666C207.208 94.9618 208.922 94.1322 210.719 93.5661C211.598 93.2892 212.626 93.4845 213.587 93.4728C213.622 93.4723 213.659 93.5434 213.694 93.5812C213.631 93.6318 213.576 93.7053 213.504 93.7296C211.58 94.379 209.642 94.9916 207.732 95.6794C206.415 96.1539 205.14 96.7471 203.834 97.2551C203.288 97.4674 202.688 97.5465 202.15 97.7732C201.022 98.248 199.926 98.7966 198.803 99.2841C197.977 99.6427 197.109 99.9069 196.298 100.295C195.201 100.821 194.049 101.352 193.688 102.669C193.554 103.159 193.743 103.756 193.557 104.211C193.298 104.845 192.924 105.502 192.422 105.954C191.391 106.884 190.072 107.282 188.729 107.586C187.911 107.772 187.12 108.087 186.298 108.235C184.64 108.535 183.117 109.186 181.656 109.973C179.639 111.059 177.665 112.237 176.568 114.256C176.271 114.803 176.147 115.444 175.936 116.04C175.913 116.104 175.84 116.15 175.791 116.204C175.791 116.105 175.791 116.005 175.753 115.868Z" fill="white"/>
<path d="M174.499 115.124C174.415 114.742 174.32 114.396 174.331 114.053C174.354 113.346 174.367 112.627 174.5 111.936C175.008 109.315 176.881 107.671 178.756 106.008C180.333 104.609 181.96 103.24 182.921 101.281C183.295 100.518 183.245 99.7683 183.225 98.9462C183.176 96.9938 182.106 95.6276 180.769 94.5005C179.397 93.3443 177.84 92.4011 176.327 91.4213C174.437 90.1967 172.829 88.7357 171.803 86.6834C171.188 85.4548 171.494 83.0147 172.508 82.0757C172.754 81.8485 173.143 81.6701 173.47 81.6646C173.844 81.6583 174.026 81.9943 173.938 82.3942C173.919 82.477 173.878 82.6012 173.819 82.6214C173.014 82.8942 172.23 84.9562 172.781 85.7375C173.179 86.3025 173.322 87.0757 173.784 87.5612C174.696 88.5197 175.729 89.369 176.75 90.2165C178.46 91.6346 180.25 92.9602 181.912 94.4309C183.155 95.5312 184.047 96.9695 184.401 98.5854C184.58 99.4018 184.42 100.365 184.03 101.202C183.238 102.902 182.003 104.215 180.585 105.428C178.907 106.864 177.051 108.177 175.983 110.181C175.504 111.081 175.18 112.112 175.024 113.12C174.903 113.904 175.158 114.746 175.229 115.564C175.239 115.679 175.156 115.802 175.115 115.922C175.022 115.851 174.904 115.796 174.84 115.704C174.722 115.535 174.636 115.343 174.499 115.124Z" fill="white"/>
<path fill-rule="evenodd" clip-rule="evenodd" d="M157.59 128.895V149.151L179.877 149.877H186.332V129.726H188.301L179.744 123.838C179.744 123.838 179.744 121.546 179.56 119.815C179.122 118.914 177.799 118.762 176.943 118.599C176.086 118.436 174.816 118.237 174.816 118.914C174.816 119.591 174.816 121.546 174.816 121.546L169.014 120.654L157.59 128.895Z" fill="white"/>
<path fill-rule="evenodd" clip-rule="evenodd" d="M175.982 149.75L179.877 149.877L178.725 127.782L176.327 126.022L175.982 149.75Z" fill="#E7EAEE"/>
<path fill-rule="evenodd" clip-rule="evenodd" d="M160.952 163.35C161.118 162.971 161.497 162.528 161.407 162.224C161.221 161.6 160.914 160.893 160.43 160.495C158.305 158.746 156.044 157.235 153.256 156.669C151.78 156.369 150.444 156.545 149.152 157.248C148.192 157.77 148.112 158.568 148.939 159.227C149.385 159.582 149.832 159.936 150.289 160.278C152.229 161.732 154.38 162.758 156.73 163.339C157.618 163.558 158.535 163.713 159.446 163.77C159.914 163.799 160.4 163.549 160.952 163.35Z" fill="white"/>
<path fill-rule="evenodd" clip-rule="evenodd" d="M167.51 121.643C165.5 121.592 153.592 130.605 153.327 130.453C153.061 130.301 164.669 121.533 166.354 120.362C167.227 119.755 168.134 119.787 169.051 120.435C170.329 121.338 178.246 126.367 179.311 126.869C180.537 127.446 187.836 129.129 187.457 129.594C187.241 129.716 186.163 129.813 185.835 129.769C185.741 129.757 185.553 129.842 185.542 129.904C185.214 131.86 185.765 147.67 185.841 148.465C185.855 148.613 186.006 148.789 186.142 148.877C186.696 149.237 187.307 149.196 187.941 149.221L188.047 149.225C189.163 149.284 190.173 149.049 191.116 148.56C192.348 147.922 193.525 147.179 194.718 146.469C195.973 145.722 197.213 144.949 198.473 144.21C200.216 143.187 202.116 142.512 204.003 141.831C205.147 141.419 206.362 141.193 207.557 140.939C208.592 140.718 209.643 140.575 210.687 140.398L210.712 140.396L211.735 140.422C211.586 140.111 211.451 139.793 211.286 139.491C210.713 138.442 210.102 137.412 209.557 136.348C208.915 135.095 208.375 133.788 207.705 132.55C206.201 129.77 204.658 127.01 203.106 124.256C201.631 121.638 200.127 119.038 198.631 116.432C198.434 116.089 198.208 115.764 198.008 115.423C197.957 115.337 197.955 115.221 197.931 115.119C198.018 115.185 198.129 115.235 198.19 115.32C198.933 116.351 199.707 117.362 200.397 118.427C202.348 121.435 204.302 124.443 206.18 127.497C207.169 129.105 208.006 130.807 208.905 132.47C209.527 133.62 210.153 134.77 210.748 135.934C211.053 136.53 211.295 137.158 211.566 137.772L212.005 138.776C212.226 139.278 212.45 139.778 212.691 140.27C212.743 140.375 213.08 140.444 213.224 140.384C214.844 139.711 216.517 139.127 218.048 138.286C220.485 136.949 222.792 135.374 225.222 134.023C226.34 133.401 227.592 132.947 228.838 132.653C229.694 132.452 230.576 132.301 231.568 132.533C233.177 132.908 234.644 133.608 236.196 134.086C237.249 134.411 238.341 134.448 239.479 134.361C241.663 134.193 243.328 132.915 245.177 132.029C246.401 131.442 247.584 130.767 248.78 130.123C251.443 128.691 254.098 127.247 256.763 125.821C258.37 124.96 259.989 124.123 261.603 123.276C261.766 123.19 261.922 123.084 262.094 123.025L262.269 122.965C262.425 122.914 262.59 122.872 262.645 122.927L262.705 122.988C262.985 123.282 263.132 123.595 262.567 123.879C261.311 124.507 260.074 125.172 258.835 125.832C257.224 126.69 255.622 127.562 254.011 128.418C252.463 129.241 250.905 130.047 249.357 130.87C247.726 131.738 246.104 132.621 244.473 133.489C243.437 134.041 242.445 134.783 241.338 135.063C240.332 135.318 239.316 135.804 238.148 135.439L238.027 135.399C236.59 134.881 235.03 134.716 233.569 134.255C232.406 133.888 231.226 133.636 230.043 133.73C228.679 133.838 227.29 134.058 225.99 134.473C223.899 135.141 222.13 136.438 220.39 137.759L219.878 138.147C218.397 139.264 216.878 140.33 215.046 140.847C214.574 140.98 214.106 141.132 213.645 141.302C213.61 141.315 208.466 141.468 202.921 143.39C197.657 145.215 191.976 148.813 191.991 148.849C192.376 149.817 217.275 148.084 217.867 148.136C218.598 148.201 219.331 148.244 220.064 148.286C220.336 148.302 220.61 148.275 220.882 148.291C221.591 148.333 222.298 148.393 223.006 148.435C223.278 148.451 223.552 148.425 223.824 148.44C224.557 148.482 225.289 148.542 226.022 148.584C226.294 148.6 226.568 148.573 226.84 148.589C227.548 148.631 228.255 148.69 228.963 148.733C229.21 148.748 229.46 148.724 229.707 148.738C230.441 148.78 231.173 148.836 231.906 148.879C232.153 148.893 232.402 148.872 232.649 148.886C233.406 148.93 234.163 148.988 234.921 149.031C235.168 149.045 235.418 149.021 235.665 149.036C236.398 149.078 237.13 149.135 237.863 149.178C238.11 149.192 238.36 149.17 238.607 149.184C239.364 149.228 240.121 149.285 240.878 149.329C241.126 149.343 241.375 149.331 241.623 149.331C242.252 149.331 242.881 149.316 243.509 149.338C243.813 149.349 244.112 149.452 244.416 149.476C245.197 149.538 245.979 149.582 246.762 149.627C246.984 149.64 247.209 149.618 247.431 149.631C248.189 149.675 248.946 149.731 249.703 149.776C249.87 149.785 250.038 149.782 250.206 149.779L250.373 149.778C250.977 149.778 251.583 149.746 252.185 149.784C253.394 149.861 254.601 149.991 255.81 150.071C256.888 150.142 257.969 150.172 259.049 150.225C259.955 150.27 260.861 150.327 261.767 150.372L263.063 150.438C263.711 150.471 264.359 150.501 265.007 150.518C266.22 150.55 267.434 150.545 268.647 150.566C268.718 150.567 268.844 150.645 268.848 150.695C268.882 151.059 268.89 151.424 268.907 151.789C268.714 151.764 268.522 151.725 268.328 151.716C267.24 151.661 266.15 151.636 265.064 151.558C264.151 151.492 263.245 151.325 262.332 151.278C261.375 151.228 260.412 151.275 259.453 151.26C259.249 151.257 259.05 151.143 258.844 151.122L257.515 150.977C256.924 150.915 256.333 150.859 255.741 150.831C254.684 150.781 253.622 150.837 252.564 150.811C252.166 150.802 251.773 150.677 251.375 150.638C251.059 150.607 250.738 150.637 250.421 150.619C250.075 150.6 249.731 150.553 249.386 150.523C248.252 150.422 247.12 150.282 245.984 150.236C244.753 150.186 243.518 150.242 242.286 150.216C241.79 150.205 241.296 150.095 240.801 150.035C240.469 149.995 240.137 149.954 239.803 149.928C239.096 149.873 238.389 149.823 237.681 149.78C237.433 149.765 237.184 149.789 236.937 149.776C236.129 149.732 235.323 149.659 234.516 149.637C234.11 149.626 233.701 149.733 233.294 149.726C232.628 149.714 231.963 149.643 231.296 149.615C230.862 149.597 230.425 149.632 229.991 149.607C229.225 149.564 228.462 149.481 227.696 149.44C227.23 149.415 226.761 149.446 226.295 149.434C225.944 149.425 225.593 149.367 225.243 149.373C225.024 149.377 224.805 149.46 224.586 149.508C224.71 149.613 224.832 149.72 224.958 149.823C226.311 150.929 227.654 152.049 229.021 153.136C230.566 154.364 232.143 155.552 233.689 156.779C235.038 157.849 236.362 158.951 237.702 160.034C238.146 160.393 238.601 160.738 239.051 161.088C239.326 161.302 239.289 161.416 238.996 161.53L238.952 161.546C237.96 161.905 236.997 162.355 235.987 162.649C235.091 162.909 234.145 162.998 233.225 163.181C232.409 163.343 231.604 163.561 230.784 163.694C230.266 163.778 229.728 163.739 229.2 163.777C228.715 163.811 228.229 163.854 227.748 163.927C227.02 164.037 226.301 164.21 225.571 164.294C224.948 164.365 224.315 164.335 223.687 164.373C223.152 164.404 222.616 164.448 222.086 164.523C221.309 164.632 220.54 164.809 219.761 164.892C219.088 164.964 218.404 164.919 217.727 164.971C217.008 165.026 216.293 165.153 215.574 165.215C214.617 165.298 213.657 165.341 212.699 165.416C212.444 165.435 212.196 165.541 211.941 165.555C210.804 165.616 209.665 165.651 208.528 165.713C208.15 165.734 207.776 165.828 207.398 165.854C206.468 165.916 205.537 165.981 204.605 166.002C201.814 166.064 199.022 166.126 196.23 166.146C195.059 166.154 193.886 165.985 192.719 166.028C191.7 166.065 190.711 166.033 189.698 165.887C188.758 165.751 187.779 165.905 186.823 165.843C186.042 165.793 185.271 165.601 184.492 165.493C183.565 165.364 182.633 165.266 181.707 165.131C181.59 165.114 181.385 164.915 181.402 164.871L181.556 164.479C182.048 163.239 182.589 162.029 183.467 160.982C184.548 159.693 185.832 158.675 187.277 157.848L187.475 157.736C188.006 157.442 188.53 157.13 189.082 156.882L189.911 156.507C190.558 156.217 191.21 155.939 191.883 155.735C192.965 155.407 194.095 155.236 195.202 154.987C195.829 154.846 196.446 154.659 197.077 154.543C198.013 154.37 198.96 154.257 199.898 154.091C200.602 153.966 201.303 153.817 201.997 153.644C202.917 153.415 203.836 153.177 204.742 152.899C206.637 152.32 208.494 151.649 210.104 150.443C210.188 150.38 210.288 150.337 210.38 150.284C210.26 150.215 210.147 150.121 210.018 150.083C209.904 150.049 209.772 150.075 209.648 150.075L208.109 150.077C207.853 150.077 207.597 150.076 207.34 150.075L194.902 149.998C190.756 149.973 186.61 149.951 182.463 149.935C180.772 149.928 179.08 150.07 177.389 150.065C175.076 150.058 172.764 149.982 170.453 149.925C168.86 149.885 167.268 149.804 165.675 149.788C164.877 149.78 164.078 149.925 163.28 149.917C161.489 149.898 159.698 149.834 157.908 149.776C156.737 149.738 155.567 149.645 154.396 149.64C153.474 149.636 152.551 149.762 151.629 149.767C150.88 149.771 150.131 149.647 149.383 149.655C149.227 149.656 148.906 150.064 148.947 150.155C149.444 151.262 148.836 152.148 148.301 152.947C147.245 154.525 145.731 155.525 143.892 156.075C142.833 156.392 141.804 156.816 140.772 157.222L140.384 157.373C138.398 158.142 136.809 159.338 136.224 161.502C135.929 162.597 135.75 163.684 135.917 164.87C136.284 167.487 137.569 169.574 139.269 171.465L139.394 171.603C140.322 172.618 141.226 173.666 142.246 174.583C144.327 176.455 146.426 178.313 148.616 180.053C150.757 181.754 152.97 183.377 155.246 184.891C157.208 186.197 159.291 187.324 161.346 188.486C162.668 189.232 164.018 189.935 165.388 190.588C166.539 191.136 167.744 191.571 168.913 192.08C169.948 192.531 170.947 193.066 171.997 193.475C173.448 194.041 174.922 194.55 176.403 195.032C177.741 195.467 179.092 195.867 180.453 196.221C181.618 196.523 182.809 196.722 183.982 196.995C185.497 197.348 186.999 197.753 188.516 198.091C189.668 198.347 190.832 198.549 191.996 198.745C193.046 198.921 194.101 199.069 195.157 199.205C196.074 199.323 196.993 199.425 197.914 199.501C198.802 199.575 199.695 199.587 200.582 199.661C201.495 199.736 202.402 199.873 203.314 199.945C203.747 199.979 204.186 199.913 204.622 199.915C205.592 199.92 206.564 199.925 207.534 199.959C208.134 199.979 208.733 200.088 209.333 200.095C211.02 200.115 212.708 200.102 214.395 200.102C215.223 200.102 216.052 200.141 216.877 200.092C217.781 200.038 218.701 199.74 219.578 199.846C220.647 199.976 221.646 199.819 222.675 199.667C223.145 199.598 223.637 199.693 224.113 199.648C225.484 199.52 226.851 199.327 228.223 199.218C229.416 199.124 230.617 199.133 231.81 199.05C232.427 199.007 233.034 198.842 233.649 198.768C234.263 198.693 234.885 198.683 235.499 198.608C236.146 198.529 236.793 198.434 237.43 198.296C238.695 198.023 239.963 197.754 241.209 197.41C242.121 197.158 243 196.788 243.896 196.477C243.952 196.457 244.06 196.471 244.084 196.508C244.115 196.556 244.115 196.672 244.078 196.709C243.541 197.259 243.026 197.838 242.435 198.327C242.258 198.473 241.981 198.515 241.713 198.543L241.477 198.567C240.711 198.651 239.933 198.655 239.173 198.775C238.402 198.896 237.654 199.161 236.883 199.284C236.101 199.408 235.303 199.432 234.513 199.509C234.127 199.546 233.742 199.597 233.359 199.657C232.435 199.801 231.515 199.979 230.588 200.095C229.565 200.224 228.535 200.294 227.509 200.403C226.911 200.466 226.318 200.577 225.719 200.63C224.715 200.718 223.709 200.769 222.704 200.851C222.425 200.873 222.152 200.965 221.872 200.992L220.764 201.101C220.025 201.173 219.286 201.241 218.545 201.285C217.795 201.329 217.04 201.277 216.287 201.297C214.843 201.334 213.4 201.434 211.957 201.431C210.306 201.429 208.654 201.366 207.005 201.286C205.746 201.224 204.491 201.068 203.231 201.004C202.323 200.959 201.409 201.034 200.501 200.984C199.761 200.943 199.029 200.782 198.29 200.702C197.626 200.631 196.957 200.605 196.292 200.546C195.881 200.51 195.468 200.469 195.063 200.395C194.575 200.305 194.096 200.173 193.61 200.069C193.168 199.974 192.725 199.882 192.279 199.807C191.465 199.669 190.65 199.533 189.832 199.421C189.169 199.33 188.494 199.309 187.836 199.194C187.284 199.098 186.748 198.908 186.205 198.762L183.627 198.07C183.197 197.956 182.767 197.842 182.337 197.729C181.141 197.417 179.925 197.167 178.746 196.801C177.006 196.261 175.29 195.643 173.563 195.058C172.213 194.601 170.849 194.182 169.517 193.677L168.937 193.455C167.969 193.082 167.006 192.687 166.103 192.189L163.034 190.502C160.478 189.093 157.931 187.667 155.456 186.125C152.843 184.497 150.414 182.568 147.932 180.733C145.19 178.705 142.794 176.288 140.449 173.831L140.09 173.451C138.42 171.674 136.861 169.793 135.819 167.555L135.709 167.314C135.334 166.47 134.83 165.582 134.809 164.704C134.761 162.737 135.126 160.843 136.597 159.303C137.764 158.083 139.177 157.279 140.628 156.52L141.577 156.029C143.276 155.147 144.992 154.289 146.645 153.327C147.233 152.985 147.746 152.428 148.136 151.86C148.563 151.239 148.194 150.406 147.442 150.24C146.15 149.955 144.844 149.697 143.53 149.559C141.717 149.37 139.892 149.296 138.071 149.193C137.913 149.185 137.666 149.29 137.596 149.417C136.626 151.177 135.107 152.27 133.257 152.888C131.823 153.367 130.331 153.669 128.882 154.105C127.798 154.431 126.759 154.916 125.666 155.201C124.202 155.583 122.924 156.332 121.794 157.249L121.471 157.516C120.081 158.682 118.838 160.01 118.491 161.945C118.232 163.387 118.305 164.752 118.736 166.192C119.361 168.28 120.649 169.861 122.065 171.392C122.772 172.157 123.524 172.881 124.272 173.606C126.585 175.847 129.086 177.851 131.704 179.732C134.789 181.949 138.046 183.843 141.418 185.581L142.213 185.987C144.157 186.976 146.113 187.964 147.818 189.374C149.187 190.505 150.429 191.748 151.248 193.322L151.518 193.842C151.944 194.678 152.347 195.567 152.371 196.434L152.384 196.936C152.402 197.724 152.388 198.55 152.145 199.382C151.297 202.285 149.409 204.41 147.297 206.366C145.132 208.371 142.713 210.06 140.123 211.492C139.068 212.076 138.057 212.746 136.975 213.272C135.94 213.775 134.834 214.13 133.768 214.573C132.546 215.08 131.358 215.677 130.114 216.117C128.35 216.741 126.547 217.252 124.763 217.822C123.624 218.186 122.5 218.602 121.352 218.933C119.943 219.34 118.512 219.669 117.098 220.058C116.173 220.312 115.268 220.645 114.339 220.884C113.175 221.184 111.992 221.411 110.823 221.695C109.698 221.968 108.587 222.301 107.458 222.556C106.03 222.879 104.591 223.158 103.154 223.441C101.874 223.693 100.59 223.93 99.306 224.164C98.165 224.371 97.0212 224.563 95.879 224.765C95.5714 224.819 95.2633 224.929 94.9593 224.917C94.8294 224.912 94.7205 224.647 94.5818 224.523C94.3857 224.347 94.1708 224.193 93.9639 224.029C94.2498 223.994 94.5397 223.979 94.8209 223.921C95.757 223.728 96.6867 223.502 97.625 223.321C98.7249 223.108 99.8356 222.949 100.933 222.726C101.728 222.565 102.504 222.313 103.297 222.143C104.336 221.921 105.389 221.766 106.425 221.534C107.182 221.364 107.919 221.101 108.672 220.911C109.223 220.772 109.794 220.71 110.343 220.565C111.258 220.324 112.157 220.022 113.073 219.787C113.989 219.551 114.925 219.391 115.841 219.153C116.801 218.904 117.742 218.58 118.7 218.327C119.8 218.037 120.919 217.814 122.015 217.512C122.662 217.334 123.274 217.031 123.917 216.834C125.021 216.497 126.153 216.245 127.244 215.874C128.83 215.335 130.393 214.728 131.962 214.138L133.028 213.738C133.739 213.47 134.448 213.196 135.148 212.902C138.569 211.464 141.813 209.713 144.697 207.352L145.381 206.791C146.292 206.041 147.194 205.277 148.028 204.447C149.233 203.249 150.277 201.888 150.865 200.272C151.209 199.325 151.511 198.309 151.537 197.316C151.561 196.387 151.294 195.457 150.933 194.524C150.411 193.177 149.637 192.08 148.566 191.253C147.111 190.129 145.535 189.152 143.957 188.201C140.427 186.074 136.784 184.124 133.342 181.866C131.026 180.348 128.911 178.518 126.764 176.752L126.361 176.422C124.951 175.272 123.563 174.08 122.289 172.784C120.53 170.994 118.863 169.13 117.903 166.719C117.428 165.526 117.273 164.371 117.325 163.116C117.442 160.338 119.02 158.464 120.989 156.753C122.862 155.126 125.074 154.217 127.391 153.507C128.82 153.07 130.277 152.724 131.711 152.303C132.949 151.941 134.189 151.573 135.394 151.119C135.768 150.978 136.185 150.602 136.316 150.237C136.587 149.478 136.162 149.111 135.338 149.109C134.659 149.107 133.981 148.946 133.3 148.889C132.462 148.82 131.618 148.814 130.781 148.727C130.024 148.648 129.277 148.461 128.52 148.388C127.75 148.313 126.973 148.323 126.199 148.284C126.063 148.278 125.932 148.198 125.795 148.187C124.887 148.116 123.976 148.076 123.071 147.985C122.262 147.903 121.461 147.742 120.651 147.663C119.909 147.591 119.16 147.582 118.414 147.544C118.319 147.539 118.224 147.524 118.129 147.515C117.181 147.425 116.231 147.354 115.286 147.241C114.481 147.146 113.685 146.971 112.879 146.891C112.158 146.819 111.429 146.829 110.704 146.798C110.587 146.793 110.473 146.751 110.356 146.741C109.404 146.66 108.451 146.595 107.501 146.498C106.737 146.42 105.979 146.284 105.216 146.21C104.452 146.135 103.684 146.112 102.919 146.05C102.739 146.036 102.565 145.924 102.385 145.912C101.496 145.851 100.602 145.839 99.7166 145.748C98.9361 145.669 98.1673 145.474 97.3868 145.395C96.6653 145.322 95.9346 145.343 95.2089 145.305C95.0536 145.297 94.9045 145.178 94.7488 145.168C93.8349 145.107 92.9195 145.069 92.0056 145.01C91.7303 144.992 91.4587 144.918 91.1835 144.9C91.1263 144.897 91.0605 145.03 90.9987 145.1L91.13 145.144C91.152 145.15 91.1742 145.156 91.1966 145.161C91.9631 145.329 92.7362 145.472 93.4951 145.669C94.3964 145.903 95.3 146.143 96.1772 146.453C99.2765 147.545 102.198 148.978 104.296 151.601C105.09 152.593 105.602 153.826 106.154 154.99C106.444 155.601 106.66 156.293 106.703 156.962C106.771 158.007 106.667 159.063 106.629 160.114C106.605 160.786 106.606 161.462 106.529 162.128C106.454 162.773 106.303 163.409 106.171 164.046L105.809 165.802C105.628 166.68 105.442 167.557 105.24 168.431C105.082 169.117 104.806 169.777 104.632 170.46C104.453 171.159 104.353 171.878 104.18 172.579C103.981 173.389 103.729 174.185 103.519 174.992C103.288 175.877 103.098 176.774 102.853 177.655L102.709 178.171C102.562 178.687 102.405 179.201 102.208 179.697L102.106 179.944C101.965 180.27 102.019 180.284 102.246 180.299L102.319 180.304C103.672 180.401 105.034 180.441 106.372 180.642C107.366 180.791 108.328 181.15 109.303 181.422C110.082 181.639 110.858 181.864 111.635 182.087C111.701 182.106 111.764 182.135 111.829 182.159C111.766 182.185 111.704 182.232 111.641 182.232C111.028 182.238 110.41 182.289 109.804 182.223C108.811 182.117 107.815 181.98 106.84 181.766C106.141 181.613 105.484 181.281 104.79 181.094C104.459 181.005 104.082 181.026 103.735 181.071L103.244 181.133C102.671 181.207 102.098 181.291 101.547 181.446C100.64 181.702 100.199 182.463 99.7969 183.219L99.6637 183.47C98.5159 185.627 97.4119 187.807 96.2765 189.97C95.0012 192.4 93.7097 194.821 92.4273 197.247L92.3239 197.449C91.8673 198.363 91.5113 199.353 90.5326 199.877C90.3261 199.987 90.031 199.932 89.7767 199.953C89.8004 199.762 89.7686 199.539 89.8564 199.384C90.7901 197.734 91.7453 196.096 92.6896 194.452C93.5528 192.949 94.4467 191.462 95.2611 189.933C96.5045 187.598 97.7451 185.259 98.8843 182.873C99.7598 181.039 100.496 179.137 101.26 177.251L101.74 176.069C102.299 174.689 102.85 173.304 103.325 171.896C103.874 170.27 104.276 168.595 104.717 166.935C104.98 165.947 105.279 164.957 105.409 163.949L105.497 163.271C105.686 161.801 105.858 160.32 105.831 158.849C105.807 157.566 105.55 156.225 105.095 155.025C104.114 152.437 102.298 150.47 99.9325 149.04C98.3751 148.098 96.7475 147.314 94.9406 146.929C93.93 146.713 92.9627 146.296 91.9529 146.076C91.1026 145.89 90.22 145.787 89.3499 145.775C88.1222 145.757 86.8931 145.871 85.664 145.902C84.7542 145.925 83.8416 145.872 82.9337 145.92C82.3919 145.948 81.8568 146.105 81.3186 146.204C80.5111 146.353 79.6927 146.459 78.8982 146.66C77.2473 147.077 75.5701 147.436 73.9732 148.012C69.8679 149.493 66.0171 151.507 62.4385 154.003C60.0144 155.694 57.7512 157.599 55.7525 159.787C53.6032 162.139 51.7564 164.711 50.5009 167.658C50.0128 168.804 49.6252 169.997 49.2671 171.191C49.0132 172.038 48.7787 172.916 48.7287 173.791C48.6661 174.889 48.8091 175.998 48.8472 177.103C48.8666 177.666 48.8119 178.233 48.8618 178.791C48.9088 179.318 49.0094 179.847 49.1579 180.355C49.3685 181.074 49.6367 181.777 49.8941 182.482C51.3125 186.367 53.7403 189.389 57.495 191.231C58.3451 191.648 59.2651 191.954 60.1843 192.188C60.8041 192.346 61.3649 192.168 61.735 191.482C63.1931 188.779 65.1064 186.453 67.7028 184.767C69.0207 183.912 70.4085 183.163 71.7773 182.388C72.9182 181.742 74.1639 181.408 75.451 181.183C76.2412 181.045 77.0056 180.704 77.7967 180.64C78.6912 180.567 79.6025 180.702 80.5066 180.746L80.7299 180.747C82.1075 180.796 83.4883 180.927 84.8616 180.871C86.1125 180.821 87.3198 180.584 88.5314 180.072C90.279 179.335 91.1634 178.083 91.6094 176.392L91.8884 175.29C92.0524 174.637 92.2072 173.983 92.3064 173.321C92.4142 172.603 92.2672 171.847 92.3642 171.125C92.4997 170.117 92.6945 169.106 92.9809 168.131C93.1977 167.393 93.5614 166.7 93.863 165.985L93.9609 165.747C94.5791 164.188 95.6445 162.928 96.8076 161.788C98.1831 160.441 99.7519 159.322 101.624 158.706C102.357 158.465 103.067 158.153 103.797 157.9C103.907 157.862 104.068 157.969 104.205 158.009L104.044 158.116C104.017 158.133 103.99 158.15 103.962 158.167L103.469 158.454C100.922 159.942 98.4177 161.492 96.4553 163.754L96.2591 163.981C95.5099 164.855 94.8041 165.765 94.5181 166.944C94.323 167.748 93.8784 168.501 93.7445 169.31C93.5671 170.381 93.5899 171.485 93.5124 172.574C93.496 172.804 93.4009 173.028 93.3714 173.258C93.2571 174.148 93.2839 175.08 93.0213 175.922C92.4604 177.721 91.5228 179.325 89.8154 180.285C88.8925 180.805 87.922 181.317 86.9076 181.573C86.001 181.803 85.0212 181.772 84.0657 181.779L83.8614 181.781C82.017 181.808 80.1718 181.774 78.3272 181.792C75.9269 181.816 73.5616 182.165 71.3857 183.185C68.8474 184.374 66.586 185.971 64.8088 188.212C63.6531 189.67 62.6064 191.173 62.0498 192.954C61.8165 193.701 61.1949 193.553 60.813 193.484L60.4197 193.412C59.4996 193.237 58.5677 193.014 57.7461 192.604C56.4286 191.947 55.1389 191.166 53.9966 190.241C52.0091 188.632 50.3699 186.671 49.3792 184.291C48.7373 182.75 48.2039 181.133 47.88 179.498C47.6555 178.365 47.8438 177.157 47.8043 175.981L47.7931 175.746C47.7217 174.596 47.9129 173.5 48.1872 172.405L48.2395 172.199C48.6022 170.801 48.8243 169.349 49.3503 168.015C49.8349 166.787 50.5678 165.654 51.2421 164.504L51.3856 164.257C52.7697 161.854 54.5366 159.742 56.5251 157.83C59.0987 155.355 61.959 153.24 65.0309 151.418L66.2829 150.673C67.1189 150.178 67.9606 149.693 68.8265 149.257C69.807 148.764 70.8425 148.377 71.8699 147.98L72.2119 147.847C73.1025 147.498 74.0012 147.165 74.9128 146.877C76.174 146.478 77.4462 146.112 78.7224 145.763C79.6185 145.519 80.5208 145.277 81.4353 145.125C82.5472 144.939 83.677 144.863 84.795 144.711C85.7086 144.586 86.6165 144.419 87.5263 144.267C87.5883 144.256 87.6452 144.215 87.7045 144.188C87.6395 144.166 87.5729 144.119 87.5098 144.124C86.8848 144.167 86.259 144.272 85.636 144.257C84.596 144.232 83.5577 144.136 82.5192 144.063C82.3077 144.048 82.0985 143.977 81.8879 143.975C80.738 143.966 79.5877 143.988 78.4382 143.965C77.7632 143.951 77.0901 143.843 76.4151 143.829C75.2905 143.805 74.1646 143.839 73.0399 143.816C72.3649 143.801 71.6919 143.694 71.0169 143.68C70.1371 143.661 69.2566 143.668 68.3763 143.672L67.716 143.673C66.6157 143.673 65.5136 143.712 64.4155 143.662C63.4862 143.619 62.5636 143.434 61.6343 143.39C61.0382 143.362 60.4344 143.525 59.8358 143.513C58.7682 143.492 57.7025 143.388 56.6349 143.349C56.0024 143.327 55.3666 143.393 54.7344 143.366C53.6706 143.322 52.6084 143.239 51.546 143.165C51.334 143.151 51.1241 143.083 50.913 143.082C49.6141 143.074 48.315 143.094 47.0165 143.071C46.3416 143.059 45.6685 142.949 44.9935 142.935C43.844 142.912 42.6937 142.929 41.5437 142.929L39.1941 142.929C38.8025 142.929 38.4109 142.93 38.0194 142.932C37.9088 142.933 37.7985 142.981 37.6881 143.007L37.8936 143.111C37.9277 143.129 37.9614 143.147 37.9946 143.166C40.3737 144.537 42.5325 146.19 44.3846 148.222C45.6242 149.582 46.7571 151.027 47.4352 152.763C47.7527 153.576 48.067 154.401 48.2616 155.248C48.3794 155.761 48.2144 156.332 48.2676 156.868C48.3378 157.576 48.2072 158.238 47.9532 158.88C47.1698 160.857 45.8394 162.358 44.0331 163.488C42.8118 164.252 41.5323 164.851 40.1261 165.108C39.0281 165.31 37.9057 165.416 36.7896 165.47C35.7938 165.518 34.7855 165.495 33.7941 165.393C32.9472 165.306 32.12 165.041 31.2775 164.892C30.376 164.733 29.4634 164.637 28.562 164.477C27.9846 164.375 27.4232 164.185 26.8466 164.076C25.6356 163.848 24.4157 163.667 23.2068 163.43C22.6133 163.313 22.0382 163.105 21.4509 162.954L21.153 162.876C20.9536 162.826 20.7529 162.78 20.5513 162.755L20.3999 162.741C19.909 162.711 19.6176 162.29 19.8256 161.822C19.8355 161.799 19.9701 161.82 20.0418 161.839C20.653 162.001 21.2618 162.172 21.8739 162.329L23.3672 162.714C23.8653 162.842 24.364 162.966 24.8642 163.084C26.1034 163.376 27.3444 163.663 28.5921 163.916C29.3422 164.067 30.099 164.19 30.857 164.3L31.9064 164.447C32.6006 164.544 33.297 164.633 33.9938 164.65C34.9477 164.674 35.9044 164.553 36.8607 164.522C37.5966 164.499 38.3363 164.554 39.0697 164.505C39.5626 164.472 40.0697 164.379 40.5316 164.208C41.6385 163.798 42.7395 163.363 43.8116 162.871C45.117 162.271 46.0769 161.21 46.9814 160.149C47.2987 159.776 47.3071 159.089 47.3185 158.543C47.3214 158.406 46.8046 158.2 46.502 158.126C45.182 157.803 43.8436 157.553 42.5302 157.206C41.4867 156.932 40.475 156.538 39.4394 156.231C38.6735 156.003 37.8866 155.847 37.1188 155.625C35.9652 155.292 35.2794 154.319 35.369 153.197C35.3703 153.181 35.3183 153.158 35.3213 153.145C35.4949 152.391 35.1454 152.213 34.2275 152.392C33.4121 152.551 32.5631 152.534 31.7304 152.61C31.2976 152.65 30.8628 152.698 30.438 152.786C29.4121 153 28.3991 153.373 27.3669 153.431C26.258 153.493 25.1338 153.232 24.2363 152.474C23.3092 151.692 22.4146 150.87 21.5139 150.057C20.8429 149.451 20.1838 148.832 19.5224 148.215C19.4194 148.119 19.3324 148.006 19.238 147.9C19.422 147.897 19.6664 147.814 19.7802 147.902C20.5524 148.496 21.3852 149.046 22.0298 149.762L22.5063 150.292C23.3044 151.17 24.1411 151.993 25.3069 152.321C26.2321 152.581 27.2499 152.612 28.2211 152.581C29.1402 152.552 30.0603 152.344 30.9653 152.148C31.5359 152.024 32.1052 151.853 32.6466 151.63L32.8483 151.545C33.8822 151.09 35.0584 151.169 35.8647 151.945L36.1399 152.224C36.4067 152.5 36.6708 152.825 36.5881 153.282L36.5721 153.355C36.5419 153.473 36.556 153.613 36.4968 153.711L36.3478 153.962C36.0984 154.396 36.1508 154.46 36.7043 154.634L36.8856 154.69C38.0317 155.041 39.1714 155.417 40.3291 155.725C41.5955 156.061 42.8864 156.305 44.1531 156.641C45.0484 156.878 45.9227 157.195 46.8033 157.486C47.1663 157.605 47.6237 157.181 47.6532 156.632C47.6821 156.096 47.7587 155.532 47.6357 155.024C47.461 154.301 47.2243 153.556 46.8369 152.929C45.1899 150.266 43.2817 147.793 40.9463 145.697C39.4985 144.398 35.1384 141.99 31.7187 141.272C28.2991 140.554 22.922 140.959 21.8739 141.569C20.8258 142.179 19.252 142.881 18.5529 143.067C18.4925 143.083 18.3537 143.008 18.336 142.949C18.1367 142.29 18.6233 141.98 19.0648 141.751C20.1068 141.212 21.1745 140.718 22.2532 140.256C23.675 139.646 25.2228 139.567 26.726 139.397C27.5427 139.305 28.4107 139.623 29.2496 139.786C30.078 139.947 30.9096 140.109 31.7187 140.343C32.1551 140.47 32.5487 140.746 32.959 140.959C34.589 141.807 36.1596 141.769 37.7284 140.752C38.2243 140.431 38.8686 140.348 39.4057 140.079C41.7556 138.898 44.0931 137.692 46.431 136.488C48.7085 135.315 50.981 134.131 53.2561 132.954C53.5454 132.804 53.8445 132.671 54.1223 132.503C54.1681 132.475 54.1707 132.247 54.1189 132.206C53.0362 131.355 51.9549 130.502 50.8491 129.681C48.6311 128.036 46.3659 126.452 44.1852 124.759C42.9952 123.835 41.8737 122.802 40.8345 121.71C38.546 119.306 36.3735 116.791 34.0702 114.402C32.0517 112.309 29.9394 110.303 27.8089 108.323C27.576 108.106 26.7741 108.129 26.5346 108.356C25.3809 109.449 24.3287 110.649 23.2428 111.813C23.1289 111.935 23.04 112.081 22.922 112.198C22.8534 112.266 22.75 112.299 22.6623 112.348C22.6569 112.251 22.6308 112.15 22.6494 112.058C22.7923 111.349 22.8063 110.569 23.1316 109.955C23.4547 109.345 25.8245 106.874 27.0228 106.874C28.2211 106.874 38.8959 118.04 38.8959 118.04C40.516 119.803 42.15 121.552 43.8565 123.228C46.4935 125.816 49.3133 128.215 52.3797 130.301C53.8171 131.278 55.4238 131.746 57.1463 131.588C57.9687 131.512 58.7547 131.093 59.5782 130.959C60.369 130.831 61.1874 130.875 61.9931 130.833C63.0133 130.781 63.9721 131.061 64.9502 131.299C66.1304 131.586 67.2523 131.994 68.3521 132.501C71.1332 133.783 73.5119 135.684 76.0189 137.394C78.0176 138.757 80.052 140.081 82.1558 141.272C83.325 141.934 84.6436 142.373 85.9414 142.754C87.0472 143.079 88.2203 143.173 89.362 143.378C89.7127 143.441 90.0555 143.549 90.4063 143.611L91.592 143.824C92.1851 143.929 92.7789 144.029 93.3748 144.115C94.5761 144.286 95.7826 144.422 96.9879 144.565C98.2911 144.72 99.5952 144.866 100.899 145.013C101.818 145.115 102.737 145.211 103.656 145.311C104.55 145.409 105.442 145.54 106.339 145.601C107.508 145.682 108.682 145.684 109.851 145.767C110.542 145.816 111.223 145.985 111.914 146.048C112.776 146.128 113.643 146.148 114.507 146.21C114.688 146.223 114.862 146.336 115.042 146.348C116.006 146.409 116.974 146.413 117.933 146.514C118.805 146.605 119.662 146.853 120.534 146.925C121.437 147 122.351 146.938 123.26 146.955C123.439 146.959 123.614 147.083 123.795 147.092C124.932 147.153 126.07 147.192 127.208 147.252C127.388 147.262 127.561 147.371 127.742 147.391C128.701 147.499 129.66 147.635 130.622 147.682C131.63 147.732 132.641 147.684 133.651 147.7C133.879 147.704 134.104 147.815 134.334 147.838C135.417 147.946 136.5 148.084 137.586 148.128C138.817 148.178 140.052 148.13 141.284 148.147C141.612 148.151 141.937 148.258 142.265 148.285L143.833 148.415C144.618 148.479 145.402 148.537 146.188 148.578C147.013 148.622 147.842 148.569 148.669 148.59C150.072 148.626 151.474 148.697 152.877 148.731C153.778 148.753 154.681 148.759 155.581 148.714C155.745 148.706 156.022 148.418 156.027 148.254C156.041 147.73 156.39 131.036 156.355 130.534C156.349 130.443 156.436 130.345 156.479 130.25C156.535 130.333 156.632 130.412 156.64 130.499C156.701 131.214 157.043 147.28 157.045 148.578C157.045 148.631 157.322 148.734 157.466 148.727C158.091 148.697 177.068 148.816 177.957 148.756C178.31 148.732 178.581 148.628 178.54 148.161C178.465 147.29 178.53 127.782 178.53 127.782C178.53 127.782 170.146 121.71 167.51 121.643ZM216.179 149.361C215.255 149.48 214.372 149.958 213.45 150.036C212.262 150.137 211.305 150.748 210.28 151.188C208.65 151.888 207.096 152.764 205.472 153.481C204.76 153.794 203.953 153.886 203.195 154.1C202.858 154.196 202.016 154.393 201.972 154.401L200.971 154.566C200.47 154.651 199.971 154.74 199.475 154.845C198.238 155.107 197.007 155.394 195.778 155.689C194.762 155.932 193.755 156.211 192.739 156.454L192.129 156.594C190.292 157 188.578 157.709 187.008 158.722C185.215 159.88 183.642 161.278 182.694 163.257C182.342 163.994 182.529 164.422 183.264 164.518C183.482 164.547 183.7 164.586 183.918 164.617C184.395 164.684 184.871 164.77 185.35 164.811C186.139 164.878 186.931 164.912 187.721 164.965C188.396 165.011 189.069 165.086 189.744 165.107C190.545 165.132 191.349 165.098 192.151 165.116C193.867 165.156 195.583 165.237 197.3 165.252C198.197 165.26 199.094 165.134 199.992 165.12C201.464 165.096 202.937 165.133 204.409 165.108C205.206 165.094 206.002 165.065 206.799 165.032L208.392 164.962C209.298 164.923 210.206 164.884 211.11 164.81C212.046 164.734 212.981 164.622 213.915 164.514C214.12 164.49 214.319 164.386 214.524 164.374C215.561 164.313 216.601 164.275 217.638 164.214C217.819 164.204 217.994 164.083 218.173 164.078C218.883 164.059 219.6 164.122 220.303 164.047C221.027 163.971 221.733 163.714 222.457 163.638C223.472 163.531 224.499 163.54 225.517 163.457C226.193 163.402 226.862 163.271 227.534 163.178C228.012 163.112 228.496 163.076 228.969 162.984C229.469 162.886 229.952 162.701 230.453 162.621C231.592 162.438 232.737 162.292 233.88 162.136C234.659 162.03 235.444 161.959 236.217 161.819C236.742 161.724 237.253 161.543 237.764 161.38C237.803 161.367 237.837 161.14 237.794 161.101C237.291 160.653 236.782 160.21 236.257 159.787C234.233 158.151 232.198 156.527 230.174 154.889C228.537 153.563 226.967 152.147 225.262 150.916C223.987 149.995 222.889 150.165 222.25 151.132L222.076 151.392C221.436 152.339 220.748 153.208 219.725 153.781C219.63 153.834 219.571 153.952 219.496 154.039C219.616 154.108 219.746 154.246 219.856 154.232C220.343 154.171 220.823 154.023 221.31 153.993C221.558 153.978 221.824 154.134 222.063 154.25C222.092 154.264 222.054 154.545 221.973 154.64C220.388 156.504 218.303 157.575 216.023 158.302C215.079 158.603 214.092 158.767 213.135 159.032C212.39 159.238 211.671 159.547 210.922 159.734C210.074 159.946 209.208 160.083 208.346 160.235C207.764 160.338 207.174 160.395 206.592 160.502C205.842 160.639 205.099 160.819 204.349 160.955C203.877 161.04 203.399 161.098 202.921 161.134C202.102 161.196 201.281 161.258 200.459 161.27C199.38 161.286 198.299 161.258 197.219 161.238C197.055 161.235 196.891 161.173 196.727 161.138C196.949 161.073 197.167 160.982 197.393 160.95C197.758 160.899 198.13 160.894 198.497 160.855C199.021 160.798 199.542 160.718 200.066 160.668C200.64 160.613 201.221 160.615 201.791 160.532C202.66 160.405 203.518 160.208 204.387 160.078C205.148 159.964 205.922 159.934 206.681 159.808C207.323 159.702 207.946 159.486 208.586 159.364C209.364 159.215 210.161 159.158 210.931 158.98C211.816 158.774 212.691 158.509 213.552 158.215C214.565 157.869 215.558 157.463 216.561 157.087C217.667 156.672 218.779 156.273 219.879 155.841C220.115 155.748 220.307 155.546 220.52 155.395C220.21 155.259 219.906 155.108 219.587 155C219.505 154.972 219.382 155.089 219.272 155.117C218.829 155.228 218.387 155.386 217.937 155.419C217.538 155.448 217.082 155.361 217.108 154.796C217.118 154.571 217.217 154.206 217.363 154.154C219.385 153.447 220.795 152.018 221.972 150.313C222.047 150.203 221.967 149.823 221.891 149.8C221.417 149.659 220.927 149.539 220.435 149.5C219.801 149.45 219.159 149.5 218.521 149.475C217.738 149.445 216.942 149.263 216.179 149.361ZM179.311 127.782L179.348 128.334C179.424 129.567 179.736 146.453 179.827 147.47C179.844 147.663 180.158 148.026 180.332 148.05C180.926 148.135 184.786 149.031 184.786 147.47C184.737 145.16 184.844 129.413 184.765 129.392C184.026 129.192 179.484 127.819 179.311 127.782ZM59.1117 131.883C57.4777 132.351 55.8562 132.903 54.2941 133.571C52.5015 134.337 50.7662 135.242 49.03 136.134C47.0024 137.175 45.0025 138.27 42.9869 139.335C42.3973 139.647 41.8019 139.949 41.1972 140.23C40.2125 140.686 39.2172 141.12 38.2287 141.569C38.1378 141.61 38.0636 141.688 37.9817 141.749C38.0746 141.795 38.1638 141.87 38.2609 141.882L39.112 141.99C39.6795 142.062 40.2475 142.129 40.8172 142.173C41.1368 142.198 41.4673 142.049 41.7911 142.057C42.7241 142.078 43.6564 142.135 44.5886 142.186C44.9239 142.205 45.2577 142.249 45.5926 142.276C46.4572 142.346 47.3209 142.436 48.1869 142.476C49.2508 142.525 50.3167 142.532 51.4561 142.631C52.4033 142.581 53.3522 142.47 54.2971 142.498C55.4983 142.533 56.6947 142.716 57.8961 142.766C58.567 142.794 59.2459 142.619 59.9174 142.643C61.8126 142.709 63.7049 142.882 65.6 142.913C67.2404 142.94 68.8828 142.797 70.5247 142.787C73.8986 142.764 77.2728 142.771 80.6467 142.787C81.4202 142.79 82.1931 142.884 82.967 142.922C83.057 142.926 83.1515 142.836 83.2439 142.79C83.1832 142.737 83.1288 142.674 83.061 142.632C80.942 141.34 78.8201 140.053 76.7022 138.759C74.902 137.659 73.1359 136.498 71.3084 135.448L70.6968 135.102C68.7502 134.021 67.0467 132.462 64.7815 131.988C63.8962 131.802 63.0083 131.512 62.1181 131.498C61.1155 131.483 60.075 131.607 59.1117 131.883Z" fill="#00160A"/>
<path fill-rule="evenodd" clip-rule="evenodd" d="M75.2411 122.717C76.3837 121.128 77.4261 119.526 78.6088 118.035C80.5027 115.648 82.4736 113.321 84.4441 110.996C85.4044 109.863 86.4205 108.775 87.4416 107.696C88.8641 106.192 90.243 104.636 91.7703 103.245C94.2322 101.002 96.7882 98.8613 99.3263 96.7032C102.198 94.2613 105.354 92.2142 108.586 90.2977C110.342 89.256 112.204 88.3843 114.049 87.4994C115.374 86.8637 116.744 86.319 118.104 85.7595C119.441 85.2099 120.776 84.6494 122.139 84.1753C123.214 83.8016 124.325 83.5197 125.433 83.2559C126.607 82.9766 127.795 82.7541 128.981 82.5309C129.93 82.3523 130.883 82.1921 131.838 82.0567C132.751 81.9275 133.669 81.8209 134.587 81.7412C135.466 81.665 136.349 81.5906 137.23 81.5971C138.624 81.6074 140.018 81.727 141.412 81.7217C142.424 81.7179 143.416 81.7163 144.434 81.8303C145.447 81.9439 146.467 82.0635 147.485 82.1493C148.51 82.2358 149.503 82.3905 150.505 82.6084C151.418 82.807 152.39 82.7441 153.299 82.9561C154.599 83.2593 155.86 83.7222 157.145 84.0905C158.478 84.4726 159.837 84.7735 161.154 85.2049C162.065 85.5036 162.914 85.9882 163.809 86.3442C164.762 86.7231 165.766 86.9824 166.692 87.4138C167.815 87.9369 168.882 88.5797 169.968 89.1811C172.811 90.756 175.561 92.4745 178.113 94.4955C178.92 95.1342 179.712 95.7909 180.507 96.443C180.622 96.5369 180.758 96.6343 180.816 96.7612C180.918 96.9838 180.968 97.2305 181.04 97.4671C180.85 97.3605 180.636 97.2816 180.473 97.143C178.012 95.0497 175.294 93.3206 172.553 91.6333C171.282 90.851 169.931 90.1962 168.605 89.5072C167.9 89.1413 167.183 88.7909 166.448 88.4948C164.841 87.8485 163.221 87.2357 161.603 86.6203C160.423 86.1719 159.249 85.7054 158.051 85.312C156.722 84.8754 155.378 84.4753 154.022 84.129C152.839 83.8268 151.638 83.5832 150.433 83.3871C149.671 83.2632 148.881 83.3155 148.114 83.2114C147.489 83.1264 146.885 82.8576 146.26 82.7955C145.506 82.7205 144.739 82.7889 143.978 82.7709C143.749 82.7654 143.523 82.6379 143.295 82.6355C141.996 82.6217 140.697 82.6436 139.398 82.6221C138.823 82.6125 138.247 82.4811 137.674 82.4926C137.006 82.506 136.341 82.6323 135.673 82.6783C134.926 82.7298 134.175 82.7271 133.429 82.784C132.878 82.8261 132.327 82.9064 131.783 83.0048C130.997 83.1471 130.219 83.3367 129.432 83.4767C128.838 83.5824 128.229 83.6101 127.638 83.7301C126.911 83.8777 126.192 84.0674 125.479 84.2711C124.6 84.5219 123.733 84.8126 122.858 85.0735C122.098 85.2998 121.309 85.4475 120.575 85.7364C118.214 86.6656 115.84 87.5715 113.531 88.6208C110.177 90.1458 106.998 92.0081 103.969 94.105C102.066 95.4228 100.227 96.836 98.3852 98.2402C94.695 101.053 91.4374 104.342 88.2319 107.674C86.5943 109.376 85.0965 111.217 83.592 113.042C82.0616 114.898 80.5665 116.786 79.1188 118.707C77.674 120.625 76.2711 122.577 74.9169 124.56C73.7221 126.309 72.6213 128.122 71.4723 129.903C71.4201 129.984 71.3014 130.022 71.2136 130.08C71.2289 129.995 71.2242 129.9 71.2623 129.827C72.0303 128.358 72.7829 126.881 73.5828 125.429C74.0856 124.517 74.661 123.645 75.2411 122.717Z" fill="#00160A"/>
<path fill-rule="evenodd" clip-rule="evenodd" d="M218.733 103.92C217.797 104.317 216.95 104.751 216.071 105.103C214.295 105.815 212.536 106.562 210.679 107.073C209.493 107.399 208.33 107.71 207.096 107.814C206.231 107.887 205.387 108.318 204.528 108.338C203.337 108.365 202.358 108.836 201.425 109.442C200.557 110.007 199.773 110.702 198.923 111.298C198.617 111.512 198.238 111.676 197.871 111.734C197.327 111.82 196.764 111.786 196.21 111.812C195.238 111.858 194.266 111.948 193.294 111.949C192.321 111.95 191.348 111.864 190.375 111.818C190.227 111.811 190.077 111.797 189.931 111.814C189.111 111.907 188.28 111.953 187.475 112.123C186.467 112.337 185.478 112.646 184.487 112.933C183.594 113.191 182.669 113.385 181.83 113.766C180.24 114.486 178.701 115.321 177.14 116.105C177.027 116.162 176.901 116.194 176.781 116.238C176.846 116.151 176.898 116.05 176.976 115.977C177.724 115.281 178.39 114.445 179.248 113.931C180.383 113.252 181.645 112.754 182.9 112.313C183.889 111.966 184.947 111.808 185.979 111.591C186.897 111.398 187.816 111.198 188.744 111.077C189.856 110.933 190.976 110.818 192.095 110.785C193.016 110.757 193.948 110.967 194.86 110.894C196.201 110.787 197.541 110.581 198.854 110.291C199.343 110.183 199.884 109.815 200.174 109.405C200.75 108.59 201.552 108.079 202.393 107.737C203.159 107.425 204.068 107.467 204.912 107.343C205.698 107.227 206.483 107.105 207.266 106.972C207.937 106.858 208.624 106.789 209.268 106.584C210.121 106.313 210.932 105.909 211.775 105.603C212.22 105.442 212.721 105.424 213.153 105.241C214.281 104.761 215.378 104.207 216.502 103.717C217.431 103.313 218.379 102.949 219.324 102.582C220.813 102.003 222.288 101.376 223.807 100.886C224.714 100.592 225.695 100.528 226.639 100.343C227.308 100.212 227.966 99.9672 228.639 99.9258C229.407 99.8784 230.187 99.982 230.959 100.055C231.563 100.112 232.163 100.219 232.764 100.309C233.072 100.355 233.043 100.51 232.82 100.618C232.14 100.947 231.458 101.177 230.656 101.116C229.841 101.053 229.01 101.174 228.189 101.244C227.26 101.324 226.321 101.375 225.41 101.556C224.524 101.731 223.657 102.026 222.799 102.321C221.925 102.622 221.072 102.983 220.213 103.326C219.741 103.515 219.276 103.721 218.733 103.92Z" fill="#00160A"/>
<path fill-rule="evenodd" clip-rule="evenodd" d="M219.217 189.792C219.587 190.46 220.103 191.064 220.198 191.729C220.281 192.309 220.525 193.025 219.95 193.627C219.362 194.242 218.89 194.968 218.357 195.637C217.357 196.892 215.994 197.343 214.447 197.429C213.238 197.496 212.033 197.636 210.825 197.715C209.747 197.787 208.667 197.821 207.588 197.868C206.41 197.92 205.232 197.998 204.053 198.007C203.281 198.013 202.505 197.853 201.735 197.883C200.188 197.941 198.8 197.523 197.82 196.342C196.92 195.256 196.556 194.031 196.889 192.479C197.5 189.623 199.176 187.553 201.231 185.696C201.864 185.125 202.63 184.678 203.389 184.275C204.363 183.759 205.352 183.119 206.404 182.94C207.846 182.695 209.261 182.333 210.84 182.611C213.363 183.055 215.202 184.326 216.697 186.248C217.576 187.377 218.355 188.583 219.217 189.792ZM219.254 191.169C217.929 188.877 216.601 186.56 214.455 184.933C213.568 184.261 212.472 183.765 211.394 183.472C210.405 183.203 209.346 183.281 208.265 183.475C206.943 183.711 205.668 183.998 204.45 184.539C202.718 185.308 201.255 186.468 200.053 187.91C198.301 190.011 196.87 192.227 197.946 195.194C198.35 196.308 199.772 197.191 200.968 196.998C201.69 196.881 202.449 196.971 203.189 196.996C203.817 197.018 204.445 197.14 205.068 197.111C206.145 197.06 207.216 196.879 208.293 196.839C209.638 196.789 210.987 196.827 212.334 196.827C212.814 196.827 213.306 196.894 213.77 196.812C214.583 196.667 215.426 196.538 216.171 196.21C218.009 195.399 220.012 193.769 219.254 191.169Z" fill="#00160A"/>
<path fill-rule="evenodd" clip-rule="evenodd" d="M105.019 194.333C105.74 193.463 106.504 192.683 107.086 191.785C107.824 190.647 107.888 189.355 107.728 188.004C107.587 186.822 108.033 185.757 108.84 184.839C109.744 183.811 110.937 183.266 112.146 182.753C113.233 182.293 114.327 182.649 115.331 183.038C115.79 183.216 116.169 183.785 116.429 184.262C117.136 185.562 117.498 187 117.985 188.39C118.369 189.484 118.053 190.355 117.547 191.113C117.057 191.849 116.271 192.434 115.515 192.934C114.578 193.554 113.578 194.117 112.534 194.522C111.417 194.955 110.218 195.18 109.051 195.483C108.593 195.602 108.129 195.713 107.661 195.775C107.312 195.822 106.951 195.771 106.596 195.787C105.479 195.837 104.364 195.917 103.246 195.95C102.366 195.976 101.484 195.951 100.603 195.947C99.663 195.943 98.7224 195.917 97.783 195.939C96.8362 195.962 95.8905 196.034 94.9442 196.081C94.7464 196.09 94.5467 196.071 94.3497 196.086C94.2269 196.096 94.1073 196.147 93.9863 196.179C94.086 196.048 94.1593 195.844 94.2898 195.796C95.0821 195.503 95.8894 195.256 96.7541 195.337C96.7787 195.34 96.8038 195.339 96.8284 195.337C97.8681 195.254 98.9073 195.163 99.9476 195.09C100.41 195.057 100.875 195.054 101.339 195.047C101.844 195.039 102.349 195.033 102.854 195.043C103.219 195.05 103.619 195.188 103.939 195.079C104.322 194.948 104.637 194.615 105.019 194.333ZM108.778 186.851C108.77 187.388 108.775 187.926 108.749 188.463C108.712 189.226 108.823 190.051 108.566 190.736C108.035 192.156 107.168 193.406 106.071 194.48C105.907 194.641 105.8 194.861 105.666 195.054C105.929 195.099 106.192 195.184 106.454 195.179C106.766 195.173 107.081 195.113 107.385 195.036C108.311 194.799 109.263 194.622 110.15 194.279C111.926 193.59 113.685 192.847 115.413 192.046C116.336 191.618 116.995 190.86 117.026 189.777C117.044 189.135 116.936 188.489 116.835 187.843C116.663 186.729 116.153 185.809 115.703 184.835C115.377 184.129 114.74 183.686 114.071 183.621C113.284 183.544 112.426 183.695 111.666 183.949C110.291 184.408 109.298 185.344 108.778 186.851Z" fill="#00160A"/>
<path fill-rule="evenodd" clip-rule="evenodd" d="M175.369 115.868C174.984 114.522 175.706 113.519 176.384 112.575C177.888 110.481 180.01 109.147 182.317 108.095C183.318 107.639 184.33 107.186 185.375 106.853C186.631 106.453 187.928 106.183 189.207 105.855C189.386 105.809 189.56 105.727 189.741 105.712C190.227 105.674 190.014 105.488 189.831 105.32C188.717 104.3 187.6 103.283 186.482 102.267C185.978 101.809 185.464 101.362 184.97 100.894C184.819 100.751 184.682 100.568 184.608 100.377C184.538 100.195 184.557 99.9783 184.537 99.7768C184.724 99.8473 184.956 99.8699 185.091 99.9957C186.776 101.56 188.446 103.141 190.124 104.713C190.333 104.909 190.694 105.273 190.767 105.226C191.054 105.039 191.366 104.754 191.464 104.441C191.696 103.703 191.772 102.917 191.981 102.17C192.36 100.809 193.418 100.039 194.599 99.467C196.048 98.7645 197.536 98.1372 199.027 97.5243C200.903 96.7529 202.802 96.0374 204.685 95.2819C206.44 94.5778 208.154 93.7481 209.951 93.182C210.83 92.9052 211.858 93.1004 212.819 93.0887C212.854 93.0883 212.89 93.1594 212.926 93.1971C212.863 93.2477 212.808 93.3212 212.735 93.3455C210.811 93.9949 208.874 94.6075 206.964 95.2954C205.646 95.7699 204.372 96.3631 203.066 96.8711C202.52 97.0834 201.92 97.1625 201.382 97.3892C200.254 97.864 199.158 98.4126 198.035 98.9001C197.209 99.2587 196.34 99.5229 195.53 99.9111C194.432 100.437 193.28 100.968 192.92 102.285C192.786 102.775 192.975 103.372 192.789 103.827C192.53 104.461 192.155 105.117 191.654 105.569C190.623 106.5 189.304 106.898 187.961 107.202C187.143 107.388 186.352 107.703 185.529 107.851C183.871 108.151 182.349 108.802 180.888 109.589C178.871 110.675 177.281 112.237 176.184 114.256C175.887 114.803 175.762 115.444 175.551 116.04C175.529 116.103 175.456 116.15 175.407 116.204C175.407 116.105 175.406 116.005 175.369 115.868Z" fill="#00160A"/>
<path fill-rule="evenodd" clip-rule="evenodd" d="M156.497 165.411C155.368 165.361 154.313 165.268 153.258 165.274C152.175 165.281 151.122 165.181 150.048 165.009C149.166 164.868 148.302 164.818 147.487 164.388C147.069 164.168 146.918 163.96 146.945 163.461C146.985 162.718 146.82 161.965 146.829 161.217C146.854 159.32 147.321 157.565 148.785 156.242C149.473 155.621 150.367 155.403 151.228 155.075C152.58 154.561 153.752 155.149 154.924 155.366C156.095 155.583 157.164 156.393 158.257 156.981C159.116 157.444 160.035 157.858 160.757 158.489C161.395 159.047 161.869 159.835 162.281 160.595C162.596 161.178 162.849 161.873 162.854 162.52C162.859 163.075 162.568 163.699 162.238 164.176C161.675 164.989 160.785 165.199 159.824 165.114C159.725 165.106 159.624 165.105 159.526 165.115C158.541 165.212 157.556 165.312 156.497 165.411ZM161.336 162.582C161.502 162.202 161.881 161.76 161.791 161.456C161.605 160.831 161.298 160.125 160.814 159.727C158.689 157.978 156.428 156.467 153.64 155.901C152.164 155.601 150.828 155.777 149.535 156.48C148.576 157.002 148.495 157.8 149.323 158.459C149.769 158.814 150.216 159.168 150.673 159.51C152.613 160.964 154.764 161.99 157.114 162.571C158.002 162.79 158.919 162.945 159.83 163.002C160.298 163.031 160.784 162.781 161.336 162.582ZM160.889 164.22C161.097 164.03 161.304 163.84 161.511 163.65C161.239 163.657 160.967 163.655 160.697 163.673C160.61 163.679 160.524 163.775 160.443 163.767C159.449 163.677 158.448 163.626 157.467 163.46C156.642 163.32 155.801 163.134 155.039 162.804C154.032 162.367 153.077 161.799 152.131 161.235C150.871 160.484 149.575 159.767 148.74 158.483C148.642 158.332 148.458 158.237 148.314 158.115C148.213 158.281 148.061 158.435 148.02 158.614C147.849 159.358 147.695 160.107 147.57 160.86C147.488 161.355 147.419 161.86 147.425 162.36C147.435 163.221 148.045 164.031 148.664 164.069C149.611 164.127 150.591 164.035 151.498 164.252C152.809 164.567 154.115 164.503 155.426 164.507C156.347 164.511 157.269 164.41 158.191 164.371C159.065 164.335 159.94 164.319 160.889 164.22Z" fill="#00160A"/>
<path fill-rule="evenodd" clip-rule="evenodd" d="M173.731 115.124C173.647 114.742 173.552 114.396 173.563 114.053C173.586 113.345 173.598 112.627 173.732 111.936C174.24 109.315 176.113 107.67 177.988 106.007C179.565 104.609 181.192 103.24 182.153 101.281C182.527 100.518 182.477 99.768 182.456 98.946C182.408 96.9935 181.337 95.6274 180 94.5002C178.629 93.344 177.072 92.4009 175.559 91.4211C173.669 90.1965 172.061 88.7355 171.035 86.6831C170.42 85.4545 170.726 83.0144 171.74 82.0755C171.986 81.8482 172.375 81.6699 172.702 81.6644C173.076 81.6581 173.258 81.9941 173.17 82.394C173.151 82.4768 173.11 82.601 173.051 82.6211C172.246 82.8939 171.462 84.9559 172.012 85.7372C172.411 86.3023 172.554 87.0754 173.016 87.5609C173.928 88.5194 174.961 89.3688 175.982 90.2162C177.692 91.6343 179.482 92.9599 181.144 94.4306C182.387 95.531 183.279 96.9692 183.633 98.5851C183.812 99.4015 183.652 100.365 183.262 101.201C182.47 102.902 181.234 104.215 179.816 105.428C178.139 106.864 176.283 108.177 175.215 110.181C174.736 111.081 174.412 112.111 174.256 113.119C174.135 113.904 174.39 114.746 174.461 115.563C174.471 115.679 174.388 115.802 174.347 115.922C174.254 115.851 174.135 115.796 174.071 115.704C173.954 115.535 173.868 115.343 173.731 115.124Z" fill="#00160A"/>
<path fill-rule="evenodd" clip-rule="evenodd" d="M254.801 163.513C254.693 164.216 254.691 164.899 254.536 165.545C254.302 166.513 254.013 167.475 253.652 168.402C253.233 169.481 252.741 170.536 252.222 171.571C251.879 172.254 251.454 172.898 251.019 173.528C250.867 173.749 250.575 173.874 250.35 174.047C249.869 174.415 249.749 173.829 249.752 173.698C249.776 172.508 249.715 171.32 250.073 170.14C250.335 169.277 250.313 168.332 250.464 167.432C250.566 166.825 250.76 166.235 250.891 165.633C251.087 164.729 251.254 163.819 251.452 162.916C251.79 161.378 252.147 159.855 253.67 158.966C253.975 158.789 254.117 158.79 254.424 158.989C255.116 159.44 255.407 159.96 255.225 160.802C255.035 161.68 254.962 162.583 254.801 163.513ZM254.466 162.21C254.501 161.53 254.56 160.85 254.554 160.171C254.552 159.981 254.399 159.725 254.238 159.627C254.116 159.553 253.795 159.616 253.694 159.733C253.372 160.102 253.041 160.493 252.841 160.934C252.229 162.286 251.878 163.699 251.742 165.197C251.631 166.422 251.238 167.621 250.971 168.832C250.894 169.181 250.805 169.527 250.746 169.879C250.59 170.816 250.444 171.754 250.299 172.693C250.27 172.884 250.267 173.08 250.252 173.273C250.465 173.139 250.787 173.055 250.876 172.863C251.552 171.402 252.223 169.937 252.815 168.44C253.233 167.382 253.558 166.282 253.855 165.182C253.997 164.657 253.936 164.081 254.042 163.543C254.122 163.136 254.32 162.753 254.466 162.21Z" fill="#00160A"/>
<path fill-rule="evenodd" clip-rule="evenodd" d="M74.0128 197.571C73.4748 197.472 73.0143 197.353 72.5469 197.278C71.8213 197.161 71.082 197.116 70.365 196.962C69.4962 196.777 68.638 196.532 67.7874 196.273C67.0181 196.039 66.2647 195.752 65.5073 195.481C65.4802 195.471 65.4592 195.334 65.4796 195.32C65.6477 195.203 65.8175 195.028 66.0031 195.006C67.5339 194.82 68.8271 195.704 70.2581 195.987C71.4494 196.223 72.6147 196.595 73.8091 196.809C74.6158 196.953 75.4542 196.913 76.2762 196.981C76.6573 197.013 77.0336 197.104 77.4112 197.173C78.3949 197.354 79.373 197.576 80.3631 197.708C81.1789 197.816 82.0146 197.775 82.8305 197.883C83.4543 197.966 84.0648 198.165 84.6745 198.335C85.859 198.667 87.0391 199.015 88.2203 199.359C88.2939 199.381 88.3615 199.423 88.432 199.455C88.3646 199.472 88.2956 199.509 88.2302 199.504C87.5203 199.444 86.8081 199.398 86.1021 199.306C85.2694 199.198 84.4433 199.04 83.6124 198.917C83.1707 198.852 82.7249 198.814 82.2805 198.767C81.3046 198.665 80.3234 198.599 79.3538 198.454C78.5088 198.328 77.6826 198.075 76.8373 197.952C75.9814 197.827 75.112 197.796 74.2495 197.714C74.1914 197.709 74.1411 197.621 74.0128 197.571Z" fill="#00160A"/>
<path fill-rule="evenodd" clip-rule="evenodd" d="M167.669 125.285C168.934 124.837 171.649 126.907 170.767 129.03C169.748 131.481 166.589 131.014 165.751 129.954C164.177 127.965 165.264 126.139 167.669 125.285ZM166.2 127.188C164.616 128.705 167.272 130.476 168.451 130.08C171.576 129.029 169.599 123.936 166.2 127.188Z" fill="#00160A"/>
<path fill-rule="evenodd" clip-rule="evenodd" d="M255.025 167.012C255.785 165.618 256.398 164.181 257.733 163.27C257.894 163.161 258.216 163.023 258.278 163.085C258.449 163.255 258.618 163.523 258.62 163.754C258.638 165.909 257.236 167.517 256.394 169.336C255.951 170.297 255.317 171.17 254.761 172.077C254.65 172.258 254.512 172.428 254.363 172.579C254.223 172.72 253.932 172.953 253.912 172.935C253.678 172.707 253.381 172.466 253.303 172.175C253.225 171.884 253.338 171.52 253.431 171.207C253.763 170.087 254.106 168.971 254.483 167.866C254.583 167.57 254.815 167.32 255.025 167.012ZM254.243 170.027C254.143 170.572 254.041 171.118 253.946 171.664C253.923 171.799 253.921 171.938 253.909 172.075C254.045 171.957 254.229 171.865 254.31 171.717C255.358 169.798 256.413 167.883 257.415 165.94C257.69 165.407 257.806 164.788 257.968 164.202C257.99 164.123 257.873 163.94 257.788 163.915C257.693 163.886 257.497 163.948 257.453 164.029C256.399 165.998 255.36 167.976 254.243 170.027Z" fill="#00160A"/>
<path fill-rule="evenodd" clip-rule="evenodd" d="M173.307 118.445C173.307 116.204 178.158 118.002 178.569 118.652C178.672 118.814 178.883 124.988 178.523 124.12C178.137 123.148 178.404 119.232 177.982 118.962C176.618 118.289 174.969 117.941 174.32 118.17C173.2 118.432 174.393 123.178 173.686 122.374C173.645 122.234 173.607 122.092 173.562 121.954C173.51 121.797 173.307 119.531 173.307 118.445Z" fill="#00160A"/>
<path fill-rule="evenodd" clip-rule="evenodd" d="M194.315 110.024C193.984 109.966 193.63 109.995 193.487 109.835C192.803 109.072 192.174 108.259 191.531 107.46C191.428 107.333 191.349 107.188 191.259 107.051C191.565 107.007 191.986 106.815 192.155 106.947C192.605 107.298 192.989 107.758 193.321 108.23C193.72 108.798 194.037 109.424 194.315 110.024Z" fill="#00160A"/>
<path fill-rule="evenodd" clip-rule="evenodd" d="M176.151 118.871C176.168 118.681 176.639 119.105 176.651 119.257C176.719 120.111 177.048 123.876 176.742 123.479C176.569 123.113 176.41 122.095 176.333 121.692C176.257 121.29 176.151 120.13 176.151 118.871Z" fill="#00160A"/>
<path fill-rule="evenodd" clip-rule="evenodd" d="M183.499 136.542C183.489 137.406 183.519 138.27 183.499 139.133C183.487 139.644 182.118 139.846 181.515 139.542C180.911 139.237 181.1 136.895 181.066 136.542C180.96 135.435 180.917 134.319 180.748 133.222C180.636 132.5 180.563 131.631 180.906 131.52C182.156 131.116 183.267 132.672 183.212 132.726C183.355 133.846 183.501 136.42 183.499 136.542ZM181.659 134.07C181.709 134.272 181.772 137.8 181.859 139.058C181.874 139.266 182.68 139.266 182.855 138.901C183.023 137.893 182.673 134.29 182.68 133.087C182.681 132.895 182.438 132.619 182.239 132.521C181.583 132.197 181.466 132.289 181.515 133.016C181.536 133.319 181.61 133.619 181.659 134.07Z" fill="#00160A"/>
<path fill-rule="evenodd" clip-rule="evenodd" d="M139.632 154.512C139.83 154.435 140.052 154.534 140.129 154.732C140.205 154.929 140.107 155.152 139.909 155.228C131.116 158.625 131.116 165.275 140.06 175.527C148.058 184.695 163.014 193.176 184.924 200.95C185.124 201.021 185.228 201.24 185.157 201.44C185.086 201.64 184.867 201.745 184.667 201.674C162.644 193.86 147.583 185.319 139.481 176.032C130.234 165.433 130.234 158.142 139.632 154.512Z" fill="#E7EAEE"/>
<path d="M154.479 199.379C154.548 199.178 154.767 199.072 154.967 199.141C155.168 199.211 155.274 199.429 155.205 199.63C153.498 204.565 150.381 208.677 145.863 211.96C141.36 215.232 133.921 218.194 123.535 220.858C123.33 220.91 123.121 220.787 123.068 220.581C123.015 220.376 123.139 220.167 123.345 220.114L124.067 219.927C133.989 217.334 141.107 214.467 145.412 211.339C149.805 208.147 152.824 204.162 154.479 199.379Z" fill="#124040"/>
<path fill-rule="evenodd" clip-rule="evenodd" d="M154.906 203.582C154.954 203.376 155.16 203.247 155.367 203.296C155.573 203.344 155.702 203.55 155.653 203.757C154.113 210.358 150.836 215.081 145.826 217.9C140.876 220.684 135.542 222.578 129.825 223.581C129.616 223.618 129.417 223.478 129.38 223.269C129.344 223.061 129.483 222.862 129.692 222.825C135.324 221.837 140.576 219.972 145.449 217.23C150.262 214.523 153.412 209.982 154.906 203.582Z" fill="#E7EAEE"/>
<path fill-rule="evenodd" clip-rule="evenodd" d="M178.938 203.195C178.988 202.989 179.195 202.862 179.401 202.912C186.986 204.738 193.701 205.758 199.544 205.972L199.983 205.986C205.819 206.163 214.25 205.697 225.271 204.587C225.482 204.566 225.67 204.72 225.691 204.931C225.713 205.142 225.559 205.33 225.348 205.351L223.689 205.515C213.173 206.536 205.117 206.944 199.516 206.739C193.618 206.523 186.853 205.496 179.222 203.659C179.016 203.609 178.889 203.402 178.938 203.195Z" fill="#E7EAEE"/>
<path fill-rule="evenodd" clip-rule="evenodd" d="M122.819 158.035C122.992 157.913 123.232 157.955 123.354 158.129C123.476 158.302 123.434 158.542 123.26 158.664C121.126 160.164 120.007 161.68 119.865 163.202C119.721 164.743 120.583 166.868 122.473 169.549C122.596 169.722 122.554 169.962 122.381 170.084C122.208 170.206 121.968 170.165 121.846 169.991C119.859 167.174 118.936 164.896 119.1 163.131C119.266 161.348 120.518 159.652 122.819 158.035Z" fill="#00160A"/>
<path fill-rule="evenodd" clip-rule="evenodd" d="M123.646 159.798C123.768 159.711 123.938 159.741 124.024 159.864C124.11 159.987 124.081 160.156 123.958 160.242C122.448 161.303 121.656 162.376 121.556 163.453C121.454 164.543 122.064 166.046 123.401 167.943C123.488 168.066 123.458 168.235 123.336 168.322C123.213 168.408 123.044 168.379 122.957 168.256C121.552 166.263 120.898 164.652 121.015 163.403C121.132 162.141 122.018 160.942 123.646 159.798Z" fill="#00160A"/>
</svg>
