<svg width="18" height="18" viewBox="0 0 18 18" fill="none" xmlns="http://www.w3.org/2000/svg">
<path d="M15.2008 2.79917L15.9079 2.09207V2.09207L15.2008 2.79917ZM4.87503 15.7766V16.7766C5.14025 16.7766 5.3946 16.6713 5.58214 16.4837L4.87503 15.7766ZM2.25003 15.7766H1.25003C1.25003 16.3289 1.69775 16.7766 2.25003 16.7766V15.7766ZM2.25003 13.0983L1.54292 12.3912C1.35539 12.5787 1.25003 12.8331 1.25003 13.0983H2.25003ZM13.2563 3.50628C13.598 3.16457 14.152 3.16457 14.4937 3.50628L15.9079 2.09207C14.7852 0.969311 12.9648 0.969311 11.8421 2.09207L13.2563 3.50628ZM14.4937 3.50628C14.8354 3.84799 14.8354 4.40201 14.4937 4.74372L15.9079 6.15793C17.0307 5.03517 17.0307 3.21483 15.9079 2.09207L14.4937 3.50628ZM14.4937 4.74372L4.16792 15.0695L5.58214 16.4837L15.9079 6.15793L14.4937 4.74372ZM4.87503 14.7766H2.25003V16.7766H4.87503V14.7766ZM11.8421 2.09207L1.54292 12.3912L2.95714 13.8054L13.2563 3.50628L11.8421 2.09207ZM1.25003 13.0983V15.7766H3.25003V13.0983H1.25003ZM10.7171 4.63128L13.3687 7.28293L14.7829 5.86872L12.1313 3.21707L10.7171 4.63128Z" fill="#124040"/>
</svg>
