<svg width="37" height="37" viewBox="0 0 37 37" fill="none" xmlns="http://www.w3.org/2000/svg">
<path d="M18.5 21.4166L31.625 14.125L18.5 6.83331L5.375 14.125L18.5 21.4166ZM18.5 21.4166L27.482 16.4266C28.2734 18.4221 28.7083 20.5977 28.7083 22.8749C28.7083 23.8976 28.6206 24.8999 28.4522 25.8746C24.6458 26.2447 21.1965 27.8342 18.5 30.2476C15.8035 27.8342 12.3542 26.2447 8.54778 25.8746C8.37941 24.8999 8.29167 23.8976 8.29167 22.8748C8.29167 20.5976 8.72661 18.422 9.51794 16.4266L18.5 21.4166ZM12.6667 30.1666V19.2291L18.5 15.9884" stroke="white" stroke-width="2" stroke-linecap="round" stroke-linejoin="round"/>
<path d="M1 1V0.5C0.723858 0.5 0.5 0.723858 0.5 1H1ZM36 1H36.5C36.5 0.723858 36.2761 0.5 36 0.5V1ZM36 36V36.5C36.2761 36.5 36.5 36.2761 36.5 36H36ZM1 36H0.5C0.5 36.2761 0.723858 36.5 1 36.5V36ZM1 1.5H36V0.5H1V1.5ZM35.5 1V36H36.5V1H35.5ZM36 35.5H1V36.5H36V35.5ZM1.5 36V1H0.5V36H1.5Z" fill="black"/>
</svg>
