<svg width="35" height="35" viewBox="0 0 35 35" fill="none" xmlns="http://www.w3.org/2000/svg">
<path d="M17.5 16.5C16.9477 16.5 16.5 16.9477 16.5 17.5C16.5 18.0523 16.9477 18.5 17.5 18.5V16.5ZM21.875 18.5C22.4273 18.5 22.875 18.0523 22.875 17.5C22.875 16.9477 22.4273 16.5 21.875 16.5V18.5ZM17.5 22.3333C16.9477 22.3333 16.5 22.781 16.5 23.3333C16.5 23.8856 16.9477 24.3333 17.5 24.3333V22.3333ZM21.875 24.3333C22.4273 24.3333 22.875 23.8856 22.875 23.3333C22.875 22.781 22.4273 22.3333 21.875 22.3333V24.3333ZM13.125 16.5C12.5727 16.5 12.125 16.9477 12.125 17.5C12.125 18.0523 12.5727 18.5 13.125 18.5V16.5ZM13.1396 18.5C13.6919 18.5 14.1396 18.0523 14.1396 17.5C14.1396 16.9477 13.6919 16.5 13.1396 16.5V18.5ZM13.125 22.3333C12.5727 22.3333 12.125 22.781 12.125 23.3333C12.125 23.8856 12.5727 24.3333 13.125 24.3333V22.3333ZM13.1396 24.3333C13.6919 24.3333 14.1396 23.8856 14.1396 23.3333C14.1396 22.781 13.6919 22.3333 13.1396 22.3333V24.3333ZM26.7083 10.2083V27.7083H28.7083V10.2083H26.7083ZM24.7917 29.625H10.2083V31.625H24.7917V29.625ZM8.29166 27.7083V10.2083H6.29166V27.7083H8.29166ZM10.2083 8.29167H13.125V6.29167H10.2083V8.29167ZM21.875 8.29167H24.7917V6.29167H21.875V8.29167ZM10.2083 29.625C9.14978 29.625 8.29166 28.7669 8.29166 27.7083H6.29166C6.29166 29.8714 8.04521 31.625 10.2083 31.625V29.625ZM26.7083 27.7083C26.7083 28.7669 25.8502 29.625 24.7917 29.625V31.625C26.9548 31.625 28.7083 29.8714 28.7083 27.7083H26.7083ZM28.7083 10.2083C28.7083 8.04522 26.9548 6.29167 24.7917 6.29167V8.29167C25.8502 8.29167 26.7083 9.14979 26.7083 10.2083H28.7083ZM8.29166 10.2083C8.29166 9.14979 9.14978 8.29167 10.2083 8.29167V6.29167C8.04521 6.29167 6.29166 8.04522 6.29166 10.2083H8.29166ZM17.5 18.5H21.875V16.5H17.5V18.5ZM17.5 24.3333H21.875V22.3333H17.5V24.3333ZM16.0417 5.375H18.9583V3.375H16.0417V5.375ZM18.9583 9.20833H16.0417V11.2083H18.9583V9.20833ZM16.0417 9.20833C14.9831 9.20833 14.125 8.35021 14.125 7.29167H12.125C12.125 9.45478 13.8785 11.2083 16.0417 11.2083V9.20833ZM20.875 7.29167C20.875 8.35021 20.0169 9.20833 18.9583 9.20833V11.2083C21.1214 11.2083 22.875 9.45478 22.875 7.29167H20.875ZM18.9583 5.375C20.0169 5.375 20.875 6.23312 20.875 7.29167H22.875C22.875 5.12855 21.1214 3.375 18.9583 3.375V5.375ZM16.0417 3.375C13.8785 3.375 12.125 5.12855 12.125 7.29167H14.125C14.125 6.23312 14.9831 5.375 16.0417 5.375V3.375ZM13.125 18.5H13.1396V16.5H13.125V18.5ZM13.125 24.3333H13.1396V22.3333H13.125V24.3333Z" fill="white"/>
</svg>