<?xml version="1.0" standalone="no"?>
<!DOCTYPE svg PUBLIC "-//W3C//DTD SVG 20010904//EN"
 "http://www.w3.org/TR/2001/REC-SVG-20010904/DTD/svg10.dtd">
<svg version="1.0" xmlns="http://www.w3.org/2000/svg"
 width="248.000000pt" height="248.000000pt" viewBox="0 0 248.000000 248.000000"
 preserveAspectRatio="xMidYMid meet">
<metadata>
Created by potrace 1.16, written by Peter Selinger 2001-2019
</metadata>
<g transform="translate(0.000000,248.000000) scale(0.100000,-0.100000)"
fill="#000000" stroke="none">
<path d="M1518 2024 c-33 -10 -59 -29 -95 -67 -109 -120 -180 -346 -219 -697
-10 -85 -19 -157 -21 -159 -2 -3 -8 0 -13 5 -6 6 -6 40 0 94 10 84 9 84 -18
113 -55 60 -179 151 -249 185 -67 31 -79 34 -147 30 -91 -4 -121 -22 -156 -96
-17 -34 -30 -50 -39 -46 -12 4 -12 1 1 -13 9 -10 18 -34 20 -53 3 -19 9 -44
13 -54 7 -16 2 -15 -31 8 -43 29 -107 35 -139 12 -11 -7 -45 -21 -75 -29 -70
-21 -112 -61 -113 -111 -2 -84 85 -107 181 -48 30 18 68 36 85 39 31 6 30 4
-34 -63 -127 -132 -154 -206 -110 -293 21 -40 74 -92 119 -115 46 -24 131 -84
126 -89 -3 -2 12 -8 32 -11 27 -6 34 -10 25 -19 -18 -18 -13 -25 27 -45 75
-38 138 -46 327 -41 293 7 443 3 548 -16 54 -9 101 -15 103 -12 2 2 -42 12
-98 22 -107 19 -243 23 -563 16 -174 -4 -256 8 -325 44 l-25 13 30 12 c17 7
90 15 163 17 130 6 133 5 139 -15 12 -46 106 -79 133 -47 15 18 6 33 -28 48
l-27 11 27 4 c15 2 36 -2 47 -7 25 -14 78 -14 86 -1 4 6 55 10 120 10 113 0
115 0 121 -25 12 -47 68 -66 105 -36 21 18 23 22 11 41 -13 22 -13 22 30 16
24 -4 105 -8 180 -9 99 -1 141 -6 150 -15 11 -12 9 -17 -11 -30 -13 -10 -43
-25 -65 -34 -23 -9 -34 -17 -26 -17 21 -1 116 44 125 59 15 24 -23 42 -102 51
-43 4 -85 9 -93 10 -39 5 134 17 290 19 152 3 168 4 119 13 l-56 10 47 62 c61
81 87 146 72 180 -8 17 -20 25 -37 25 -14 0 -25 1 -25 3 0 1 9 30 21 62 30 86
36 158 15 190 -44 68 -94 5 -126 -159 l-12 -59 -19 42 c-21 48 -44 53 -80 15
-22 -23 -24 -33 -22 -107 1 -50 11 -116 26 -169 13 -48 22 -90 19 -93 -3 -3
-42 -5 -88 -5 -92 0 -94 1 -94 90 0 69 13 101 69 171 140 173 232 469 203 654
-24 155 -89 237 -262 330 -89 47 -97 54 -122 105 -14 30 -36 62 -48 72 -26 21
-77 22 -142 2z m-971 -756 c17 -13 60 -48 95 -79 35 -31 77 -63 93 -72 24 -12
128 -37 154 -37 3 0 0 -5 -7 -12 -13 -13 -128 -12 -184 3 -20 5 -59 25 -87 44
-66 46 -105 46 -187 0 -34 -19 -76 -35 -93 -35 -41 0 -71 31 -71 73 0 42 29
71 90 88 25 7 59 21 75 31 41 24 84 23 122 -4z m1308 -195 c31 -64 36 -147 12
-204 -42 -100 -165 -174 -339 -204 -37 -6 -38 -5 -38 24 0 17 11 47 25 67 39
57 34 88 -25 145 -27 27 -50 53 -50 59 0 29 22 50 53 51 32 1 32 1 4 8 l-27 6
27 40 c19 29 27 51 26 80 l-2 40 20 -24 c10 -13 19 -29 19 -37 0 -8 5 -14 10
-14 6 0 10 4 10 9 0 15 68 22 110 11 23 -6 40 -17 40 -25 0 -8 4 -15 9 -15 16
0 23 39 16 78 l-7 37 40 -38 c22 -21 52 -64 67 -94z m356 46 c15 -38 3 -110
-35 -206 l-24 -62 26 10 c36 14 52 4 52 -31 0 -39 -20 -78 -79 -158 -46 -61
-46 -62 -91 -60 l-45 3 -18 70 c-10 39 -20 107 -24 152 -7 98 6 143 42 143 26
0 39 -28 51 -108 4 -23 9 -40 12 -38 2 3 11 45 19 93 29 189 80 273 114 192z
m-1028 -35 c91 -40 181 -53 254 -36 l43 10 -26 -44 c-33 -56 -27 -82 25 -118
54 -38 61 -72 27 -132 -32 -58 -33 -97 -2 -157 14 -28 19 -47 12 -48 -6 0 4
-5 23 -10 31 -10 32 -11 15 -25 -18 -14 -18 -14 1 -8 16 5 17 4 5 -5 -20 -15
-55 -14 -67 1 -5 7 -17 34 -27 59 -15 43 -116 182 -116 161 0 -5 9 -21 20 -35
11 -14 20 -28 20 -31 0 -10 -170 -7 -240 4 -93 15 -94 15 -74 45 15 23 15 27
0 50 -9 14 -19 25 -21 25 -3 0 1 -10 9 -23 16 -24 14 -32 -28 -91 -19 -27 -19
-28 2 -78 12 -28 19 -55 16 -59 -3 -5 4 -9 14 -9 11 0 25 -7 32 -15 11 -13 10
-14 -5 -9 -13 5 -16 4 -11 -4 10 -16 -9 -15 -43 3 -26 13 -71 93 -71 125 0 6
-9 28 -20 50 -11 22 -20 49 -20 60 0 12 -4 19 -9 16 -15 -10 -70 61 -77 100
-20 109 39 225 133 260 53 20 109 11 206 -32z m-474 -286 c5 -13 12 -32 16
-43 6 -19 7 -18 20 6 18 33 55 32 72 -2 14 -27 16 -133 3 -164 -5 -12 -6 12
-3 56 5 60 2 81 -11 105 -10 16 -14 20 -9 9 10 -24 11 -161 1 -170 -12 -13
-92 50 -113 87 -22 42 -15 60 15 33 25 -23 25 -14 0 35 -11 22 -20 46 -20 55
0 23 19 18 29 -7z"/>
</g>
</svg>
