<svg width="248" height="248" viewBox="0 0 248 248" fill="none" xmlns="http://www.w3.org/2000/svg">
<rect width="248" height="248" fill="white"/>
<path d="M170.473 52.1687C168.505 46.9135 166.451 41.4304 152.548 45.1391C145.082 47.1305 138.824 54.1663 133.708 64.6148C129.859 72.9243 126.607 83.6697 124.013 96.5531C118.712 122.879 116.479 156.933 117.523 190.043L115.209 190.116L115.179 189.117C114.473 165.209 115.464 140.854 118.079 119.261C106.952 107.697 94.2704 98.5818 85.0288 95.5543C63.1289 90.7254 57.3433 103.483 57.4868 114.864C57.513 116.945 58.2402 118.675 58.9728 120.419C59.7304 122.222 60.4936 124.038 60.4936 126.27C60.4936 127.75 57.1839 130.807 52.8815 134.781C44.4232 142.594 32.1284 153.951 33.604 163.834C34.9678 172.967 43.6159 179.902 51.5762 183.631C52.3555 183.996 53.2043 184.674 54.2256 185.49C54.9519 186.071 55.7655 186.721 56.7034 187.377L56.7755 187.427C57.5122 187.935 58.7282 188.651 60.4234 189.575L60.9463 189.859C84.9278 202.796 112.76 194.08 121.433 190.863L121.94 190.673L183.443 189.989L183.435 189.941C183.418 189.84 183.391 189.691 183.355 189.499C182.777 186.366 180.062 171.649 185.844 165.718C203.9 147.196 223.699 94.1908 196.779 71.9792C190.83 67.0707 184.927 64.0868 180.394 61.7951C177.64 60.4032 175.392 59.2667 173.946 58.1095C172.164 56.6844 171.327 54.448 170.473 52.1687Z" fill="#124040"/>
<path fill-rule="evenodd" clip-rule="evenodd" d="M61.5539 111.495C60.1986 111.26 62.5939 113.948 62.5939 113.948C62.5939 113.948 62.9093 111.731 61.5539 111.495Z" fill="white"/>
<path fill-rule="evenodd" clip-rule="evenodd" d="M81.8268 190.195C81.8268 190.195 67.2682 184.104 67.2682 175.623C67.2682 173.135 68.8244 173.374 71.9369 176.34C72.2754 176.663 72.7604 177.158 73.3917 177.826C73.7785 178.235 65.041 167.625 69.4437 165.64C73.7353 163.706 74.7336 173.749 74.9579 173.611C75.2073 173.456 75.1344 170.418 76.1277 169.074C76.6627 168.35 78.2363 168.195 79.427 169.074C85.6821 173.689 81.8268 190.195 81.8268 190.195Z" fill="white"/>
<path fill-rule="evenodd" clip-rule="evenodd" d="M75.569 127.982C75.569 127.982 69.5131 127.671 68.6876 125.745C67.8621 123.82 72.3529 124.914 72.3529 124.914L75.569 127.982Z" fill="white"/>
<path fill-rule="evenodd" clip-rule="evenodd" d="M65.3271 118.853C63.9713 118.095 64.7424 116.286 65.3271 116.21C67.058 115.988 68.4239 119.823 68.6147 120.207C68.9451 120.872 66.015 119.238 65.3271 118.853Z" fill="white"/>
<path fill-rule="evenodd" clip-rule="evenodd" d="M79.2686 130.48C79.2686 130.48 75.9529 122.027 79.0224 122.693C82.0919 123.359 81.2089 133.187 81.2089 133.187L79.2686 130.48Z" fill="white"/>
<path fill-rule="evenodd" clip-rule="evenodd" d="M77.0425 124.323C77.0858 125.694 77.6717 127.798 78.7966 130.666C78.812 130.705 78.8321 130.742 78.8566 130.776L80.7969 133.482C81.0707 133.864 81.6718 133.7 81.7138 133.232L81.7489 132.827C82.2943 126.275 81.5069 122.714 79.1299 122.198C77.747 121.898 76.9919 122.725 77.0425 124.323ZM78.9661 123.201C80.4429 123.579 81.1295 126.32 80.8294 131.463L80.8106 131.761L79.7171 130.236L79.5259 129.74C78.5811 127.257 78.092 125.432 78.0559 124.291L78.0531 124.131C78.051 123.267 78.2883 123.053 78.9149 123.189L78.9661 123.201Z" fill="#00160A"/>
<path fill-rule="evenodd" clip-rule="evenodd" d="M67.5594 165.128C65.4235 166.09 65.5714 168.519 67.2019 171.828L67.3271 172.078C67.6253 172.665 67.9657 173.271 68.3421 173.892L68.4718 174.104L68.4557 174.093C67.8459 173.688 67.3199 173.45 66.8673 173.381C65.6655 173.196 65.0527 174.082 65.0527 175.623C65.0527 181.558 70.0648 186.575 79.9565 190.714C80.2773 190.848 80.6418 190.662 80.7208 190.323C83.3371 179.122 82.5135 171.873 78.1074 168.622C76.7555 167.624 74.8012 167.686 74.0223 168.74L73.9548 168.835C73.6237 169.322 73.3927 169.962 73.2215 170.759L73.2139 170.794L73.1918 170.707C73.07 170.23 72.9414 169.78 72.7957 169.329C72.3129 167.836 71.7354 166.663 71.0112 165.878C70.0578 164.844 68.8726 164.536 67.5594 165.128ZM72.398 172.25L72.6448 173.414L72.6734 173.535C72.6916 173.608 72.7081 173.667 72.7249 173.717C72.7474 173.784 72.771 173.84 72.8083 173.898C72.8547 173.972 72.9122 174.036 73.0039 174.092C73.1823 174.199 73.4113 174.205 73.6002 174.089C73.8432 173.938 73.9026 173.81 73.9691 173.385L74.0002 173.172C74.0222 173.015 74.1026 172.348 74.1162 172.242C74.1702 171.82 74.2241 171.472 74.2904 171.141C74.446 170.363 74.6555 169.775 74.9264 169.408C75.2969 168.907 76.5466 168.867 77.4399 169.526L77.557 169.615C81.2731 172.477 82.0775 178.96 79.8443 189.105L79.7753 189.415L79.5467 189.316C70.5932 185.411 66.177 180.834 66.177 175.623C66.177 174.677 66.3423 174.438 66.6967 174.492C67.324 174.588 68.4198 175.341 69.8958 176.747L70.0844 176.93C70.3094 177.151 70.5857 177.432 70.9129 177.774L71.3487 178.231C71.3562 178.238 71.3674 178.248 71.3897 178.268L71.3969 178.285C71.4142 178.314 71.4695 178.324 71.838 178.392L71.9665 178.347C72.1184 178.29 72.1426 178.252 72.2717 178.048L72.3012 177.925C72.3191 177.844 72.3165 177.825 72.307 177.755L72.2825 177.655C72.2771 177.636 72.273 177.626 72.2662 177.611L72.2605 177.599C72.2454 177.567 72.2368 177.55 72.2224 177.528L72.0695 177.322L71.6801 176.807C71.6131 176.717 71.5456 176.626 71.471 176.525C70.8302 175.655 70.2088 174.757 69.6248 173.829C69.0777 172.961 68.6003 172.123 68.2104 171.332C66.8347 168.54 66.725 166.737 68.0214 166.153C69.5817 165.449 70.7796 166.748 71.7259 169.675C71.9831 170.471 72.1868 171.272 72.398 172.25Z" fill="#00160A"/>
<path fill-rule="evenodd" clip-rule="evenodd" d="M69.3027 120.517L69.7645 120.938C75.4904 126.165 79.477 130.335 81.6021 133.229C85.3112 138.28 88.3004 143.52 90.8194 149.067C91.7147 151.039 92.5251 152.991 93.3237 155.064L93.5413 155.632C93.7902 156.287 94.0309 156.933 94.2933 157.65L95.411 160.734C98.4343 169.011 97.4335 169.415 94.5554 161.363L93.4247 158.241C93.188 157.593 92.9711 157.006 92.7531 156.428L92.5891 155.994C91.7267 153.727 90.8589 151.619 89.8918 149.489C87.4005 144.002 84.4459 138.823 80.781 133.832L80.613 133.606C78.4358 130.707 74.3936 126.516 68.6179 121.271C68.4096 121.082 68.3941 120.76 68.5832 120.552C68.7723 120.344 69.0944 120.328 69.3027 120.517ZM55.9004 108.972L63.0311 115.058C63.6995 115.632 64.2205 116.081 64.4692 116.3C64.6803 116.486 64.7005 116.808 64.5145 117.019C64.3285 117.23 64.0066 117.251 63.7956 117.065L61.9399 115.465C59.4756 113.354 55.585 110.043 55.238 109.746C55.0242 109.563 54.9993 109.241 55.1822 109.028C55.3652 108.814 55.6867 108.789 55.9004 108.972Z" fill="#00160A"/>
<path fill-rule="evenodd" clip-rule="evenodd" d="M69.079 124.08C68.1428 124.293 67.8275 125.026 68.2216 125.945C68.8792 127.479 71.3169 128.271 75.543 128.488C76.0126 128.512 76.2592 127.94 75.9189 127.615L72.7028 124.547C72.6385 124.486 72.5592 124.443 72.4729 124.422C70.9043 124.039 69.7881 123.92 69.079 124.08ZM72.1012 125.375L74.1983 127.375L74.0723 127.363L73.7556 127.33C71.0558 127.027 69.5202 126.401 69.1535 125.546L69.1154 125.454C69.0032 125.173 69.0437 125.128 69.3033 125.069C69.7817 124.961 70.6775 125.046 71.9536 125.34L72.1012 125.375Z" fill="#00160A"/>
<path fill-rule="evenodd" clip-rule="evenodd" d="M66.1021 193.171C64.8254 193.907 65.3455 194.672 68.0988 195.894C71.0697 197.23 76.5988 199.809 86.0958 200.535C100.805 201.661 114.199 199.538 131.106 199.538C154.513 199.538 164.788 204.681 172.98 203.495C194.942 200.315 199.917 194.144 193.365 192.552C186.172 190.804 163.31 191.017 155.613 190.514L153.232 190.362L151.186 190.31C129.033 189.766 93.5248 190.31 86.5901 190.31C72.4427 190.31 66.1021 193.171 66.1021 193.171Z" fill="white"/>
<path fill-rule="evenodd" clip-rule="evenodd" d="M131.106 199.538C154.513 199.538 164.788 204.858 172.98 203.672C194.942 200.492 199.917 194.144 193.365 192.552C186.172 190.803 160.043 190.236 153.608 190.375C153.608 190.375 183.188 195.841 181.605 197.651C176.892 203.04 165.157 196.528 143.843 196.718C139.452 196.757 131.106 199.538 131.106 199.538Z" fill="#E7EAEE"/>
<path fill-rule="evenodd" clip-rule="evenodd" d="M87.9942 190.541C87.4241 190.545 86.9667 190.546 86.5901 190.546L85.9444 190.548C76.747 190.591 70.0387 191.557 65.791 193.474L65.7247 193.508C64.7326 194.079 64.3524 194.921 64.9759 195.785C65.379 196.343 66.2231 196.871 67.6476 197.513L68.8586 198.054C70.3697 198.723 71.2659 199.086 72.6115 199.559L72.7574 199.61C76.6387 200.966 80.9457 201.892 86.0381 202.282C89.6565 202.558 93.344 202.653 97.3862 202.597L98.8012 202.572C101.459 202.518 103.723 202.424 107.859 202.202L115.009 201.806C121.822 201.438 125.979 201.29 130.886 201.286L131.106 201.286C139.888 201.286 147.063 201.954 155.02 203.257L155.711 203.372C156.91 203.581 163.504 204.742 165.325 205.004L165.388 205.013C168.565 205.46 170.916 205.55 173.089 205.235L173.696 205.146C183.56 203.672 190.689 201.476 194.288 199.047C197.885 196.62 197.559 193.839 193.663 192.839L193.544 192.809C190.308 192.022 184.166 191.586 174.623 191.3L172.665 191.244C172.095 191.229 171.505 191.214 170.885 191.198L162.577 191.006C159.377 190.927 157.416 190.859 155.93 190.769L153.28 190.599L151.205 190.546L149.095 190.499C142.977 190.371 135.67 190.31 127.307 190.305L124.82 190.305C118.992 190.308 112.959 190.337 106.224 190.387L87.9942 190.541ZM129.252 191.82C137.6 191.834 144.838 191.907 150.823 192.05L153.213 192.11L155.93 192.284C157.425 192.373 159.382 192.441 162.533 192.518L170.536 192.703C171.479 192.726 172.351 192.749 173.187 192.772L175.147 192.829C184.245 193.112 190.159 193.543 193.187 194.279L193.368 194.324C195.88 194.984 195.962 196.093 193.442 197.793C189.997 200.118 175.853 206.347 165.858 204.223L165.398 204.158C163.286 203.844 156.206 202.256 155.788 202.187L154.762 202.019C147.098 200.785 140.103 200.138 131.67 200.11L130.444 200.11C125.402 200.124 121.058 200.292 113.679 200.7L108.558 200.986C103.605 201.256 101.243 201.352 98.1618 201.408L97.9136 201.412C82.2857 202.019 72.7574 198.379 72.7574 198.379C71.5104 197.933 68.2834 196.812 68.2834 196.812L68.0433 196.702C60.5147 194.146 76.9518 192.102 85.9577 192.06L88.7651 192.049L105.074 191.909C112.667 191.85 119.351 191.818 125.817 191.817L129.252 191.82Z" fill="#00160A"/>
<path fill-rule="evenodd" clip-rule="evenodd" d="M163.982 179.625C163.982 179.625 163.942 181.867 164.633 182.905C165.323 183.942 167.248 186.829 169.038 187.588C169.589 187.822 171.695 187.852 172.96 188.591C175.501 190.076 176.067 192.75 172.96 193.317C166.791 194.442 164.633 191.19 164.633 191.19C164.633 191.19 162.091 187.588 159.544 185.199C156.997 182.81 154.968 182.091 154.968 182.091" fill="white"/>
<path d="M185.27 81.0413C184.412 80.9769 183.907 81.6296 183.907 82.4197C183.907 85.1549 188.376 88.8954 191.288 88.8954C192.141 88.8954 192.839 88.2849 192.591 87.3517C192.498 87 192.283 86.688 191.93 86.3034L191.852 86.2198C191.456 85.7988 191.046 85.4229 190.127 84.6319L188.719 83.4253C188.374 83.1263 187.824 82.6495 187.658 82.5075L187.458 82.3377C187.074 82.0133 186.776 81.7769 186.51 81.5891C186.041 81.2572 185.677 81.0718 185.27 81.0413Z" fill="white"/>
<path fill-rule="evenodd" clip-rule="evenodd" d="M156.724 134.67C156.724 134.67 155.032 129.841 150.683 128.533C149.301 128.117 155.345 137.239 150.011 140.642C148.346 141.704 145.385 142.255 141.742 142.774C125.501 145.086 120.605 139.026 110.58 136.066C106.56 134.879 87.0067 129.63 84.0504 156.37C82.1999 173.106 96.2156 178.293 108.776 180.953C133.939 186.28 172.495 184.181 184.52 166.621C198.854 145.69 176.824 127.463 173.72 125.536C172.968 125.069 175.123 131.051 175.363 134.077C175.602 137.102 173.72 138.202 173.72 138.202C173.72 138.202 172.978 134.999 166.417 134.449C159.857 133.9 156.724 134.67 156.724 134.67Z" fill="white"/>
<path fill-rule="evenodd" clip-rule="evenodd" d="M60.2028 112.386C60.4327 112.929 60.9675 113.646 61.837 114.622C62.4111 115.266 63.4762 114.945 63.5978 114.09C63.8754 112.139 63.2945 110.769 61.7276 110.496C60.5011 110.283 59.709 111.222 60.2028 112.386ZM62.5939 113.948L62.4384 113.772C60.9753 112.102 60.6805 111.344 61.5539 111.495C62.4575 111.652 62.8042 112.47 62.5939 113.948Z" fill="#00160A"/>
<path fill-rule="evenodd" clip-rule="evenodd" d="M65.2624 115.708C64.6924 115.781 64.2279 116.45 64.0999 117.189C63.9527 118.039 64.2688 118.842 65.0796 119.296L65.6386 119.606C66.1778 119.901 66.662 120.155 67.1331 120.381L67.3518 120.484C67.7027 120.646 67.9868 120.76 68.2027 120.819C68.4238 120.88 68.5916 120.897 68.7705 120.832C69.1531 120.692 69.2202 120.331 69.088 120.023L69.0462 119.93C68.9933 119.806 68.8628 119.495 68.7876 119.321L68.7713 119.284C68.5667 118.816 68.3581 118.384 68.1283 117.973C67.2776 116.448 66.3627 115.566 65.2624 115.708ZM67.3475 118.659C67.4852 118.917 67.6166 119.187 67.7458 119.473L67.7883 119.569L67.6635 119.511L67.5724 119.467C66.9689 119.177 66.331 118.834 65.5747 118.411C65.1663 118.182 65.0209 117.813 65.099 117.362C65.1329 117.166 65.2098 116.976 65.3062 116.838C65.3357 116.795 65.3648 116.761 65.3909 116.736L65.4193 116.711L65.3919 116.713C65.9195 116.645 66.584 117.286 67.2429 118.467L67.3475 118.659Z" fill="#00160A"/>
<path fill-rule="evenodd" clip-rule="evenodd" d="M73.9327 124.451C73.8425 124.059 68.7921 114.855 72.3385 115.144C75.8848 115.433 75.0403 125.864 74.9169 125.864C74.7716 125.864 73.9975 124.733 73.9327 124.451Z" fill="white"/>
<path fill-rule="evenodd" clip-rule="evenodd" d="M70.5705 116.515C70.5706 117.395 70.8644 118.561 71.3913 119.977C71.5495 120.403 71.7268 120.845 71.9216 121.303L72.0406 121.58C72.5086 122.658 73.4467 124.6 73.4386 124.565C73.489 124.784 73.6997 125.15 73.9775 125.552L74.0795 125.698C74.4194 126.181 74.5885 126.355 74.8751 126.37L74.9961 126.373C75.3401 126.391 75.3397 126.51 75.4192 126.009L75.448 125.826C75.4598 125.751 75.4721 125.653 75.4843 125.537L75.4916 125.465C75.5234 125.14 75.5519 124.715 75.5713 124.251C75.6215 123.052 75.6073 121.768 75.5091 120.571L75.4823 120.267C75.1653 116.91 74.2442 114.791 72.3796 114.639C71.188 114.541 70.5703 115.287 70.5705 116.515ZM72.2973 115.649C73.4854 115.746 74.2489 117.608 74.4985 120.654C74.593 121.806 74.6068 123.049 74.5582 124.209L74.5415 124.554L74.5234 124.523C74.4745 124.439 74.4407 124.375 74.43 124.347L74.4268 124.338C74.405 124.243 73.3877 122.137 72.9708 121.176C72.7354 120.634 72.5248 120.116 72.3416 119.624C71.8536 118.312 71.5845 117.244 71.5844 116.515C71.5843 115.85 71.7546 115.622 72.2436 115.646L72.2973 115.649Z" fill="#00160A"/>
<path fill-rule="evenodd" clip-rule="evenodd" d="M87.8696 143.149C87.8696 143.149 88.9803 141.606 89.6047 140.839C90.2292 140.073 90.8985 139.431 90.8985 139.431C90.8985 139.431 75.8176 137.93 70.5936 134.042C63.7722 128.965 57.6532 120.543 51.4895 118.762C44.121 116.633 41.3939 121.572 39.2686 121.974C32.7941 123.201 20.9362 126.692 26.3584 137.236C28.0324 140.491 33.4551 142.005 37.2754 140.19C41.5396 138.164 46.7911 133.202 52.3141 133.202C58.7009 133.202 59.8129 138.435 67.9205 141.209C72.8966 142.911 87.8696 143.149 87.8696 143.149Z" fill="white"/>
<path fill-rule="evenodd" clip-rule="evenodd" d="M105.827 180.46C105.827 180.46 109.509 184.479 111.034 187.064C112.56 189.65 112.025 191.052 114.143 192.247C117.325 194.042 120.604 193.59 122.064 192.635C123.523 191.68 122.154 189.237 119.095 189.237C118.343 189.237 117.458 187.509 117.029 186.366C116.601 185.223 116.797 182.41 116.797 182.41L105.827 180.46Z" fill="white"/>
<path fill-rule="evenodd" clip-rule="evenodd" d="M174.403 126.548C174.403 126.548 198.391 155.971 164.657 173.242C141.063 185.321 102.301 178.799 102.301 178.799C102.301 178.799 144.498 190.143 172.078 176.466C189.676 167.74 193.157 152.906 184.762 137.803C182.565 133.851 174.403 126.548 174.403 126.548Z" fill="#E7EAEE"/>
<path fill-rule="evenodd" clip-rule="evenodd" d="M172.994 125.081C173.296 124.68 173.767 124.675 174.119 124.893C175.251 125.596 177.3 127.298 179.271 129.294C182.006 132.064 184.448 135.203 186.321 138.586C191.448 147.849 190.99 157.547 184.483 167.049C178.731 175.448 167.478 180.517 151.682 182.788C137.867 184.774 121.872 184.499 108.619 181.693L107.955 181.55C100.37 179.894 94.7786 177.791 90.5483 174.54C84.9997 170.276 82.4115 164.31 83.2986 156.286C84.6414 144.141 89.443 137.391 96.6812 135.027C99.372 134.148 102.254 133.932 105.228 134.225C107.268 134.426 108.981 134.806 110.794 135.341L111.116 135.437C113.086 136.034 114.762 136.694 117.347 137.839L119.259 138.696C123.219 140.471 125.511 141.313 128.478 141.911C132.211 142.664 136.321 142.752 141.309 142.07L142.049 141.965C146.119 141.372 148.305 140.833 149.604 140.004C151.126 139.034 151.669 137.461 151.451 135.283C151.352 134.292 151.106 133.247 150.718 132.029L150.611 131.7C150.443 131.203 149.953 129.804 149.863 129.5C149.752 129.124 149.7 128.861 149.719 128.618C149.764 128.006 150.301 127.628 150.901 127.809C154.073 128.763 156.351 131.533 157.75 136.024C157.874 136.423 157.652 136.847 157.253 136.971C156.854 137.096 156.43 136.873 156.306 136.474C155.241 133.055 153.685 130.831 151.649 129.745L151.515 129.676L152.066 131.282L152.081 131.328C153.479 137.29 152.44 141.965 143.036 143.41C142.519 143.49 132.12 144.384 127.802 143.316C121.261 141.697 111.978 135.657 106.413 135.437C100.847 135.217 99.6236 135.657 97.151 136.465C90.5166 138.632 84.9985 145.652 83.8849 157.246C83.2969 163.368 86.6039 169.572 92.0267 173.393C105.827 183.118 137.83 183.581 151.467 181.621C166.885 179.405 178.434 174.17 183.896 166.194C190.055 157.201 189.864 148.111 184.997 139.318C183.197 136.065 180.838 133.034 178.194 130.356C176.99 129.137 175.758 128.034 174.759 127.23L174.591 127.096L174.737 127.673L175.205 129.473L175.376 130.147C175.403 130.253 175.428 130.357 175.454 130.459L175.543 130.83C175.859 132.159 176.051 133.191 176.117 134.017C176.297 136.299 175.637 137.958 174.101 138.855C173.741 139.066 173.277 138.944 173.067 138.584C172.856 138.223 172.977 137.76 173.338 137.549C174.313 136.98 174.747 135.888 174.609 134.136C174.551 133.404 174.37 132.434 174.069 131.171L173.984 130.819C173.947 130.669 173.909 130.514 173.869 130.354L173.21 127.807C173.111 127.421 173.038 127.118 172.979 126.854L172.961 126.776C172.861 126.317 172.808 125.988 172.805 125.741C172.802 125.488 172.838 125.286 172.994 125.081Z" fill="#00160A"/>
<path fill-rule="evenodd" clip-rule="evenodd" d="M156.663 133.836L157.203 133.745C160.771 133.157 163.651 132.944 165.852 133.11C168.173 133.286 170.634 133.914 173.235 134.99C173.578 135.132 173.741 135.525 173.599 135.868C173.457 136.211 173.064 136.374 172.72 136.232C170.246 135.208 167.922 134.616 165.75 134.451C163.567 134.286 160.61 134.521 156.891 135.161C156.525 135.224 156.178 134.979 156.115 134.613C156.052 134.247 156.297 133.899 156.663 133.836Z" fill="#00160A"/>
<path fill-rule="evenodd" clip-rule="evenodd" d="M160.963 130.82C162.573 130.489 164.044 130.66 165.357 131.338C166.613 131.986 167.701 132.803 168.62 133.786C168.812 133.991 168.801 134.313 168.595 134.506C168.39 134.698 168.067 134.687 167.875 134.481C167.038 133.585 166.043 132.839 164.889 132.243C163.791 131.676 162.557 131.532 161.168 131.817C160.893 131.874 160.623 131.697 160.567 131.421C160.51 131.145 160.688 130.876 160.963 130.82Z" fill="#00160A"/>
<path fill-rule="evenodd" clip-rule="evenodd" d="M164.219 128.152C164.364 127.911 164.677 127.832 164.918 127.976C166.21 128.749 167.279 129.613 168.124 130.57C168.977 131.537 169.677 132.772 170.228 134.274C170.325 134.538 170.19 134.831 169.926 134.928C169.662 135.025 169.369 134.889 169.272 134.625C168.762 133.236 168.124 132.11 167.36 131.245C166.588 130.37 165.6 129.571 164.395 128.851C164.154 128.706 164.075 128.393 164.219 128.152Z" fill="#00160A"/>
<path fill-rule="evenodd" clip-rule="evenodd" d="M149.46 140.256C149.673 139.952 150.093 139.878 150.397 140.091C150.701 140.304 144.21 149.548 144.21 151.342C144.21 153.287 145.165 154.588 147.71 156.641L148.788 157.499L149.102 157.75C150.68 159.025 151.598 159.919 152.379 161.054C153.471 162.641 153.985 164.413 153.854 166.514C153.693 169.105 152.911 170.896 151.361 172.963L151.221 173.148C151.047 173.372 150.28 174.352 150.07 174.639C149.32 175.662 148.968 176.433 148.903 177.338C148.621 181.325 150.497 186.139 154.571 191.763C154.789 192.064 154.721 192.484 154.421 192.702C154.12 192.92 153.7 192.853 153.482 192.552C149.24 186.696 147.253 181.599 147.562 177.243C147.644 176.088 148.065 175.13 148.885 173.983L148.985 173.844C149.226 173.515 150.106 172.393 150.18 172.296C151.656 170.359 153.79 167.527 152.081 162.136C151.221 159.422 143.054 157.499 142.785 151.722C142.722 150.361 144.991 146.636 149.46 140.256Z" fill="#00160A"/>
<path d="M151.932 168.207L150.994 168.217C145.44 168.288 142.061 168.568 141.018 169.015L140.98 169.032C139.445 169.736 138.238 170.69 137.315 171.834C136.599 172.722 136.093 173.674 135.762 174.625C135.663 174.908 135.586 175.173 135.529 175.414L135.491 175.585L137.097 177.643C137.113 177.664 137.128 177.685 137.141 177.707L137.157 177.729L137.208 177.803C137.555 178.306 137.949 178.798 138.455 179.372L138.689 179.632C139.105 180.086 140.43 181.514 140.88 182.029C141.843 183.128 142.655 184.186 143.431 185.401C144.616 187.253 145.66 189.391 146.598 191.981L146.665 192.17L146.733 192.364C146.814 192.604 146.895 192.85 146.982 193.128L147.377 194.426C147.962 196.34 148.37 197.219 149.018 197.752L149.126 197.839C149.975 198.499 150.766 198.662 152.964 198.732L153.607 198.75C156.529 198.83 158.053 196.509 156.381 194.823C155.857 194.294 154.127 193.884 151.298 193.712C150.927 193.69 151.276 192.735 151.298 192.364C151.321 191.994 151.639 191.711 152.01 191.734C152.338 191.754 152.652 191.777 152.954 191.803C149.208 186.372 147.378 181.745 147.669 177.643C147.751 176.488 147.627 176.036 148.447 174.889L148.603 174.674C148.902 174.276 149.673 173.292 149.742 173.202C150.373 172.374 150.813 171.696 151.165 170.956L151.235 170.807L151.258 170.753L151.297 170.667C151.482 170.243 151.679 169.511 151.879 168.486L151.932 168.207Z" fill="white"/>
<path fill-rule="evenodd" clip-rule="evenodd" d="M136.142 174.805C136.672 176.35 137.596 177.293 138.883 178.753L139.064 178.956C139.385 179.309 140.842 180.878 141.318 181.422C142.282 182.522 143.093 183.58 143.869 184.795C145.054 186.646 146.098 188.785 147.036 191.374C147.081 191.499 147.126 191.627 147.171 191.758L147.293 192.126C147.321 192.21 147.348 192.296 147.377 192.385L147.537 192.901C147.619 193.17 147.785 193.719 147.815 193.82L147.904 194.106C148.442 195.823 148.842 196.64 149.456 197.145L149.565 197.232C150.377 197.865 151.136 198.041 153.129 198.116L154.045 198.144C156.967 198.224 158.491 195.903 156.819 194.217C156.295 193.688 154.565 193.278 151.736 193.106C151.365 193.083 151.083 192.765 151.106 192.394C151.128 192.024 151.447 191.741 151.818 191.764L152.17 191.787C155.125 191.991 156.961 192.45 157.774 193.27C160.392 195.91 158.061 199.524 154.128 199.49L153.654 199.478C150.846 199.403 149.839 199.201 148.602 198.184C147.719 197.458 147.239 196.482 146.623 194.515L146.224 193.206L146.096 192.794C146.041 192.622 145.989 192.462 145.937 192.308L145.898 192.193C145.856 192.069 145.814 191.949 145.771 191.832C144.867 189.335 143.866 187.286 142.737 185.519C142.056 184.454 141.346 183.516 140.517 182.55L140.307 182.308C139.821 181.754 138.24 180.053 138.02 179.807C136.586 178.205 135.73 176.91 135.119 175.204L135.056 175.026C133.867 171.557 132.341 170.373 130.346 171.112C129.998 171.242 126.101 173.111 129.875 170.601C133.649 168.092 136.142 174.805 136.142 174.805Z" fill="#00160A"/>
<path fill-rule="evenodd" clip-rule="evenodd" d="M159.604 150.92C158.871 150.92 157.82 148.815 157.82 147.787C157.82 146.759 160.45 147.107 160.45 147.107C160.45 147.107 163.213 147.477 162.832 148.511C162.451 149.546 160.011 150.92 159.604 150.92Z" fill="#FFB61D"/>
<ellipse cx="155.273" cy="143.35" rx="1.45087" ry="2.7105" fill="#00160A"/>
<ellipse cx="169.148" cy="143.963" rx="1.59008" ry="2.66805" fill="#00160A"/>
<path fill-rule="evenodd" clip-rule="evenodd" d="M168.111 148.442C169.322 147.922 170.662 147.823 172.118 148.141C173.541 148.452 177.828 151.135 177.678 151.373C177.528 151.611 173.187 149.417 171.9 149.136C170.646 148.862 169.521 148.945 168.513 149.378C168.254 149.489 167.955 149.37 167.844 149.111C167.733 148.853 167.852 148.553 168.111 148.442Z" fill="#00160A"/>
<path fill-rule="evenodd" clip-rule="evenodd" d="M168.882 150.203C170.154 150.27 170.485 149.98 172.227 151.11C173.968 152.241 175.27 154.904 175.032 155.053C174.793 155.203 173.404 152.828 171.808 151.632C170.213 150.437 168.332 150.965 168.347 150.684C168.361 150.419 168.576 150.212 168.836 150.202L168.882 150.203Z" fill="#00160A"/>
<path fill-rule="evenodd" clip-rule="evenodd" d="M160.053 152.023C159.7 154.219 159.789 155.616 159.921 157.176C160.053 158.735 161.3 160.98 161.425 161.919C161.55 162.857 159.067 158.987 158.917 157.347C158.766 155.706 157.702 151.246 159.561 151.454C159.561 151.454 160.092 151.779 160.053 152.023Z" fill="#00160A"/>
<path fill-rule="evenodd" clip-rule="evenodd" d="M150.801 148.71C151.93 148.71 152.387 148.738 153.487 148.955C153.763 149.009 153.943 149.277 153.888 149.553C153.834 149.829 153.566 150.009 153.29 149.954C152.899 149.877 152.148 149.55 150.904 149.563C149.204 149.581 147.723 150.525 147.649 150.369C147.529 150.114 149.672 148.71 150.801 148.71Z" fill="#00160A"/>
<path fill-rule="evenodd" clip-rule="evenodd" d="M152.647 146.523C152.921 146.588 153.091 146.862 153.026 147.136C152.962 147.41 152.687 147.579 152.414 147.515C149.968 146.938 148.005 146.954 146.621 146.899C145.26 146.846 142.206 147.059 142.117 146.793C142.027 146.526 150.143 145.933 152.647 146.523Z" fill="#00160A"/>
<path fill-rule="evenodd" clip-rule="evenodd" d="M163.994 178.953C164.365 178.959 164.661 179.266 164.654 179.637C164.63 181.008 164.822 181.976 165.192 182.532C166.746 184.869 168.064 186.445 169.3 186.969C169.334 186.983 169.414 187.004 169.54 187.028L169.725 187.061C169.864 187.085 170.451 187.173 170.553 187.19C170.94 187.251 171.258 187.309 171.569 187.38C172.256 187.535 172.826 187.734 173.299 188.01C174.72 188.84 175.657 190.054 175.748 191.247C175.854 192.626 174.852 193.655 173.08 193.978C168.731 194.771 165.687 193.994 164.083 191.578C162.414 189.212 160.747 187.249 159.084 185.689C157.449 184.155 155.996 183.169 154.744 182.724C154.394 182.6 154.211 182.216 154.335 181.866C154.459 181.516 154.843 181.333 155.193 181.457C156.646 181.972 158.244 183.058 160.004 184.709C161.738 186.335 163.463 188.366 165.193 190.819C166.456 192.722 168.964 193.362 172.839 192.656C173.989 192.446 174.455 191.967 174.408 191.35C174.354 190.654 173.693 189.798 172.621 189.171C172.286 188.976 171.836 188.819 171.272 188.691C171.029 188.636 170.775 188.588 170.475 188.539L169.503 188.388L169.316 188.355C169.083 188.311 168.917 188.267 168.775 188.207C167.851 187.815 166.901 186.971 165.907 185.782C165.251 184.998 164.748 184.292 164.073 183.277C163.523 182.45 163.281 181.232 163.31 179.613C163.316 179.242 163.623 178.946 163.994 178.953Z" fill="#00160A"/>
<path fill-rule="evenodd" clip-rule="evenodd" d="M169.424 191.356C169.491 191.134 169.725 191.007 169.947 191.074C170.639 191.281 171.129 191.509 171.428 191.781C171.711 192.038 171.991 192.434 172.278 192.97C172.388 193.175 172.311 193.429 172.106 193.539C171.901 193.648 171.647 193.571 171.537 193.366C171.292 192.907 171.064 192.585 170.863 192.403C170.678 192.234 170.289 192.053 169.707 191.879C169.484 191.813 169.358 191.578 169.424 191.356Z" fill="#00160A"/>
<path fill-rule="evenodd" clip-rule="evenodd" d="M171.616 190.467C171.69 190.247 171.928 190.128 172.148 190.201C172.741 190.398 173.181 190.623 173.474 190.889C173.764 191.153 174.043 191.579 174.325 192.173C174.424 192.383 174.335 192.633 174.126 192.733C173.916 192.832 173.665 192.743 173.566 192.533C173.327 192.03 173.103 191.687 172.909 191.511C172.718 191.337 172.374 191.162 171.882 190.998C171.662 190.925 171.543 190.687 171.616 190.467Z" fill="#00160A"/>
<path fill-rule="evenodd" clip-rule="evenodd" d="M153.628 196.257C153.701 196.037 153.939 195.918 154.159 195.991C154.752 196.189 155.192 196.414 155.485 196.68C155.775 196.943 156.054 197.37 156.336 197.964C156.436 198.173 156.346 198.424 156.137 198.523C155.927 198.623 155.676 198.534 155.577 198.324C155.338 197.82 155.114 197.478 154.92 197.302C154.729 197.128 154.385 196.952 153.894 196.789C153.673 196.715 153.554 196.478 153.628 196.257Z" fill="#00160A"/>
<path fill-rule="evenodd" clip-rule="evenodd" d="M154.85 194.831C154.923 194.611 155.161 194.492 155.381 194.565C155.974 194.762 156.415 194.987 156.708 195.253C156.998 195.517 157.277 195.943 157.559 196.537C157.658 196.747 157.569 196.998 157.359 197.097C157.15 197.197 156.899 197.107 156.799 196.898C156.56 196.394 156.336 196.051 156.142 195.875C155.951 195.701 155.608 195.526 155.116 195.363C154.896 195.289 154.777 195.051 154.85 194.831Z" fill="#00160A"/>
<path fill-rule="evenodd" clip-rule="evenodd" d="M105.373 179.964C105.647 179.713 110.287 185.036 111.283 186.723C111.603 187.266 111.857 187.79 112.082 188.349C112.151 188.522 112.216 188.693 112.286 188.886L112.55 189.631C112.941 190.719 113.591 191.164 114.474 191.662C117.062 193.122 120.118 193.104 121.695 192.072C122.57 191.5 121.389 189.909 119.095 189.909C118.023 189.909 117.101 188.472 116.4 186.602C116.071 185.726 115.989 184.328 116.126 182.363C116.152 181.993 116.473 181.714 116.843 181.739C117.214 181.765 117.493 182.086 117.467 182.457C117.343 184.243 117.416 185.482 117.659 186.13L117.729 186.313C118.202 187.497 118.896 188.564 119.095 188.564C120.711 188.564 122.078 189.187 122.813 190.177C123.591 191.224 123.488 192.506 122.432 193.197C120.422 194.513 116.827 194.533 113.813 192.833C112.648 192.175 112.138 191.494 111.66 190.208L111.403 189.486C111.317 189.244 111.244 189.048 111.165 188.851C110.964 188.351 110.74 187.888 110.455 187.406C109.466 185.73 107.757 183.562 105.331 180.914C105.08 180.64 105.099 180.215 105.373 179.964Z" fill="#00160A"/>
<path fill-rule="evenodd" clip-rule="evenodd" d="M117.823 191.356C117.889 191.134 118.123 191.007 118.345 191.074C119.038 191.281 119.528 191.509 119.826 191.781C120.11 192.038 120.39 192.434 120.677 192.97C120.786 193.175 120.709 193.429 120.504 193.539C120.3 193.648 120.045 193.571 119.936 193.366C119.69 192.907 119.462 192.585 119.261 192.403C119.076 192.234 118.687 192.053 118.105 191.879C117.883 191.813 117.756 191.578 117.823 191.356Z" fill="#00160A"/>
<path fill-rule="evenodd" clip-rule="evenodd" d="M119.404 190.671C119.477 190.45 119.715 190.331 119.935 190.405C120.528 190.602 120.968 190.827 121.261 191.093C121.551 191.356 121.83 191.783 122.112 192.377C122.212 192.586 122.122 192.837 121.913 192.937C121.703 193.036 121.453 192.947 121.353 192.737C121.114 192.233 120.89 191.891 120.696 191.715C120.505 191.541 120.161 191.365 119.67 191.202C119.449 191.129 119.33 190.891 119.404 190.671Z" fill="#00160A"/>
<path fill-rule="evenodd" clip-rule="evenodd" d="M41.9011 119.559L41.7591 119.657C41.3092 119.971 40.4429 120.603 40.2521 120.738L40.2325 120.751C39.7382 121.092 39.4043 121.264 39.1434 121.314C34.5338 122.187 30.5528 123.165 27.8276 125.228C24.0172 128.113 21.9588 133.158 24.5697 138.235C26.4276 141.848 33.4511 142.751 37.5639 140.797C38.2675 140.463 39.017 140.045 39.9213 139.491L40.2972 139.259C40.4273 139.178 40.5611 139.094 40.7035 139.004L41.6882 138.376L42.7647 137.686L43.1588 137.437C47.1172 134.95 49.6321 133.875 52.3141 133.875C54.5311 133.875 56.0912 134.483 58.0511 135.921L58.1989 136.031C58.5392 136.285 60.7479 138.047 61.4936 138.59C63.426 139.997 65.334 141.034 67.7028 141.845L67.9111 141.914C71.3778 143.036 78.0089 143.665 87.8589 143.821C88.079 143.825 88.2868 143.72 88.4153 143.542L88.7992 143.012C89.3509 142.255 89.7937 141.672 90.126 141.264C90.5251 140.774 90.9377 140.325 91.3637 139.917C91.7781 139.519 91.5363 138.819 90.9651 138.762L90.3725 138.702C80.7582 137.702 74.2862 135.952 70.995 133.503L70.7551 133.323C68.9998 131.996 67.3235 130.498 64.7682 128.046L61.4661 124.874C60.1605 123.63 59.7016 123.225 58.787 122.449L58.6437 122.327C56.5054 120.514 54.65 119.27 52.8504 118.529C52.4554 118.366 52.0643 118.228 51.6762 118.116C47.6687 116.958 44.7917 117.602 41.9011 119.559ZM51.3029 119.408C51.6427 119.506 51.9875 119.627 52.338 119.772C53.9327 120.429 55.6208 121.547 57.5775 123.187L58.3432 123.838C59.186 124.562 59.7695 125.105 61.712 126.971L64.0155 129.187C66.6243 131.685 68.333 133.198 70.1922 134.581L70.3013 134.662C73.6789 137.115 79.8142 138.84 88.7391 139.875L89.4691 139.957L89.459 139.969C89.3747 140.066 89.2909 140.164 89.2078 140.264L89.0244 140.487L88.8841 140.663C88.6178 141 88.3009 141.418 87.9331 141.918L87.5295 142.471L86.7125 142.456C77.4474 142.268 71.2388 141.633 68.1381 140.572C65.9913 139.838 64.2529 138.909 62.496 137.655L62.2851 137.503C61.5693 136.981 59.3693 135.227 59.0036 134.954C56.7595 133.277 54.9112 132.53 52.3141 132.53C49.3034 132.53 46.6117 133.68 42.4503 136.294L41.8107 136.7L40.4393 137.579C40.0322 137.839 39.7106 138.042 39.3978 138.235L39.0505 138.447C38.2592 138.927 37.5984 139.292 36.9869 139.583C33.5004 141.239 28.4649 139.862 26.9563 136.928C24.6488 132.441 25.4607 129.144 28.7581 126.647C31.277 124.74 34.9718 123.473 39.3937 122.635C39.8566 122.547 40.3026 122.326 40.8846 121.934L40.9953 121.859C41.1678 121.74 42.2141 120.975 42.6135 120.701L42.6551 120.672C45.2368 118.924 47.7125 118.37 51.3029 119.408Z" fill="#00160A"/>
<path fill-rule="evenodd" clip-rule="evenodd" d="M212.316 137.68L212.253 137.834L212.125 138.152C210.472 142.347 209.012 148.775 207.737 157.45L207.663 157.96L207.659 157.935C207.165 155.026 206.542 152.766 205.783 151.147C204.465 148.334 202.588 147.271 200.369 148.281C193.168 151.557 193.597 164.877 201.223 188.286C201.325 188.597 201.615 188.808 201.942 188.808H210.221C210.443 188.808 210.654 188.71 210.798 188.541C221.136 176.347 225.766 168.15 224.634 163.646L224.597 163.503C223.567 159.629 220.992 158.799 217.319 160.881L217.188 160.955L217.372 160.534C223.743 145.774 224.912 136.686 220.607 133.144C217.446 130.543 214.562 132.264 212.316 137.68ZM219.769 133.728C223.559 136.846 222.212 147.057 215.023 162.883C214.694 163.607 223.167 157.935 223.167 164.015L223.194 164.13C224.01 167.872 219.799 175.427 210.517 186.526L209.87 187.295L201.942 187.86C201.942 187.86 191.255 152.571 200.995 149.658C203.798 148.82 205.866 152.89 206.892 163.901C206.976 164.802 208.285 164.821 208.395 163.923L208.485 163.197C209.959 151.421 211.707 143.099 213.713 138.259L213.828 137.987C215.703 133.598 217.651 131.985 219.769 133.728Z" fill="#00160A"/>
<path d="M219.646 134.312C223.436 137.43 221.9 146.978 214.711 162.804C214.382 163.528 215.249 164.204 215.871 163.708L216.123 163.509C220.208 160.33 222.302 160.573 223.167 164.015L223.194 164.13C224.01 167.872 219.799 175.427 210.517 186.526L209.87 187.295H202.492L202.227 186.471C195.272 164.671 194.997 152.386 200.995 149.658C203.762 148.399 205.866 152.89 206.892 163.901C206.976 164.802 208.285 164.821 208.395 163.923L208.485 163.197C209.959 151.421 211.707 143.099 213.713 138.259L213.828 137.987C215.703 133.598 217.528 132.57 219.646 134.312Z" fill="white"/>
<ellipse cx="199.937" cy="159.302" rx="2.68925" ry="2.68924" fill="#E7EAEE"/>
<ellipse cx="216.744" cy="141.822" rx="2.68923" ry="2.68925" fill="#E7EAEE"/>
<ellipse cx="218.089" cy="167.706" rx="2.68925" ry="2.68922" fill="#E7EAEE"/>
<path fill-rule="evenodd" clip-rule="evenodd" d="M75.5526 190.676C70.8056 190.751 54.4814 191.961 54.1994 191.355C53.8387 190.58 71.6401 189.561 75.5204 189.5L76.7358 189.484C80.264 189.445 75.5526 190.676 75.5526 190.676ZM145.379 189.103C145.797 189.092 146.144 189.421 146.155 189.839C146.166 190.256 145.836 190.604 145.419 190.615L138.663 190.782C134.458 190.878 129.583 190.979 122.381 191.12C121.963 191.129 121.618 190.797 121.61 190.379C121.602 189.961 121.933 189.616 122.351 189.608L135.105 189.348C138.977 189.264 142.088 189.19 145.379 189.103ZM162.805 188.75C163.223 188.744 163.567 189.077 163.574 189.495C163.58 189.912 163.247 190.256 162.829 190.263L161.057 190.285L155.634 190.322C154.499 190.334 153.61 190.349 152.562 190.375C152.145 190.385 151.798 190.055 151.788 189.637C151.777 189.22 152.108 188.873 152.525 188.863L153.859 188.834C154.732 188.818 155.62 188.808 156.799 188.799L161.308 188.769C161.832 188.764 162.307 188.758 162.805 188.75ZM211.823 187.295C211.823 187.295 213.181 187.061 223.095 187.803C223.512 187.834 223.824 188.197 223.793 188.614C223.762 189.03 218.859 188.82 212.157 188.808L210.314 188.811C205.393 188.833 200.821 188.966 193.233 189.279L183.656 189.683C179.569 189.851 177.131 189.932 174.166 190.002C173.748 190.012 173.402 189.681 173.392 189.264C173.382 188.846 173.713 188.5 174.13 188.49L176.511 188.428C179.344 188.346 182.254 188.232 187.414 188.011L192.886 187.779C201.441 187.425 206.199 187.295 211.823 187.295Z" fill="#00160A"/>
<path d="M188.906 78.4203L189.079 78.1016C190.435 75.6451 191.617 74.4256 192.994 74.8235C193.106 74.8557 193.216 74.8997 193.323 74.9553C194.167 75.393 194.37 76.2068 194.133 77.3174L194.118 77.3859L194.157 77.3288C194.557 76.7605 194.939 76.3216 195.334 75.9959L195.42 75.9279C196.299 75.2433 197.232 75.1796 198.077 75.8928C199.426 77.0317 199.273 78.9419 198.171 80.1176L198.11 80.181C197.957 80.3358 197.865 80.6708 197.762 81.4591L197.673 82.1498C197.567 82.9468 197.495 83.2963 197.327 83.8362C197.009 84.8559 196.489 85.7065 195.678 86.4012C194.659 87.2744 192.939 87.1526 190.517 86.1572C190.257 86.0503 190.133 85.7526 190.24 85.4924C190.347 85.2322 186.843 82.1418 186.737 82.2773L186.702 82.3167C186.507 82.5196 186.185 82.526 185.982 82.3311L185.49 81.8568C185.193 81.5709 185.341 81.0697 185.745 80.9903C186.486 80.8451 187.06 80.6848 187.464 80.5136C187.803 80.3699 187.988 80.2324 188.032 80.1432C188.032 80.1432 188.767 78.6778 188.906 78.4203Z" fill="white"/>
<path fill-rule="evenodd" clip-rule="evenodd" d="M185.27 81.0413C184.412 80.9769 183.907 81.6296 183.907 82.4197C183.907 85.1549 188.376 88.8954 191.288 88.8954C192.141 88.8954 192.839 88.2849 192.591 87.3517C192.498 87 192.283 86.688 191.93 86.3034L191.853 86.2198C191.456 85.7988 191.046 85.4229 190.127 84.6319L188.719 83.4253C188.374 83.1263 187.824 82.6495 187.658 82.5075L187.458 82.3377C187.074 82.0133 186.776 81.7769 186.51 81.5891C186.041 81.2572 185.677 81.0718 185.27 81.0413ZM184.926 82.4197C184.926 81.3503 186.458 82.8288 188.302 84.411L189.527 85.4591C191.027 86.7521 192.857 88.0971 191.93 88.1958C188.993 88.5084 184.926 84.614 184.926 82.4197Z" fill="#00160A"/>
<path fill-rule="evenodd" clip-rule="evenodd" d="M185.506 73.8734C185.716 73.6868 186.768 72.9526 186.225 73.9167C185.682 74.8807 182.542 76.1035 185.682 80.9789C185.801 81.1643 185.655 81.5363 185.394 81.6392C185.132 81.742 184.836 81.613 184.733 81.3512C183.94 79.3294 183.572 77.8659 183.643 76.9144C183.717 75.9062 184.35 74.8977 185.506 73.8734Z" fill="#00160A"/>
<path fill-rule="evenodd" clip-rule="evenodd" d="M181.583 75.5707C181.638 75.2948 182.183 74.6123 182.183 75.1714C182.183 75.7305 181.383 77.1487 182.508 78.7468C183.634 80.3449 185.571 81.4288 185.405 81.6561C185.24 81.8835 184.921 81.9336 184.694 81.768C183.064 80.5807 182.074 79.6518 181.701 78.9237C181.312 78.164 181.286 77.0524 181.583 75.5707Z" fill="#00160A"/>
<path fill-rule="evenodd" clip-rule="evenodd" d="M188.906 78.4203L189.079 78.1016C190.435 75.6451 191.617 74.4256 192.994 74.8235C193.106 74.8557 193.216 74.8997 193.323 74.9553C194.167 75.393 194.37 76.2068 194.133 77.3174L194.118 77.3859L194.157 77.3288C194.557 76.7605 194.939 76.3216 195.334 75.9959L195.42 75.9279C196.299 75.2433 197.232 75.1796 198.077 75.8928C199.426 77.0317 199.273 78.9419 198.171 80.1176L198.11 80.181C197.957 80.3358 197.865 80.6708 197.762 81.4591L197.673 82.1498C197.567 82.9468 197.495 83.2963 197.327 83.8362C197.009 84.8559 196.489 85.7065 195.678 86.4012C194.659 87.2744 192.939 87.1526 190.517 86.1572C190.257 86.0503 190.133 85.7526 190.24 85.4924C190.347 85.2322 194.014 87.3633 195.42 85.7066C196.825 84.0499 196.977 80.6231 197.382 79.5845L197.48 79.4034C198.257 78.6177 198.283 77.4 197.42 76.6713C196.974 76.2953 196.571 76.3229 196.045 76.7318C195.567 77.1043 195.068 77.744 194.492 78.6747L194.324 78.9523C194.041 79.4297 193.474 80.4195 193.399 80.5453L193.296 80.7167C192.947 81.2869 192.502 81.6439 192.436 81.6592C192.37 81.6745 192.276 81.6216 192.253 81.1393C192.245 80.9807 192.286 80.8211 192.37 80.604L192.404 80.5198C192.506 80.2712 193.069 79.102 193.107 79.0182C193.278 78.65 193.415 78.3291 193.529 78.0265C193.987 76.8064 193.305 76.0937 192.854 75.8598C192.806 75.8347 192.758 75.8157 192.712 75.8022C192.012 75.6002 191.039 76.6387 189.902 78.7196L189.656 79.1801C189.474 79.5274 189.295 79.8846 188.945 80.5942C188.69 81.1102 188.011 81.4801 186.877 81.7785L186.815 81.7942L186.82 81.809C186.87 81.9656 186.843 82.1418 186.737 82.2773L186.702 82.3167C186.507 82.5196 186.185 82.526 185.982 82.3311L185.49 81.8568C185.193 81.5709 185.341 81.0697 185.745 80.9903C186.486 80.8451 187.06 80.6848 187.464 80.5136C187.803 80.3699 187.988 80.2324 188.032 80.1432L188.508 79.1854C188.654 78.8956 188.767 78.6778 188.906 78.4203Z" fill="#00160A"/>
<ellipse cx="195.589" cy="79.9782" rx="1.15734" ry="0.948837" fill="#FFB61D"/>
<ellipse cx="192.283" cy="77.3329" rx="1.15733" ry="0.948841" fill="#FFB61D"/>
<path fill-rule="evenodd" clip-rule="evenodd" d="M185.168 83.9879C185.006 83.8446 184.805 83.5863 184.627 83.3066L184.398 83.4084L184.127 83.5245C184.072 83.5494 184.037 83.5688 184.026 83.5847C183.995 83.6428 183.923 83.6649 183.864 83.6341C183.807 83.6033 183.784 83.5312 183.815 83.4732C183.837 83.418 183.989 83.2451 184.271 83.0759C184.323 83.0452 184.379 83.0167 184.44 82.9889C184.336 82.794 184.254 82.6056 184.215 82.4546C184.157 82.2319 184.204 82.0741 184.28 82.0186C184.355 81.9638 184.543 81.9535 184.829 82.1911C184.882 82.2312 184.89 82.3061 184.85 82.3581C184.81 82.41 184.736 82.4196 184.683 82.3795C184.629 82.3393 184.574 82.3166 184.529 82.3002L184.551 82.3854C184.559 82.4159 184.57 82.4476 184.584 82.4786C184.636 82.5908 184.701 82.7189 184.774 82.8504C184.998 82.7658 185.252 82.6892 185.527 82.6523C185.661 82.6343 185.798 82.6308 185.94 82.6319C186.021 82.6266 186.092 82.6885 186.098 82.7703C186.103 82.8519 186.041 82.9226 185.959 82.9279C185.628 82.9599 185.323 83.0434 185.053 83.1374L184.964 83.1692C185.11 83.3975 185.267 83.6049 185.401 83.722C185.474 83.7863 185.481 83.8982 185.417 83.9715C185.352 84.0451 185.241 84.0524 185.168 83.9879Z" fill="#FFB61D"/>
<path fill-rule="evenodd" clip-rule="evenodd" d="M107.409 174.961C106.573 178.901 102.537 180.019 102.581 183.191C102.603 184.831 103.056 186.192 103.428 187.239C104.185 189.367 106.155 191.559 107.068 193.589C107.848 195.323 111.762 194.15 112.074 196.845C112.245 198.313 109.476 199.159 108.722 199.216C107.641 199.298 106.27 198.927 104.61 198.102C102.59 197.121 100.969 196.348 99.7961 194.934C99.5673 194.659 99.4235 193.88 99.1704 192.657C98.8935 191.317 97.9475 187.913 95.4759 182.416C95.1229 181.631 93.7717 178.418 92.2689 175.132C91.0288 172.42 96.1539 166.988 98.4264 167.178C104.009 167.645 108 172.178 107.409 174.961Z" fill="white"/>
<path fill-rule="evenodd" clip-rule="evenodd" d="M103.495 198.16C102.106 197.333 100.963 196.38 100.067 195.3C99.8377 195.024 99.6695 194.009 99.4165 192.785C99.2838 192.143 94.4594 180.569 92.8681 176.213C92.5711 175.4 93.2919 175.969 93.4613 176.213C94.3846 177.543 100.067 186.319 102.781 194.45" fill="#E7EAEE"/>
<path fill-rule="evenodd" clip-rule="evenodd" d="M104.578 197.815L104.785 197.916C106.346 198.692 107.607 199.034 108.548 198.962C109.558 198.886 111.208 197.974 111.281 197.199C111.398 195.953 111.061 195.6 109.394 194.97C108.911 194.788 107.604 194.828 105.59 195.132C105.223 195.188 104.881 194.936 104.825 194.568C104.769 194.201 105.022 193.859 105.389 193.803L105.72 193.754C107.78 193.459 109.13 193.433 109.87 193.712L110.089 193.797C112.089 194.588 112.8 195.406 112.62 197.324C112.467 198.95 110.235 200.183 108.649 200.303C107.466 200.393 106.041 200.02 104.361 199.206L104.192 199.123C102.09 198.102 100.417 196.847 99.1793 195.356C99.0162 195.16 98.9119 194.898 98.8049 194.496L98.7801 194.401C98.7405 194.245 98.7008 194.072 98.6546 193.856L98.3881 192.548L98.347 192.357C97.9085 190.393 96.6385 186.769 94.7142 182.464L94.421 181.816C94.24 181.422 91.6593 177.24 91.4667 176.26C90.7464 172.595 93.6915 170.78 93.6915 170.78C93.6915 170.78 92.1641 174.003 92.5945 175.587C92.9292 176.819 95.7533 181.057 96.758 184.307C97.7977 187.669 98.8859 191.257 100.475 194.191C101.675 196.405 102.534 197.409 104.578 197.815Z" fill="#00160A"/>
<path fill-rule="evenodd" clip-rule="evenodd" d="M107.839 197.061C107.905 196.839 108.139 196.712 108.362 196.779C109.054 196.985 109.544 197.214 109.843 197.486C110.126 197.743 110.406 198.139 110.693 198.675C110.803 198.88 110.725 199.134 110.521 199.244C110.316 199.353 110.062 199.276 109.952 199.071C109.706 198.612 109.478 198.29 109.278 198.108C109.093 197.939 108.703 197.758 108.121 197.584C107.899 197.518 107.772 197.283 107.839 197.061Z" fill="#00160A"/>
<path fill-rule="evenodd" clip-rule="evenodd" d="M109.012 195.764C109.086 195.544 109.324 195.425 109.544 195.498C110.137 195.696 110.577 195.92 110.87 196.186C111.16 196.45 111.439 196.876 111.721 197.471C111.82 197.68 111.731 197.931 111.522 198.03C111.312 198.13 111.061 198.041 110.962 197.831C110.723 197.327 110.499 196.984 110.305 196.808C110.114 196.635 109.77 196.459 109.278 196.296C109.058 196.222 108.939 195.984 109.012 195.764Z" fill="#00160A"/>
<path fill-rule="evenodd" clip-rule="evenodd" d="M104.805 168.683C106.284 169.278 109.191 172.574 108.741 174.425C108.276 176.34 107.594 177.104 106.509 178.374L106.395 178.505C106.064 178.881 104.697 180.27 104.643 180.328L104.513 180.471C103.295 181.846 102.797 183.366 103.788 186.168C104.514 188.22 105.708 190.552 107.356 192.777C107.574 193.07 108.115 193.932 107.821 194.15C107.528 194.367 106.833 193.664 106.616 193.371C104.893 191.046 103.644 188.793 102.872 186.609C101.705 183.309 101.986 181.949 103.597 180.173L103.7 180.062C103.872 179.883 105.057 178.678 105.37 178.328L105.402 178.293C106.414 177.141 107.081 175.922 107.509 174.159C107.805 172.941 106.561 170.778 103.932 169.022C102.187 167.857 103.327 168.089 104.805 168.683Z" fill="#00160A"/>
</svg>
