<svg version="1.0" xmlns="http://www.w3.org/2000/svg"
 width="63.000000pt" height="54.000000pt" viewBox="0 0 63.000000 54.000000"
 preserveAspectRatio="xMidYMid meet">
<g transform="translate(0.000000,54.000000) scale(0.100000,-0.100000)"
fill="#000000" stroke="none">
<path d="M360 476 c-12 -31 -29 -41 -36 -22 -9 24 -43 19 -56 -9 -8 -18 -8
-28 0 -38 8 -10 5 -33 -14 -92 -14 -44 -28 -116 -32 -160 -7 -74 -9 -80 -33
-89 -36 -12 -76 0 -95 29 -30 46 9 112 41 69 16 -23 34 -10 19 14 -15 24 -52
27 -75 6 -13 -12 -19 -30 -19 -60 0 -34 5 -47 27 -63 34 -27 60 -33 98 -23 21
6 33 5 40 -4 8 -10 31 -11 100 -5 119 11 145 22 145 60 0 24 -30 190 -41 228
-2 6 21 30 51 53 47 35 60 40 90 35 34 -5 35 -5 15 12 -20 18 -20 18 -1 37 27
27 2 35 -27 9 -18 -15 -34 -18 -84 -15 -53 3 -63 7 -63 22 0 15 -18 30 -36 30
-3 0 -9 -11 -14 -24z m150 -50 c0 -2 -25 -23 -56 -46 -46 -35 -55 -46 -49 -64
17 -52 45 -184 45 -212 0 -29 -4 -32 -42 -42 -24 -6 -72 -13 -107 -16 l-64 -4
6 91 c7 106 48 266 74 284 15 12 193 20 193 9z"/>
</g>
</svg>
